<?xml version="1.0" encoding="UTF-8" standalone="no"?>
<!-- Created with Inkscape (http://www.inkscape.org/) -->

<svg
   xmlns:dc="http://purl.org/dc/elements/1.1/"
   xmlns:cc="http://creativecommons.org/ns#"
   xmlns:rdf="http://www.w3.org/1999/02/22-rdf-syntax-ns#"
   xmlns:svg="http://www.w3.org/2000/svg"
   xmlns="http://www.w3.org/2000/svg"
   xmlns:xlink="http://www.w3.org/1999/xlink"
   xmlns:sodipodi="http://sodipodi.sourceforge.net/DTD/sodipodi-0.dtd"
   xmlns:inkscape="http://www.inkscape.org/namespaces/inkscape"
   width="3431.25"
   height="2970"
   id="svg2398"
   sodipodi:version="0.32"
   inkscape:version="0.48.4 r9939"
   version="1.0"
   sodipodi:docname="banner_38.125x33in.svg"
   inkscape:output_extension="org.inkscape.output.svg.inkscape"
   inkscape:export-xdpi="10"
   inkscape:export-ydpi="10"
   style="display:inline">
  <defs
     id="defs2400">
    <linearGradient
       id="linearGradient4463">
      <stop
         style="stop-color:#3589d1;stop-opacity:0.37068966;"
         offset="0"
         id="stop4465" />
      <stop
         id="stop5035"
         offset="0.5"
         style="stop-color:#3589d1;stop-opacity:0.70689654;" />
      <stop
         style="stop-color:#3589d1;stop-opacity:1;"
         offset="1"
         id="stop4467" />
    </linearGradient>
    <linearGradient
       id="linearGradient3659">
      <stop
         style="stop-color:#68b817;stop-opacity:0;"
         offset="0"
         id="stop3661" />
      <stop
         style="stop-color:#e16b50;stop-opacity:1;"
         offset="1"
         id="stop3663" />
    </linearGradient>
    <linearGradient
       id="linearGradient3783">
      <stop
         style="stop-color:#1b081f;stop-opacity:1;"
         offset="0"
         id="stop3785" />
      <stop
         style="stop-color:#481e31;stop-opacity:1;"
         offset="1"
         id="stop3787" />
    </linearGradient>
    <linearGradient
       id="linearGradient3773">
      <stop
         style="stop-color:#ffffff;stop-opacity:0.2173913;"
         offset="0"
         id="stop3775" />
      <stop
         style="stop-color:#ffffff;stop-opacity:0.63095236;"
         offset="1"
         id="stop3777" />
    </linearGradient>
    <inkscape:perspective
       sodipodi:type="inkscape:persp3d"
       inkscape:vp_x="0 : 526.18109 : 1"
       inkscape:vp_y="0 : 1000 : 0"
       inkscape:vp_z="744.09448 : 526.18109 : 1"
       inkscape:persp3d-origin="372.04724 : 350.78739 : 1"
       id="perspective2406" />
    <inkscape:perspective
       id="perspective2431"
       inkscape:persp3d-origin="332.67499 : 106.69667 : 1"
       inkscape:vp_z="665.34998 : 160.045 : 1"
       inkscape:vp_y="0 : 1000 : 0"
       inkscape:vp_x="0 : 160.045 : 1"
       sodipodi:type="inkscape:persp3d" />
    <inkscape:perspective
       id="perspective3752"
       inkscape:persp3d-origin="0.5 : 0.33333333 : 1"
       inkscape:vp_z="1 : 0.5 : 1"
       inkscape:vp_y="0 : 1000 : 0"
       inkscape:vp_x="0 : 0.5 : 1"
       sodipodi:type="inkscape:persp3d" />
    <inkscape:perspective
       id="perspective2877"
       inkscape:persp3d-origin="0.5 : 0.33333333 : 1"
       inkscape:vp_z="1 : 0.5 : 1"
       inkscape:vp_y="0 : 1000 : 0"
       inkscape:vp_x="0 : 0.5 : 1"
       sodipodi:type="inkscape:persp3d" />
    <inkscape:perspective
       id="perspective3679"
       inkscape:persp3d-origin="0.5 : 0.33333333 : 1"
       inkscape:vp_z="1 : 0.5 : 1"
       inkscape:vp_y="0 : 1000 : 0"
       inkscape:vp_x="0 : 0.5 : 1"
       sodipodi:type="inkscape:persp3d" />
    <inkscape:perspective
       id="perspective3657"
       inkscape:persp3d-origin="0.5 : 0.33333333 : 1"
       inkscape:vp_z="1 : 0.5 : 1"
       inkscape:vp_y="0 : 1000 : 0"
       inkscape:vp_x="0 : 0.5 : 1"
       sodipodi:type="inkscape:persp3d" />
    <radialGradient
       inkscape:collect="always"
       xlink:href="#linearGradient4463"
       id="radialGradient4473"
       cx="1744.0835"
       cy="2157.3904"
       fx="1744.0835"
       fy="2157.3904"
       r="1715.625"
       gradientTransform="matrix(1.3278934,0,0,0.63341699,-571.87343,-1371.6812)"
       gradientUnits="userSpaceOnUse" />
  </defs>
  <sodipodi:namedview
     id="base"
     pagecolor="#ffffff"
     bordercolor="#666666"
     borderopacity="1.0"
     gridtolerance="10000"
     guidetolerance="10"
     objecttolerance="10"
     inkscape:pageopacity="0.0"
     inkscape:pageshadow="2"
     inkscape:zoom="0.14055556"
     inkscape:cx="1078.0384"
     inkscape:cy="1743.3798"
     inkscape:document-units="in"
     inkscape:current-layer="layer3"
     showgrid="false"
     units="in"
     inkscape:window-width="1672"
     inkscape:window-height="1098"
     inkscape:window-x="0"
     inkscape:window-y="28"
     inkscape:window-maximized="0"
     borderlayer="false"
     inkscape:showpageshadow="false"
     fit-margin-top="0"
     fit-margin-left="0"
     fit-margin-right="0"
     fit-margin-bottom="0"
     inkscape:snap-bbox="false"
     inkscape:bbox-nodes="true" />
  <metadata
     id="metadata2403">
    <rdf:RDF>
      <cc:Work
         rdf:about="">
        <dc:format>image/svg+xml</dc:format>
        <dc:type
           rdf:resource="http://purl.org/dc/dcmitype/StillImage" />
        <dc:title />
      </cc:Work>
    </rdf:RDF>
  </metadata>
  <g
     inkscape:groupmode="layer"
     id="layer5"
     inkscape:label="Background"
     style="display:inline"
     transform="translate(0,810)"
     sodipodi:insensitive="true">
    <rect
       style="fill:#3589d1;fill-opacity:1;stroke:none"
       id="rect2853"
       width="3431.25"
       height="2970"
       x="0"
       y="-810" />
  </g>
  <g
     inkscape:groupmode="layer"
     id="layer2"
     inkscape:label="Stars"
     sodipodi:insensitive="true"
     style="display:inline">
    <path
       sodipodi:type="star"
       style="fill:#ffffff;fill-opacity:0.29223747;stroke:none"
       id="path3949"
       sodipodi:sides="5"
       sodipodi:cx="1055.2101"
       sodipodi:cy="245.8222"
       sodipodi:r1="18.138805"
       sodipodi:r2="9.4327478"
       sodipodi:arg1="0.58800261"
       sodipodi:arg2="1.2163211"
       inkscape:flatsided="false"
       inkscape:rounded="0"
       inkscape:randomized="0"
       d="m 1070.3025,255.8838 -11.8183,-1.21529 -8.1795,8.61662 -2.4962,-11.61542 -10.7225,-5.11642 10.2756,-5.96343 1.5525,-11.77875 8.8469,7.92982 11.682,-2.16324 -4.8078,10.86433 z"
       inkscape:transform-center-x="0.088507375"
       inkscape:transform-center-y="-1.7171115" />
    <use
       id="use3951"
       xlink:href="#path3949"
       x="0"
       y="0"
       width="3431.25"
       height="2970"
       transform="matrix(0.40255301,-0.91539668,0.91539668,0.40255301,764.66009,1355.187)" />
    <use
       id="use3953"
       xlink:href="#path3949"
       x="0"
       y="0"
       width="3431.25"
       height="2970"
       transform="matrix(0.96341656,-0.26800847,0.26800847,0.96341656,374.18084,836.16639)" />
    <use
       id="use4167"
       xlink:href="#path3949"
       x="0"
       y="0"
       width="3431.25"
       height="2970"
       transform="matrix(0.98903669,0.14767,-0.14767,0.98903669,427.67419,349.41449)" />
    <use
       id="use4169"
       xlink:href="#path3949"
       x="0"
       y="0"
       width="3431.25"
       height="2970"
       transform="matrix(0.70571055,0.70850026,-0.70850026,0.70571055,919.91032,-357.38809)" />
    <use
       id="use4171"
       xlink:href="#path3949"
       x="0"
       y="0"
       width="3431.25"
       height="2970"
       transform="matrix(0.5597612,0.82865397,-0.82865397,0.5597612,999.95041,-972.90957)" />
    <use
       id="use4173"
       xlink:href="#path3949"
       x="0"
       y="0"
       width="3431.25"
       height="2970"
       transform="matrix(0.97481401,0.22301939,-0.22301939,0.97481401,553.75877,232.77517)" />
    <use
       id="use4177"
       xlink:href="#path3949"
       x="0"
       y="0"
       width="3431.25"
       height="2970"
       transform="matrix(0.43111433,0.90229731,-0.90229731,0.43111433,26.457072,-633.61013)" />
    <use
       id="use4179"
       xlink:href="#path3949"
       x="0"
       y="0"
       width="3431.25"
       height="2970"
       transform="matrix(0.74141803,0.67104344,-0.67104344,0.74141803,177.94357,-543.56219)" />
    <use
       id="use4181"
       xlink:href="#path3949"
       x="0"
       y="0"
       width="3431.25"
       height="2970"
       transform="matrix(0.64778454,0.7618236,-0.7618236,0.64778454,2581.5773,-676.46216)" />
    <use
       id="use4183"
       xlink:href="#path3949"
       x="0"
       y="0"
       width="3431.25"
       height="2970"
       transform="matrix(0.85076587,-0.52554489,0.52554489,0.85076587,1058.4831,338.0932)" />
    <use
       id="use4185"
       xlink:href="#path3949"
       x="0"
       y="0"
       width="3431.25"
       height="2970"
       transform="matrix(0.45431143,-0.89084293,0.89084293,0.45431143,1527.4964,1191.6076)" />
    <use
       id="use4187"
       xlink:href="#path3949"
       x="0"
       y="0"
       width="3431.25"
       height="2970"
       transform="matrix(0.75430846,0.65652018,-0.65652018,0.75430846,1805.5991,-696.25368)" />
    <use
       id="use4189"
       xlink:href="#path3949"
       x="0"
       y="0"
       width="3431.25"
       height="2970"
       transform="matrix(0.67374045,-0.73896807,0.73896807,0.67374045,1227.6935,574.10807)" />
    <use
       id="use4191"
       xlink:href="#path3949"
       x="0"
       y="0"
       width="3431.25"
       height="2970"
       transform="matrix(0.99994582,-0.01040977,0.01040977,0.99994582,1444.3464,36.165777)" />
    <use
       id="use4193"
       xlink:href="#path3949"
       x="0"
       y="0"
       width="3431.25"
       height="2970"
       transform="matrix(0.51445599,0.85751678,-0.85751678,0.51445599,1430.471,-959.05445)" />
    <use
       id="use4195"
       xlink:href="#path3949"
       x="0"
       y="0"
       width="3431.25"
       height="2970"
       transform="matrix(0.94726582,-0.32044885,0.32044885,0.94726582,941.43673,575.06939)" />
    <use
       id="use4225"
       xlink:href="#path3949"
       x="0"
       y="0"
       width="3431.25"
       height="2970"
       transform="matrix(0.67694318,0.73603528,-0.73603528,0.67694318,2262.4739,-924.60138)" />
    <use
       id="use4227"
       xlink:href="#path3949"
       x="0"
       y="0"
       width="3431.25"
       height="2970"
       transform="matrix(0.99777857,0.06661778,-0.06661778,0.99777857,1606.9654,547.50153)" />
    <use
       id="use4229"
       xlink:href="#path3949"
       x="0"
       y="0"
       width="3431.25"
       height="2970"
       transform="matrix(0.97262446,-0.23238259,0.23238259,0.97262446,1654.9941,478.62368)" />
    <use
       id="use4241"
       xlink:href="#path3949"
       x="0"
       y="0"
       width="3431.25"
       height="2970"
       transform="matrix(0.84065276,0.5415745,-0.5415745,0.84065276,115.52947,-71.743976)" />
    <use
       id="use4243"
       xlink:href="#path3949"
       x="0"
       y="0"
       width="3431.25"
       height="2970"
       transform="matrix(0.98809851,0.15382239,-0.15382239,0.98809851,-260.6455,431.49729)" />
    <use
       id="use4245"
       xlink:href="#path3949"
       x="0"
       y="0"
       width="3431.25"
       height="2970"
       transform="matrix(0.9880241,-0.15429961,0.15429961,0.9880241,-677.89652,125.10604)" />
    <use
       id="use4247"
       xlink:href="#path3949"
       x="0"
       y="0"
       width="3431.25"
       height="2970"
       transform="matrix(0.67849437,0.73460561,-0.73460561,0.67849437,273.30526,-216.45878)" />
    <use
       id="use4249"
       xlink:href="#path3949"
       x="0"
       y="0"
       width="3431.25"
       height="2970"
       transform="matrix(0.59303124,-0.80517945,0.80517945,0.59303124,-554.31941,801.71545)" />
    <use
       id="use4251"
       xlink:href="#path3949"
       x="0"
       y="0"
       width="3431.25"
       height="2970"
       transform="matrix(0.5344798,0.84518125,-0.84518125,0.5344798,-379.72049,-906.83504)" />
    <use
       id="use4253"
       xlink:href="#path3949"
       x="0"
       y="0"
       width="3431.25"
       height="2970"
       transform="matrix(0.98604367,-0.16648691,0.16648691,0.98604367,-221.78633,-28.295642)" />
    <use
       id="use4255"
       xlink:href="#path3949"
       x="0"
       y="0"
       width="3431.25"
       height="2970"
       transform="matrix(0.91931872,-0.39351378,0.39351378,0.91931872,2070.2517,244.22853)" />
    <use
       id="use4257"
       xlink:href="#path3949"
       x="0"
       y="0"
       width="3431.25"
       height="2970"
       transform="matrix(0.79948477,-0.60068636,0.60068636,0.79948477,1771.1953,713.55352)" />
    <use
       id="use4259"
       xlink:href="#path3949"
       x="0"
       y="0"
       width="3431.25"
       height="2970"
       transform="matrix(0.46824435,-0.88359902,0.88359902,0.46824435,1929.3403,1372.1462)" />
    <use
       id="use4289"
       xlink:href="#path3949"
       x="0"
       y="0"
       width="3431.25"
       height="2970"
       transform="matrix(0.84204299,-0.53941042,0.53941042,0.84204299,-779.04707,714.01182)" />
    <use
       id="use4291"
       xlink:href="#path3949"
       x="0"
       y="0"
       width="3431.25"
       height="2970"
       transform="matrix(0.4684711,-0.88347882,0.88347882,0.4684711,-271.86117,1269.2754)" />
    <use
       id="use4383"
       xlink:href="#path3949"
       x="0"
       y="0"
       width="3431.25"
       height="2970"
       transform="matrix(0.51631032,-0.85640157,0.85640157,0.51631032,278.80635,790.08271)" />
    <use
       id="use4385"
       xlink:href="#path3949"
       x="0"
       y="0"
       width="3431.25"
       height="2970"
       transform="matrix(0.96640855,-0.25701074,0.25701074,0.96640855,30.584271,481.81869)" />
    <use
       id="use4395"
       xlink:href="#path3949"
       x="0"
       y="0"
       width="3431.25"
       height="2970"
       transform="matrix(0.57478564,0.81830402,-0.81830402,0.57478564,1333.1312,-537.95426)" />
    <use
       id="use4397"
       xlink:href="#path3949"
       x="0"
       y="0"
       width="3431.25"
       height="2970"
       transform="matrix(0.91924493,-0.39368612,0.39368612,0.91924493,-536.31551,531.38901)" />
    <use
       id="use4399"
       xlink:href="#path3949"
       x="0"
       y="0"
       width="3431.25"
       height="2970"
       transform="matrix(0.7309482,0.68243295,-0.68243295,0.7309482,1459.0882,-570.18619)" />
    <use
       id="use4401"
       xlink:href="#path3949"
       x="0"
       y="0"
       width="3431.25"
       height="2970"
       transform="matrix(0.99148271,-0.13023841,0.13023841,0.99148271,1017.3098,694.58883)" />
    <use
       id="use4403"
       xlink:href="#path3949"
       x="0"
       y="0"
       width="3431.25"
       height="2970"
       transform="matrix(0.97231565,0.23367129,-0.23367129,0.97231565,1282.495,377.11904)" />
    <use
       id="use4405"
       xlink:href="#path3949"
       x="0"
       y="0"
       width="3431.25"
       height="2970"
       transform="matrix(0.71726218,-0.69680339,0.69680339,0.71726218,1437.7669,778.33805)" />
    <use
       id="use4407"
       xlink:href="#path3949"
       x="0"
       y="0"
       width="3431.25"
       height="2970"
       transform="matrix(0.99699563,0.07745787,-0.07745787,0.99699563,1356.9966,-365.15931)" />
    <use
       id="use4409"
       xlink:href="#path3949"
       x="0"
       y="0"
       width="3431.25"
       height="2970"
       transform="matrix(0.74842033,0.66322471,-0.66322471,0.74842033,1858.1459,-83.205907)" />
    <use
       id="use4411"
       xlink:href="#path3949"
       x="0"
       y="0"
       width="3431.25"
       height="2970"
       transform="matrix(0.99985668,-0.01692999,0.01692999,0.99985668,1414.4109,640.74631)" />
    <use
       id="use4413"
       xlink:href="#path3949"
       x="0"
       y="0"
       width="3431.25"
       height="2970"
       transform="matrix(0.84500187,0.53476335,-0.53476335,0.84500187,1735.4315,-788.92591)" />
    <use
       id="use4415"
       xlink:href="#path3949"
       x="0"
       y="0"
       width="3431.25"
       height="2970"
       transform="matrix(0.6811055,0.73218529,-0.73218529,0.6811055,1850.2159,-258.96889)" />
    <use
       id="use4417"
       xlink:href="#path3949"
       x="0"
       y="0"
       width="3431.25"
       height="2970"
       transform="matrix(0.93910012,0.34364367,-0.34364367,0.93910012,1363.7408,-418.4418)" />
    <use
       id="use4419"
       xlink:href="#path3949"
       x="0"
       y="0"
       width="3431.25"
       height="2970"
       transform="matrix(0.98835499,-0.15216574,0.15216574,0.98835499,1167.7479,727.11216)" />
    <use
       id="use4421"
       xlink:href="#path3949"
       x="0"
       y="0"
       width="3431.25"
       height="2970"
       transform="matrix(0.97981268,0.19991776,-0.19991776,0.97981268,1458.2197,417.93303)" />
    <use
       id="use4423"
       xlink:href="#path3949"
       x="0"
       y="0"
       width="3431.25"
       height="2970"
       transform="matrix(0.49275573,-0.87016768,0.87016768,0.49275573,2522.3432,1009.9615)" />
    <use
       id="use4425"
       xlink:href="#path3949"
       x="0"
       y="0"
       width="3431.25"
       height="2970"
       transform="matrix(0.67758699,0.73544263,-0.73544263,0.67758699,1409.4811,-983.94106)" />
    <use
       id="use4427"
       xlink:href="#path3949"
       x="0"
       y="0"
       width="3431.25"
       height="2970"
       transform="matrix(0.87480736,-0.48447092,0.48447092,0.87480736,919.10425,343.50408)" />
    <use
       id="use4429"
       xlink:href="#path3949"
       x="0"
       y="0"
       width="3431.25"
       height="2970"
       transform="matrix(0.99933595,0.03643707,-0.03643707,0.99933595,1503.5388,451.07061)" />
    <use
       id="use4431"
       xlink:href="#path3949"
       x="0"
       y="0"
       width="3431.25"
       height="2970"
       transform="matrix(0.98374729,-0.17955855,0.17955855,0.98374729,1663.7807,604.43959)" />
    <use
       id="use4441"
       xlink:href="#path3949"
       x="0"
       y="0"
       width="3431.25"
       height="2970"
       transform="matrix(0.7665707,0.64215993,-0.64215993,0.7665707,1778.5314,-857.31047)" />
    <use
       id="use4455"
       xlink:href="#path3949"
       x="0"
       y="0"
       width="3431.25"
       height="2970"
       transform="matrix(0.86851912,-0.49565567,0.49565567,0.86851912,-326.05823,457.14026)" />
    <use
       id="use4457"
       xlink:href="#path3949"
       x="0"
       y="0"
       width="3431.25"
       height="2970"
       transform="matrix(0.85851522,0.51278808,-0.51278808,0.85851522,227.29344,-626.38177)" />
    <use
       id="use4459"
       xlink:href="#path3949"
       x="0"
       y="0"
       width="3431.25"
       height="2970"
       transform="matrix(0.92355943,-0.38345533,0.38345533,0.92355943,-263.31567,1047.567)" />
  </g>
  <g
     inkscape:groupmode="layer"
     id="layer4"
     inkscape:label="Sky"
     sodipodi:insensitive="true"
     style="display:inline">
    <rect
       y="-1086.2529"
       x="0"
       height="1086.2529"
       width="3431.25"
       id="rect4461"
       style="fill:url(#radialGradient4473);fill-opacity:1;stroke:none;display:inline"
       transform="scale(1,-1)" />
  </g>
  <g
     inkscape:groupmode="layer"
     id="layer1"
     inkscape:label="Clouds"
     transform="translate(0,810)"
     style="display:inline"
     sodipodi:insensitive="true">
    <path
       style="fill:#ffffff;fill-opacity:0.65490196;stroke:none;display:inline"
       d="m 1317.7444,33.02962 c -28.7013,0 -54.1959,11.09299 -70.3174,28.24578 -12.0791,-3.62959 -25.854,-5.70855 -40.4878,-5.70855 -47.7138,0 -86.3873,21.86757 -86.3873,48.83616 0,0.79868 0.033,1.58652 0.099,2.37581 -26.4981,5.79838 -46.7061,21.59825 -51.575,41.08177 -11.7797,-3.74675 -25.6675,-5.90653 -40.5538,-5.90653 -42.52735,0 -77.01592,17.64957 -77.01592,39.4319 0,21.78231 34.48857,39.46489 77.01592,39.46489 30.3061,0 56.4981,-8.97242 69.0635,-22.00927 12.6254,6.73317 28.4065,10.72416 45.5036,10.72416 15.7631,0 30.3859,-3.39897 42.4677,-9.20628 21.7885,8.07187 50.2715,12.96799 81.4705,12.96799 44.267,0 83.103,-9.83926 105.0307,-24.64907 2.5936,0.45464 5.2268,0.84429 7.9195,1.1549 2.9252,17.36093 32.7877,31.01757 69.2283,31.01757 38.3785,0 69.4927,-15.15179 69.4927,-33.82235 0,-13.77126 -16.9301,-25.6158 -41.2137,-30.88557 2.3574,-4.49131 3.6626,-9.25267 3.6626,-14.18887 0,-25.34127 -33.4325,-46.15032 -76.1909,-48.57219 -6.5446,-34.19123 -43.0897,-60.35225 -87.2123,-60.35225 z"
       id="path3645"
       inkscape:connector-curvature="0" />
    <path
       style="fill:#ffffff;fill-opacity:0.65490196;stroke:none;display:inline"
       d="m 2218.0615,-2.10955 c -50.3781,0 -91.2049,19.31052 -91.2049,43.12559 0,6.45965 3.0074,12.59439 8.392,18.09526 -52.5654,5.06246 -91.3214,22.50129 -91.3214,43.2713 0,24.73104 54.9518,44.78651 122.7331,44.78651 35.0198,0 66.572,-5.37349 88.932,-13.95753 12.6734,2.54642 26.9576,3.99203 42.0767,3.99203 12.4675,0 24.3596,-0.96957 35.2581,-2.73906 14.1767,5.88869 31.8455,9.38272 50.993,9.38272 46.7143,0 84.5611,-20.80044 84.5611,-46.44743 0,-23.18654 -30.9335,-42.39076 -71.3903,-45.86466 -7.2513,-19.30129 -36.3688,-33.74286 -71.2155,-33.74286 -9.596,0 -18.7646,1.09946 -27.1575,3.08873 -15.3038,-13.66262 -45.6759,-22.9906 -80.6564,-22.9906 z"
       id="path3677"
       inkscape:connector-curvature="0" />
    <path
       style="fill:#ffffff;fill-opacity:0.65490196;stroke:none;display:inline"
       d="m 3260.0449,61.882669 c -48.9009,0 -89.4488,20.92797 -96.8998,48.303521 -56.5699,1.95451 -101.1934,24.34099 -101.1934,51.68641 0,28.62961 48.9011,51.81651 109.2278,51.81651 33.9697,0 64.3102,-7.35647 84.3441,-18.89855 18.339,13.81289 45.9027,22.60671 76.7327,22.60671 38.6,0 72.0429,-13.79155 88.7029,-33.95885 3.6687,0.40411 7.4191,0.65055 11.2545,0.65055 38.8544,0 70.3573,-21.55625 70.3573,-48.1409 0,-26.58463 -31.5029,-48.140891 -70.3573,-48.140891 -18.5177,0 -35.3509,4.87891 -47.9133,12.880951 -11.291,-4.341841 -24.0754,-7.288801 -37.732,-8.522241 -16.5432,-18.03188 -49.0878,-30.28322 -86.5235,-30.28322 z"
       id="path3809"
       inkscape:connector-curvature="0" />
    <path
       style="fill:#ffffff;fill-opacity:0.21004567;stroke:none;display:inline"
       d="m 3404.7974,-743.04522 c 48.2484,0 88.2553,30.40606 95.6069,70.17976 55.815,2.83969 99.843,35.36481 99.843,75.09474 0,41.59571 -48.2485,75.28375 -107.7702,75.28375 -33.5165,0 -63.4521,-10.68815 -83.2187,-27.45754 -18.0943,20.06863 -45.2902,32.84509 -75.7088,32.84509 -38.085,0 -71.0816,-20.03762 -87.5193,-49.33851 -3.6198,0.58713 -7.3201,0.94518 -11.1044,0.94518 -38.3359,0 -69.4185,-31.31889 -69.4185,-69.94351 0,-38.62457 31.0826,-69.94347 69.4185,-69.94347 18.2706,0 34.8792,7.08853 47.274,18.71462 11.1403,-6.30822 23.7542,-10.58983 37.2285,-12.38189 16.3225,-26.19836 48.4328,-43.99822 85.369,-43.99822 z"
       id="path3895"
       inkscape:connector-curvature="0" />
    <path
       inkscape:connector-curvature="0"
       id="path3891"
       d="m -19.696209,-413.74874 c -76.798676,-20.95661 -129.110611,-75.60442 -116.868861,-122.05476 3.32049,-12.5993 11.05857,-23.31383 22.09472,-31.80309 -77.53079,-31.74062 -127.64804,-81.87636 -116.97155,-122.38739 12.71258,-48.23705 106.79279,-64.49531 210.121661,-36.29916 53.3858,14.56781 98.723205,38.17399 128.397299,64.2182 20.62886,0.30534 43.14743,3.42774 66.19564,9.71701 19.00608,5.18637 36.63656,12.02445 52.34117,20.00936 24.63864,-5.58832 53.36968,-5.05333 82.55901,2.91178 71.21338,19.43251 118.21662,75.74668 105.03313,125.7701 -11.91856,45.22443 -68.94662,69.81354 -132.40651,59.75977 -20.9757,34.62998 -72.78729,50.68519 -125.90917,36.18947 -14.62856,-3.99184 -28.04038,-9.95026 -39.81235,-17.3216 -30.352832,20.2822 -81.448339,25.84175 -134.774189,11.29031 z"
       style="fill:#ffffff;fill-opacity:0.26086958;stroke:none;display:inline" />
    <path
       style="fill:#ffffff;fill-opacity:0.65490196;stroke:none;display:inline"
       d="m 541.80102,-208.95799 c -55.9309,0 -103.19222,40.4835 -118.45372,96.00038 -24.19546,-18.40875 -57.36963,-29.75043 -93.9798,-29.75043 -74.04728,0 -134.08644,46.451914 -134.08644,103.757994 0,2.23784 0.095,4.46889 0.27534,6.67154 -33.22771,12.80807 -58.3346,38.3772873 -66.81378,69.430564 -9.81204,-2.099959 -20.19312,-3.258187 -30.95949,-3.258187 -59.622483,0 -107.96052,34.591033 -107.96052,77.265769 0,42.67473 48.338037,77.30455 107.96052,77.30455 39.30461,0 73.69246,-15.07472 92.57256,-37.54682 16.11646,7.04533 34.3602,11.0546 53.68964,11.0546 19.15793,0 37.25049,-3.93196 53.26134,-10.86066 24.75662,33.07677 68.07859,55.00143 117.38298,55.00143 47.53541,0 89.49254,-20.36677 114.62966,-51.47172 11.27096,1.90277 23.01313,2.90909 35.08947,2.90909 31.12017,0 60.07974,-6.70861 84.25143,-18.19158 3.21837,0.33127 6.49011,0.50426 9.78957,0.50426 14.69637,0 28.67307,-3.34073 41.26913,-9.38671 15.46914,5.93336 34.23656,9.38671 54.48503,9.38671 52.89093,0 95.78476,-23.7218 95.78476,-52.984466 0,-28.296502 -40.11354,-51.411294 -90.58406,-52.906864 0.0147,-0.761217 0.0306,-1.523511 0.0306,-2.288504 0,-57.244412 -41.5043,-104.086572 -94.04099,-107.908292 -0.95994,-73.474554 -55.91523,-132.732654 -123.59327,-132.732654 z"
       id="path3627"
       inkscape:connector-curvature="0" />
    <path
       style="fill:#ffffff;fill-opacity:0.49771693;stroke:none;display:inline"
       d="m 1524.7527,-258.78353 c -92.6121,0.79731 -132.6613,53.63628 -123.0198,82.72476 -12.0557,-6.383 -27.927,-10.26102 -45.3508,-10.26102 -37.6699,0 -68.2318,18.15326 -68.2318,40.51978 0,22.36654 30.5619,40.48233 68.2318,40.48233 11.0099,0 21.389,-1.51845 30.5959,-4.26919 21.0165,20.22923 64.3062,34.11601 114.3318,34.11601 48.6193,0 90.9016,-13.12275 112.534,-32.4308 16.691,4.33895 36.5816,6.85317 57.971,6.85317 58.8592,0 106.5798,-19.07323 106.5798,-42.61692 0,-17.57559 -26.5952,-32.64992 -64.5621,-39.17162 0.4011,-1.83297 0.6367,-3.67704 0.6367,-5.5799 0,-22.36652 -28.6473,-40.51978 -63.9627,-40.51978 -8.0654,0 -15.775,0.97047 -22.8815,2.69633 -17.763,-19.18313 -57.1517,-32.93677 -102.8723,-32.54315 z"
       id="path3667"
       inkscape:connector-curvature="0"
       sodipodi:nodetypes="scssscscsscsscs" />
    <path
       style="fill:#ffffff;fill-opacity:0.47945204;stroke:none;display:inline"
       d="m 3155.0015,-332.2059 c -54.8656,0 -100.3612,19.44871 -108.884,44.89751 -72.0612,0.0768 -130.446,30.97895 -130.446,69.07543 0,5.05023 1.0348,9.97102 2.9824,14.71303 -4.2699,-0.57962 -8.6807,-0.91009 -13.182,-0.91009 -39.3737,0 -71.277,23.20621 -71.277,51.81416 0,28.60795 31.9033,51.78382 71.277,51.78382 10.1687,0 19.8477,-1.55068 28.6004,-4.33807 21.8459,11.259674 51.1707,18.171364 83.445,18.171364 31.5243,0 60.2472,-6.58404 81.9238,-17.382634 13.0893,6.572304 29.4094,10.465984 47.0907,10.465984 21.1032,0 40.2254,-5.56708 54.2779,-14.591684 18.0433,6.99835 40.3735,11.133374 64.5371,11.133374 34.8395,0 65.8318,-8.588214 85.7116,-21.963394 16.2597,7.29467 36.5543,11.61875 58.5724,11.61875 53.4358,0 96.746,-25.53289 96.746,-57.00163 0,-31.46875 -43.3102,-56.97131 -96.746,-56.97131 -5.6049,0 -11.0887,0.31066 -16.4326,0.84942 0.7655,-2.53376 1.1632,-5.13417 1.1632,-7.76607 0,-30.51513 -53.2219,-55.24213 -118.8449,-55.24213 -3.5938,0 -7.1341,0.0974 -10.6468,0.2427 -5.1327,-27.24911 -52.361,-48.59853 -109.8682,-48.59853 z"
       id="path3781"
       inkscape:connector-curvature="0" />
    <path
       inkscape:connector-curvature="0"
       id="path3893"
       d="m 883.86809,-447.0912 c -48.9009,0 -89.4488,20.92797 -96.8998,48.30352 -56.5699,1.95451 -101.19339,24.34099 -101.19339,51.68642 0,28.62961 48.90109,51.81651 109.22779,51.81651 33.9697,0 64.3102,-7.35647 84.3441,-18.89855 18.339,13.81289 45.9027,22.60671 76.7327,22.60671 38.6,0 72.04291,-13.79155 88.70291,-33.95885 3.6687,0.40411 7.4191,0.65055 11.2545,0.65055 38.8544,0 70.3573,-21.55625 70.3573,-48.14091 0,-26.58463 -31.5029,-48.14089 -70.3573,-48.14089 -18.5177,0 -35.3509,4.87891 -47.9133,12.88095 -11.29101,-4.34184 -24.07541,-7.2888 -37.73201,-8.52224 -16.5432,-18.03188 -49.0878,-30.28322 -86.5235,-30.28322 z"
       style="fill:#ffffff;fill-opacity:0.29223747;stroke:none;display:inline" />
    <path
       inkscape:connector-curvature="0"
       id="path3873"
       d="m 2305.1641,-516.85776 c 44.7937,0 82.6441,34.74092 94.8666,82.38262 19.3776,-15.79738 45.9459,-25.53023 75.2661,-25.53023 59.3027,0 107.3865,39.86259 107.3865,89.03978 0,1.9204 -0.076,3.83497 -0.2205,5.72517 26.6112,10.99124 46.7187,32.93344 53.5095,59.58179 7.8582,-1.80207 16.1721,-2.79601 24.7947,-2.79601 47.7502,0 86.4629,29.68427 86.4629,66.30555 0,36.62129 -38.7127,66.33884 -86.4629,66.33884 -31.478,0 -59.0186,-12.93637 -74.1391,-32.22079 -12.9073,6.04596 -27.5182,9.48651 -42.9986,9.48651 -15.3432,0 -29.8331,-3.37421 -42.6558,-9.32007 -19.8269,28.38481 -54.5225,47.19944 -94.009,47.19944 -38.07,0 -71.6725,-17.47773 -91.8041,-44.17042 -9.0266,1.63286 -18.4306,2.49643 -28.1023,2.49643 -24.9234,0 -48.1164,-5.75699 -67.4749,-15.61108 -2.5775,0.28428 -5.1977,0.43273 -7.8401,0.43273 -11.7699,0 -22.9636,-2.86685 -33.0514,-8.05521 -12.389,5.09172 -27.4193,8.05521 -43.6358,8.05521 -42.3589,0 -76.7116,-20.35685 -76.7116,-45.46858 0,-24.28262 32.1259,-44.11856 72.5465,-45.40198 -0.011,-0.65323 -0.025,-1.30739 -0.025,-1.96387 0,-49.12425 33.2398,-89.32182 75.3152,-92.60142 0.7687,-63.05211 44.7811,-113.90441 98.9827,-113.90441 z"
       style="fill:#ffffff;fill-opacity:0.30593609;stroke:none;display:inline" />
  </g>
  <g
     inkscape:groupmode="layer"
     id="layer3"
     inkscape:label="Slug and text"
     style="display:inline"
     transform="translate(0,810)"
     sodipodi:insensitive="true">
    <g
       id="g5002">
      <rect
         y="1427.9485"
         x="0"
         height="525.72736"
         width="3431.25"
         id="rect3089"
         style="fill:#2e7ec2;fill-opacity:1;stroke:none" />
      <g
         style="font-size:206.04780579px;font-style:normal;font-variant:normal;font-weight:normal;font-stretch:normal;text-align:center;line-height:100%;writing-mode:lr-tb;text-anchor:middle;fill:#ffffff;fill-opacity:1;stroke:none;font-family:FreeSerif;-inkscape-font-specification:FreeSerif"
         id="text3666">
        <path
           d="m 384.03297,1627.9676 c -7.82989,2e-4 -14.76682,1.4425 -20.81083,4.327 -6.04412,2.7475 -10.92058,6.319 -14.62939,10.7145 -3.7089,4.3958 -6.73093,9.547 -9.0661,15.4536 -2.33525,5.9068 -3.98363,11.6075 -4.94515,17.102 -0.82422,5.3573 -1.23632,10.7832 -1.23629,16.2778 -3e-5,19.0938 4.80775,34.2039 14.42335,45.3305 9.75287,10.9892 23.0086,16.4838 39.76722,16.4838 7.41763,0 13.80511,-1.1676 19.16245,-3.5028 5.4945,-2.4726 8.2418,-5.3572 8.24191,-8.654 l 0,-33.3798 c -1.1e-4,-7.6924 -1.09903,-12.5001 -3.29676,-14.4233 -2.06059,-2.0604 -7.00573,-3.3654 -14.83544,-3.9149 l 0,-3.7089 52.54219,0 0,3.7089 c -6.04421,0.5495 -9.95912,1.8545 -11.74473,3.9149 -1.78588,1.9232 -2.67875,5.9067 -2.67862,11.9508 l 0,41.8277 c -4.12108,3.5715 -11.60748,6.8682 -22.45921,9.8903 -10.71459,3.022 -20.46751,4.533 -29.25879,4.533 -6.18151,0 -12.36294,-0.6181 -18.5443,-1.8544 -6.18149,-1.2363 -12.63765,-3.5028 -19.3685,-6.7996 -6.73093,-3.2968 -12.63762,-7.4177 -17.72011,-12.3629 -5.08253,-5.0825 -9.34085,-11.8133 -12.77496,-20.1927 -3.29677,-8.3792 -4.94516,-17.9261 -4.94515,-28.6406 -10e-6,-21.0168 6.59352,-38.3248 19.78059,-51.924 13.32439,-13.5991 30.28897,-20.3986 50.89381,-20.3988 7.9671,2e-4 15.7969,1.1678 23.48945,3.5028 7.82971,2.198 12.36275,3.2969 13.59915,3.2968 2.19773,10e-5 4.12084,-0.618 5.76934,-1.8544 1.64826,-1.3735 2.81587,-3.0219 3.50282,-4.9452 l 4.53305,0 1.64838,43.4761 -4.7391,0 c -4.39581,-10.7144 -9.89041,-19.231 -16.48382,-25.5499 -6.59364,-6.4561 -15.86578,-9.6841 -27.81646,-9.6843"
           style="line-height:100%;fill:#ffffff;font-family:FreeSerif;-inkscape-font-specification:FreeSerif"
           id="path4913"
           inkscape:connector-curvature="0" />
        <path
           d="m 513.56621,1684.4247 c -2.06054,10e-5 -4.60179,-1.1675 -7.62377,-3.5028 -3.02208,-2.4725 -5.01388,-3.7088 -5.97538,-3.7088 -2.74735,0 -5.83807,1.9918 -9.27215,5.9753 -3.43417,3.9837 -5.15123,7.6239 -5.1512,10.9206 l 0,46.3607 c -3e-5,5.9068 1.16757,9.8903 3.50281,11.9508 2.33517,2.0605 7.00558,3.2281 14.01125,3.5028 l 0,3.0907 -49.45147,0 0,-3.0907 c 6.59352,-1.2363 10.64579,-2.6099 12.15682,-4.1209 1.64837,-1.511 2.47256,-4.8765 2.47257,-10.0964 l 0,-51.5119 c -10e-6,-4.533 -0.54947,-7.6924 -1.64838,-9.4782 -0.96157,-1.9231 -2.74731,-2.8846 -5.35724,-2.8847 -2.19785,10e-5 -4.60174,0.2748 -7.21167,0.8242 l 0,-3.2968 c 10.9892,-3.5714 21.15421,-7.2802 30.49507,-11.1266 l 1.03024,0.4121 0,18.9564 c 5.08247,-7.2802 9.40947,-12.2941 12.98101,-15.0414 3.57145,-2.8846 7.48635,-4.327 11.74473,-4.3271 3.57143,10e-5 6.31873,0.9617 8.24191,2.8847 2.06041,1.9232 3.09065,4.6018 3.09072,8.0359 -7e-5,2.8847 -0.75558,5.1513 -2.26653,6.7996 -1.37372,1.6484 -3.29683,2.4726 -5.76934,2.4725"
           style="line-height:100%;fill:#ffffff;font-family:FreeSerif;-inkscape-font-specification:FreeSerif"
           id="path4915"
           inkscape:connector-curvature="0" />
        <path
           d="m 540.75164,1701.9388 c 0.27471,8.6541 1.44231,16.1404 3.50281,22.4592 2.06045,6.1815 4.73907,10.8519 8.03586,14.0113 3.29673,3.022 6.5935,5.2199 9.8903,6.5935 3.43408,1.2363 7.00558,1.8544 10.71448,1.8544 6.59348,0 12.29413,-1.6484 17.10197,-4.9451 4.94508,-3.2968 9.89022,-8.8601 14.83544,-16.6899 l 3.29677,1.4423 c -4.25841,11.1266 -10.1651,19.6433 -17.72011,25.55 -7.55515,5.9067 -16.20915,8.86 -25.96203,8.86 -11.81344,0 -21.22294,-4.1209 -28.22855,-12.3629 -6.86826,-8.3792 -10.30239,-19.6431 -10.30239,-33.7918 0,-15.2475 3.98359,-27.473 11.95078,-36.6765 8.10452,-9.3407 18.47558,-14.0112 31.11322,-14.0113 10.43969,10e-5 18.54423,3.1595 24.31364,9.4782 5.76926,6.1816 9.40943,15.5911 10.92053,28.2286 l -63.46272,0 m 0.41209,-6.5935 42.03375,0 c -1.37371,-8.9287 -3.50287,-15.1101 -6.38748,-18.5443 -2.88472,-3.4341 -7.48645,-5.1511 -13.8052,-5.1512 -12.3629,10e-5 -19.64325,7.8985 -21.84107,23.6955"
           style="line-height:100%;fill:#ffffff;font-family:FreeSerif;-inkscape-font-specification:FreeSerif"
           id="path4917"
           inkscape:connector-curvature="0" />
        <path
           d="m 615.25726,1739.0274 c -10e-6,-2.4726 0.27472,-4.7391 0.82419,-6.7996 0.54945,-2.1978 1.51101,-4.1896 2.88467,-5.9754 1.37364,-1.923 2.67861,-3.6401 3.91491,-5.1512 1.23627,-1.5109 3.0907,-3.022 5.56329,-4.533 2.47255,-1.6483 4.53303,-2.9533 6.18143,-3.9149 1.64836,-1.0989 4.12093,-2.3352 7.41772,-3.7089 3.4341,-1.5109 6.04403,-2.6099 7.82982,-3.2967 1.78571,-0.8242 4.60169,-1.9918 8.44796,-3.5029 3.84617,-1.5109 6.66216,-2.6098 8.44796,-3.2967 l 0,-12.5689 c -6e-5,-11.4013 -5.21993,-17.1019 -15.65963,-17.102 -4.121,10e-5 -7.62381,1.0303 -10.50844,3.0907 -2.8847,1.9232 -4.32703,4.2584 -4.327,7.0056 -3e-5,1.099 0.13733,2.6101 0.41209,4.5331 0.41207,1.9232 0.61812,3.1595 0.61814,3.7088 -2e-5,2.3353 -0.96158,4.3958 -2.88467,6.1815 -1.78577,1.6484 -3.91492,2.4726 -6.38748,2.4726 -2.33522,0 -4.3957,-0.8929 -6.18143,-2.6787 -1.78576,-1.7856 -2.67863,-3.8461 -2.67862,-6.1814 -1e-5,-6.4561 3.29675,-11.882 9.89029,-16.2778 6.73087,-4.5329 14.97278,-6.7995 24.72574,-6.7996 11.26389,10e-5 19.02502,2.7474 23.2834,8.242 4.25825,5.3573 6.38741,13.5992 6.38748,24.7257 l 0,40.1793 c -7e-5,4.5331 0.41202,7.6925 1.23629,9.4782 0.96148,1.6484 2.60986,2.4726 4.94515,2.4726 2.88458,0 5.90662,-1.305 9.0661,-3.9149 l 0,5.3572 c -3.57158,3.9836 -6.73098,6.7309 -9.4782,8.2419 -2.61001,1.3737 -5.63205,2.0605 -9.0661,2.0605 -4.25839,0 -7.41779,-1.1676 -9.4782,-3.5028 -1.92317,-2.3352 -3.15946,-6.1814 -3.70886,-11.5387 -11.81345,10.0277 -21.8411,15.0415 -30.08298,15.0415 -6.31882,0 -11.53869,-2.0605 -15.65963,-6.1814 -3.9836,-4.121 -5.9754,-9.4095 -5.97539,-15.8657 m 51.51195,-5.3572 0,-29.877 c -12.36291,4.5331 -21.01691,8.9288 -25.96202,13.1871 -4.94518,4.2583 -7.41775,9.4095 -7.41772,15.4536 -3e-5,5.632 1.37362,9.8216 4.12095,12.5689 2.74728,2.7473 5.70062,4.121 8.86006,4.1209 4.67037,10e-5 9.6842,-1.5796 15.04149,-4.7391 2.19779,-1.2362 3.64012,-2.5412 4.327,-3.9149 0.68677,-1.3736 1.03018,-3.6401 1.03024,-6.7995"
           style="line-height:100%;fill:#ffffff;font-family:FreeSerif;-inkscape-font-specification:FreeSerif"
           id="path4919"
           inkscape:connector-curvature="0" />
        <path
           d="m 751.20371,1666.2925 0,6.5936 -20.81083,0 0,58.9296 c -3e-5,6.4562 0.82416,11.1953 2.47257,14.2173 1.64835,2.8847 4.39565,4.327 8.24192,4.327 4.25827,0 8.37922,-2.4038 12.36286,-7.2116 l 2.67863,2.2665 c -6.59359,10.4397 -14.83549,15.6596 -24.72574,15.6596 -12.22553,0 -18.33827,-8.7227 -18.33826,-26.1681 l 0,-62.0203 -10.92053,0 c -0.54946,-0.4121 -0.82419,-0.8928 -0.82419,-1.4424 0,-0.6867 0.20604,-1.2362 0.61814,-1.6484 0.41209,-0.412 1.1676,-0.9614 2.26653,-1.6483 1.23628,-0.8241 2.67861,-1.8544 4.327,-3.0908 1.64837,-1.3735 3.9149,-3.7774 6.79958,-7.2116 2.88465,-3.4341 6.04404,-7.555 9.4782,-12.3629 2.19781,-3.1593 3.57146,-5.0824 4.12095,-5.7693 0.96153,1e-4 1.44231,0.893 1.44234,2.6786 l 0,23.9015 20.81083,0"
           style="line-height:100%;fill:#ffffff;font-family:FreeSerif;-inkscape-font-specification:FreeSerif"
           id="path4921"
           inkscape:connector-curvature="0" />
        <path
           d="m 776.17736,1701.9388 c 0.27471,8.6541 1.44231,16.1404 3.50281,22.4592 2.06045,6.1815 4.73907,10.8519 8.03586,14.0113 3.29673,3.022 6.5935,5.2199 9.8903,6.5935 3.43408,1.2363 7.00558,1.8544 10.71448,1.8544 6.59348,0 12.29413,-1.6484 17.10197,-4.9451 4.94508,-3.2968 9.89022,-8.8601 14.83544,-16.6899 l 3.29677,1.4423 c -4.25841,11.1266 -10.1651,19.6433 -17.72011,25.55 -7.55515,5.9067 -16.20915,8.86 -25.96203,8.86 -11.81344,0 -21.22294,-4.1209 -28.22855,-12.3629 -6.86826,-8.3792 -10.30239,-19.6431 -10.30239,-33.7918 0,-15.2475 3.98359,-27.473 11.95078,-36.6765 8.10452,-9.3407 18.47558,-14.0112 31.11322,-14.0113 10.43969,10e-5 18.54423,3.1595 24.31364,9.4782 5.76926,6.1816 9.40943,15.5911 10.92053,28.2286 l -63.46272,0 m 0.41209,-6.5935 42.03375,0 c -1.37371,-8.9287 -3.50287,-15.1101 -6.38748,-18.5443 -2.88472,-3.4341 -7.48645,-5.1511 -13.8052,-5.1512 -12.3629,10e-5 -19.64325,7.8985 -21.84107,23.6955"
           style="line-height:100%;fill:#ffffff;font-family:FreeSerif;-inkscape-font-specification:FreeSerif"
           id="path4923"
           inkscape:connector-curvature="0" />
        <path
           d="m 907.55217,1684.4247 c -2.06053,10e-5 -4.60179,-1.1675 -7.62377,-3.5028 -3.02208,-2.4725 -5.01387,-3.7088 -5.97538,-3.7088 -2.74735,0 -5.83807,1.9918 -9.27215,5.9753 -3.43417,3.9837 -5.15123,7.6239 -5.1512,10.9206 l 0,46.3607 c -3e-5,5.9068 1.16757,9.8903 3.50281,11.9508 2.33517,2.0605 7.00559,3.2281 14.01126,3.5028 l 0,3.0907 -49.45148,0 0,-3.0907 c 6.59352,-1.2363 10.64579,-2.6099 12.15682,-4.1209 1.64837,-1.511 2.47256,-4.8765 2.47258,-10.0964 l 0,-51.5119 c -2e-5,-4.533 -0.54948,-7.6924 -1.64839,-9.4782 -0.96157,-1.9231 -2.74731,-2.8846 -5.35724,-2.8847 -2.19785,10e-5 -4.60174,0.2748 -7.21167,0.8242 l 0,-3.2968 c 10.9892,-3.5714 21.15422,-7.2802 30.49507,-11.1266 l 1.03024,0.4121 0,18.9564 c 5.08248,-7.2802 9.40947,-12.2941 12.98101,-15.0414 3.57145,-2.8846 7.48635,-4.327 11.74473,-4.3271 3.57143,10e-5 6.31873,0.9617 8.24191,2.8847 2.06041,1.9232 3.09065,4.6018 3.09072,8.0359 -7e-5,2.8847 -0.75558,5.1513 -2.26653,6.7996 -1.37372,1.6484 -3.29683,2.4726 -5.76934,2.4725"
           style="line-height:100%;fill:#ffffff;font-family:FreeSerif;-inkscape-font-specification:FreeSerif"
           id="path4925"
           inkscape:connector-curvature="0" />
        <path
           d="m 1046.1611,1731.1976 c 0,-6.4561 -2.2666,-12.1568 -6.7995,-17.102 -4.5332,-5.0824 -10.0278,-9.4094 -16.4839,-12.981 -6.4562,-3.5714 -12.9123,-7.2116 -19.3685,-10.9205 -6.31878,-3.8462 -11.7447,-8.7226 -16.27773,-14.6294 -4.53307,-5.9066 -6.79959,-12.7749 -6.79958,-20.6048 -10e-6,-10.4396 3.5028,-18.8876 10.50844,-25.3439 7.14296,-6.5934 15.52227,-9.8901 25.13787,-9.8903 5.7692,2e-4 12.0194,1.1678 18.7503,3.5028 6.7308,2.3354 10.7831,3.503 12.1568,3.5028 3.5714,2e-4 5.7693,-2.335 6.5936,-7.0056 l 4.327,0 4.533,43.8882 -5.1512,0 c -3.2968,-12.088 -8.3793,-21.0168 -15.2475,-26.7862 -6.731,-5.7692 -14.2174,-8.6539 -22.4592,-8.654 -6.3189,10e-5 -11.4701,1.7859 -15.4536,5.3572 -3.9836,3.5716 -5.97543,8.1734 -5.9754,13.8052 -3e-5,5.4947 2.3352,10.7146 7.0056,15.6597 4.6704,4.9452 12.4315,10.4398 23.2834,16.4838 13.5991,7.2804 23.4207,14.4921 29.4649,21.635 6.0439,7.0057 9.066,14.7668 9.0661,23.2834 -10e-5,10.5772 -4.0524,19.5059 -12.1569,26.7862 -8.1046,7.143 -18.0635,10.7145 -29.8769,10.7145 -6.8683,0 -13.8739,-1.1676 -21.0169,-3.5028 -7.00561,-2.3352 -11.33261,-3.5028 -12.98097,-3.5028 -1.51104,0 -2.81601,0.6868 -3.91491,2.0605 -1.09894,1.2362 -1.71708,2.8159 -1.85443,4.7391 l -4.53305,0 -6.18144,-43.6822 4.7391,0 c 5.0825,12.5003 10.9892,21.7037 17.72012,27.6104 6.73088,5.9067 14.69798,8.8601 23.90158,8.8601 7.555,0 13.6677,-2.1292 18.3382,-6.3875 4.6704,-4.3957 7.0056,-10.0276 7.0056,-16.8959"
           style="line-height:100%;fill:#ffffff;font-family:FreeSerif;-inkscape-font-specification:FreeSerif"
           id="path4927"
           inkscape:connector-curvature="0" />
        <path
           d="m 1097.3222,1701.9388 c 0.2747,8.6541 1.4423,16.1404 3.5028,22.4592 2.0605,6.1815 4.7391,10.8519 8.0359,14.0113 3.2967,3.022 6.5935,5.2199 9.8903,6.5935 3.4341,1.2363 7.0055,1.8544 10.7145,1.8544 6.5934,0 12.2941,-1.6484 17.1019,-4.9451 4.9451,-3.2968 9.8902,-8.8601 14.8355,-16.6899 l 3.2967,1.4423 c -4.2584,11.1266 -10.1651,19.6433 -17.7201,25.55 -7.5551,5.9067 -16.2091,8.86 -25.962,8.86 -11.8134,0 -21.223,-4.1209 -28.2286,-12.3629 -6.8682,-8.3792 -10.3024,-19.6431 -10.3023,-33.7918 -10e-5,-15.2475 3.9835,-27.473 11.9507,-36.6765 8.1045,-9.3407 18.4756,-14.0112 31.1132,-14.0113 10.4397,10e-5 18.5443,3.1595 24.3137,9.4782 5.7692,6.1816 9.4094,15.5911 10.9205,28.2286 l -63.4627,0 m 0.4121,-6.5935 42.0337,0 c -1.3737,-8.9287 -3.5028,-15.1101 -6.3874,-18.5443 -2.8848,-3.4341 -7.4865,-5.1511 -13.8052,-5.1512 -12.3629,10e-5 -19.6433,7.8985 -21.8411,23.6955"
           style="line-height:100%;fill:#ffffff;font-family:FreeSerif;-inkscape-font-specification:FreeSerif"
           id="path4929"
           inkscape:connector-curvature="0" />
        <path
           d="m 1171.8278,1739.0274 c -10e-5,-2.4726 0.2747,-4.7391 0.8241,-6.7996 0.5495,-2.1978 1.5111,-4.1896 2.8847,-5.9754 1.3737,-1.923 2.6786,-3.6401 3.9149,-5.1512 1.2363,-1.5109 3.0907,-3.022 5.5633,-4.533 2.4726,-1.6483 4.533,-2.9533 6.1814,-3.9149 1.6484,-1.0989 4.121,-2.3352 7.4178,-3.7089 3.4341,-1.5109 6.044,-2.6099 7.8298,-3.2967 1.7857,-0.8242 4.6017,-1.9918 8.4479,-3.5029 3.8462,-1.5109 6.6622,-2.6098 8.448,-3.2967 l 0,-12.5689 c -10e-5,-11.4013 -5.2199,-17.1019 -15.6596,-17.102 -4.121,10e-5 -7.6238,1.0303 -10.5085,3.0907 -2.8847,1.9232 -4.327,4.2584 -4.327,7.0056 0,1.099 0.1374,2.6101 0.4121,4.5331 0.4121,1.9232 0.6181,3.1595 0.6182,3.7088 -10e-5,2.3353 -0.9616,4.3958 -2.8847,6.1815 -1.7858,1.6484 -3.9149,2.4726 -6.3875,2.4726 -2.3352,0 -4.3957,-0.8929 -6.1814,-2.6787 -1.7858,-1.7856 -2.6786,-3.8461 -2.6786,-6.1814 0,-6.4561 3.2967,-11.882 9.8903,-16.2778 6.7308,-4.5329 14.9727,-6.7995 24.7257,-6.7996 11.2639,10e-5 19.025,2.7474 23.2834,8.242 4.2582,5.3573 6.3874,13.5992 6.3875,24.7257 l 0,40.1793 c -10e-5,4.5331 0.412,7.6925 1.2363,9.4782 0.9614,1.6484 2.6098,2.4726 4.9451,2.4726 2.8846,0 5.9066,-1.305 9.0661,-3.9149 l 0,5.3572 c -3.5716,3.9836 -6.731,6.7309 -9.4782,8.2419 -2.61,1.3737 -5.632,2.0605 -9.0661,2.0605 -4.2584,0 -7.4178,-1.1676 -9.4782,-3.5028 -1.9232,-2.3352 -3.1594,-6.1814 -3.7088,-11.5387 -11.8135,10.0277 -21.8411,15.0415 -30.083,15.0415 -6.3188,0 -11.5387,-2.0605 -15.6597,-6.1814 -3.9836,-4.121 -5.9754,-9.4095 -5.9753,-15.8657 m 51.5119,-5.3572 0,-29.877 c -12.3629,4.5331 -21.0169,8.9288 -25.962,13.1871 -4.9452,4.2583 -7.4178,9.4095 -7.4177,15.4536 -10e-5,5.632 1.3736,9.8216 4.1209,12.5689 2.7473,2.7473 5.7006,4.121 8.8601,4.1209 4.6703,10e-5 9.6842,-1.5796 15.0415,-4.7391 2.1978,-1.2362 3.6401,-2.5412 4.327,-3.9149 0.6867,-1.3736 1.0301,-3.6401 1.0302,-6.7995"
           style="line-height:100%;fill:#ffffff;font-family:FreeSerif;-inkscape-font-specification:FreeSerif"
           id="path4931"
           inkscape:connector-curvature="0" />
        <path
           d="m 1307.7743,1666.2925 0,6.5936 -20.8109,0 0,58.9296 c 0,6.4562 0.8242,11.1953 2.4726,14.2173 1.6484,2.8847 4.3957,4.327 8.2419,4.327 4.2583,0 8.3792,-2.4038 12.3629,-7.2116 l 2.6786,2.2665 c -6.5936,10.4397 -14.8355,15.6596 -24.7257,15.6596 -12.2255,0 -18.3383,-8.7227 -18.3383,-26.1681 l 0,-62.0203 -10.9205,0 c -0.5495,-0.4121 -0.8242,-0.8928 -0.8242,-1.4424 0,-0.6867 0.206,-1.2362 0.6181,-1.6484 0.4121,-0.412 1.1676,-0.9614 2.2666,-1.6483 1.2362,-0.8241 2.6786,-1.8544 4.327,-3.0908 1.6483,-1.3735 3.9149,-3.7774 6.7995,-7.2116 2.8847,-3.4341 6.0441,-7.555 9.4782,-12.3629 2.1979,-3.1593 3.5715,-5.0824 4.121,-5.7693 0.9615,1e-4 1.4423,0.893 1.4423,2.6786 l 0,23.9015 20.8109,0"
           style="line-height:100%;fill:#ffffff;font-family:FreeSerif;-inkscape-font-specification:FreeSerif"
           id="path4933"
           inkscape:connector-curvature="0" />
        <path
           d="m 1364.9203,1666.2925 0,6.5936 -20.8108,0 0,58.9296 c 0,6.4562 0.8242,11.1953 2.4726,14.2173 1.6483,2.8847 4.3956,4.327 8.2419,4.327 4.2583,0 8.3792,-2.4038 12.3628,-7.2116 l 2.6787,2.2665 c -6.5936,10.4397 -14.8355,15.6596 -24.7258,15.6596 -12.2255,0 -18.3382,-8.7227 -18.3382,-26.1681 l 0,-62.0203 -10.9206,0 c -0.5494,-0.4121 -0.8242,-0.8928 -0.8241,-1.4424 -10e-5,-0.6867 0.206,-1.2362 0.6181,-1.6484 0.4121,-0.412 1.1676,-0.9614 2.2665,-1.6483 1.2363,-0.8241 2.6786,-1.8544 4.327,-3.0908 1.6484,-1.3735 3.9149,-3.7774 6.7996,-7.2116 2.8847,-3.4341 6.044,-7.555 9.4782,-12.3629 2.1978,-3.1593 3.5715,-5.0824 4.121,-5.7693 0.9615,1e-4 1.4423,0.893 1.4423,2.6786 l 0,23.9015 20.8108,0"
           style="line-height:100%;fill:#ffffff;font-family:FreeSerif;-inkscape-font-specification:FreeSerif"
           id="path4935"
           inkscape:connector-curvature="0" />
        <path
           d="m 1371.9679,1630.6463 0,-3.2968 c 13.5991,-3.2966 24.5196,-6.3187 32.7616,-9.0661 l 0.8242,0.4121 0,123.0105 c -10e-5,5.632 0.8928,9.3409 2.6786,11.1266 1.9231,1.6484 6.1814,2.6786 12.775,3.0907 l 0,3.0907 -48.6273,0 0,-3.0907 c 6.4561,-0.5494 10.7144,-1.7857 12.7749,-3.7088 2.0605,-1.9231 3.0907,-5.632 3.0907,-11.1266 l 0,-98.2848 c 0,-4.8077 -0.6181,-8.1044 -1.8544,-9.8903 -1.2363,-1.7856 -3.5028,-2.6785 -6.7996,-2.6786 -2.7473,10e-5 -5.2885,0.1375 -7.6237,0.4121"
           style="line-height:100%;fill:#ffffff;font-family:FreeSerif;-inkscape-font-specification:FreeSerif"
           id="path4937"
           inkscape:connector-curvature="0" />
        <path
           d="m 1441.0035,1701.9388 c 0.2747,8.6541 1.4423,16.1404 3.5028,22.4592 2.0605,6.1815 4.7391,10.8519 8.0359,14.0113 3.2967,3.022 6.5935,5.2199 9.8903,6.5935 3.4341,1.2363 7.0056,1.8544 10.7145,1.8544 6.5935,0 12.2941,-1.6484 17.102,-4.9451 4.945,-3.2968 9.8902,-8.8601 14.8354,-16.6899 l 3.2968,1.4423 c -4.2584,11.1266 -10.1651,19.6433 -17.7202,25.55 -7.5551,5.9067 -16.2091,8.86 -25.962,8.86 -11.8134,0 -21.2229,-4.1209 -28.2285,-12.3629 -6.8683,-8.3792 -10.3024,-19.6431 -10.3024,-33.7918 0,-15.2475 3.9836,-27.473 11.9508,-36.6765 8.1045,-9.3407 18.4755,-14.0112 31.1132,-14.0113 10.4397,10e-5 18.5442,3.1595 24.3136,9.4782 5.7693,6.1816 9.4095,15.5911 10.9206,28.2286 l -63.4628,0 m 0.4121,-6.5935 42.0338,0 c -1.3737,-8.9287 -3.5029,-15.1101 -6.3875,-18.5443 -2.8847,-3.4341 -7.4865,-5.1511 -13.8052,-5.1512 -12.3629,10e-5 -19.6433,7.8985 -21.8411,23.6955"
           style="line-height:100%;fill:#ffffff;font-family:FreeSerif;-inkscape-font-specification:FreeSerif"
           id="path4939"
           inkscape:connector-curvature="0" />
        <path
           d="m 1637.4411,1750.9782 c 3.5714,0 6.8682,-0.2061 9.8903,-0.6182 3.1593,-0.4121 5.9066,-0.8242 8.2419,-1.2363 2.3351,-0.5494 4.6016,-1.3736 6.7996,-2.4725 2.1977,-1.0989 3.9834,-1.9918 5.3572,-2.6787 1.3735,-0.6868 2.7472,-1.7857 4.121,-3.2967 1.5109,-1.6484 2.6098,-2.816 3.2967,-3.5028 0.8241,-0.6868 1.717,-1.9231 2.6786,-3.7089 0.9615,-1.9231 1.5796,-3.1594 1.8545,-3.7089 0.2746,-0.5494 0.824,-1.717 1.6484,-3.5028 0.824,-1.923 1.2361,-2.9533 1.2362,-3.0907 l 5.1512,0 -9.8903,35.8523 -110.8537,0 0,-3.9149 c 7.5551,-0.5494 12.4316,-1.9231 14.6294,-4.1209 2.1978,-2.3352 3.2968,-7.143 3.2968,-14.4234 l 0,-91.4852 c 0,-7.2802 -1.099,-12.0193 -3.2968,-14.2173 -2.1978,-2.3351 -7.0743,-3.7774 -14.6294,-4.327 l 0,-3.9149 58.1055,0 0,3.9149 c -8.1046,0.5496 -13.3245,1.9919 -15.6596,4.327 -2.3353,2.198 -3.5029,6.9371 -3.5028,14.2173 l 0,97.4606 c -10e-5,3.5715 1.0302,5.9067 3.0907,7.0056 2.1978,0.9616 7.0742,1.4424 14.6294,1.4424 l 13.8052,0"
           style="line-height:100%;fill:#ffffff;font-family:FreeSerif;-inkscape-font-specification:FreeSerif"
           id="path4941"
           inkscape:connector-curvature="0" />
        <path
           d="m 1702.6199,1678.0373 c -3.0221,0 -5.9068,0.2061 -8.654,0.6181 l 0,-3.0907 c 9.6155,-2.7472 20.2613,-6.5248 31.9374,-11.3327 l 0.8242,0.6182 0,73.147 c -10e-5,7.4177 0.8241,12.1568 2.4725,14.2173 1.7857,1.9231 6.044,3.1594 12.775,3.7088 l 0,3.0907 -48.8333,0 0,-3.0907 c 7.1429,-0.4121 11.6073,-1.6484 13.3931,-3.7088 1.9231,-2.0605 2.8846,-6.7996 2.8846,-14.2173 l 0,-47.8031 c 0,-4.533 -0.5494,-7.6924 -1.6483,-9.4782 -0.9616,-1.7857 -2.6787,-2.6786 -5.1512,-2.6786 m 13.5991,-59.7539 c 3.022,10e-5 5.5633,1.0304 7.6238,3.0907 2.0604,2.0606 3.0907,4.5332 3.0907,7.4177 0,3.0222 -1.0303,5.5634 -3.0907,7.6238 -2.0605,1.9232 -4.6018,2.8848 -7.6238,2.8847 -2.8847,10e-5 -5.3573,-1.0302 -7.4177,-3.0908 -1.9231,-2.0603 -2.8847,-4.5329 -2.8847,-7.4177 0,-2.8845 1.0302,-5.3571 3.0907,-7.4177 2.0605,-2.0603 4.4644,-3.0906 7.2117,-3.0907"
           style="line-height:100%;fill:#ffffff;font-family:FreeSerif;-inkscape-font-specification:FreeSerif"
           id="path4943"
           inkscape:connector-curvature="0" />
        <path
           d="m 1747.0392,1677.007 0,-3.5028 c 10.165,-3.0219 19.6432,-6.1127 28.4346,-9.2722 l 1.4423,0.4121 0,16.2778 c 7.0056,-6.5934 12.5002,-10.9891 16.4838,-13.187 4.1209,-2.3352 8.5853,-3.5028 13.3931,-3.5029 7.555,10e-5 13.4617,2.7474 17.7201,8.242 4.3956,5.3573 6.5935,12.9124 6.5936,22.6652 l 0,47.185 c -10e-5,5.0825 0.8241,8.5166 2.4725,10.3024 1.6483,1.6483 5.0138,2.7473 10.0964,3.2967 l 0,3.0907 -42.858,0 0,-3.0907 c 5.2199,-0.4121 8.654,-1.7857 10.3024,-4.1209 1.7857,-2.3352 2.6786,-6.7309 2.6787,-13.1871 l 0,-43.064 c -10e-5,-13.3243 -5.0139,-19.9865 -15.0415,-19.9866 -3.4342,1e-4 -6.5936,0.8243 -9.4782,2.4726 -2.8847,1.511 -6.7997,4.6018 -11.7448,9.2721 l 0,57.8994 c 0,3.7089 0.9616,6.3188 2.8847,7.8299 1.9231,1.511 5.4946,2.4725 10.7145,2.8846 l 0,3.0907 -43.6821,0 0,-3.0907 c 5.2198,-0.4121 8.654,-1.5797 10.3023,-3.5028 1.6484,-2.0605 2.4726,-6.044 2.4726,-11.9508 l 0,-51.0998 c 0,-5.0825 -0.5495,-8.5166 -1.6484,-10.3024 -1.0989,-1.923 -3.0907,-2.8846 -5.9753,-2.8847 -2.61,10e-5 -4.4644,0.2748 -5.5633,0.8242"
           style="line-height:100%;fill:#ffffff;font-family:FreeSerif;-inkscape-font-specification:FreeSerif"
           id="path4945"
           inkscape:connector-curvature="0" />
        <path
           d="m 1942.4788,1748.7116 0,2.8847 c -10.7146,2.8847 -20.1241,5.9754 -28.2286,9.2722 l -0.8241,-0.4121 0,-17.102 c -0.4122,0.4121 -1.6485,1.6484 -3.7089,3.7089 -1.9232,2.0605 -3.2968,3.5028 -4.121,4.327 -0.8242,0.6868 -2.2665,1.8544 -4.327,3.5028 -1.9231,1.511 -3.6402,2.6099 -5.1512,3.2967 -1.511,0.6869 -3.4341,1.305 -5.7693,1.8545 -2.3352,0.6868 -4.6705,1.0302 -7.0056,1.0302 -7.5551,0 -13.5992,-2.4039 -18.1322,-7.2117 -4.5331,-4.9451 -6.7996,-11.4699 -6.7996,-19.5745 l 0,-51.924 c 0,-4.8077 -0.8929,-8.1045 -2.6786,-9.8903 -1.7858,-1.9231 -5.1512,-3.022 -10.0964,-3.2968 l 0,-2.8847 30.083,0 0,67.1716 c 0,4.2584 1.4423,7.9672 4.327,11.1266 2.8846,3.022 6.3188,4.5331 10.3024,4.533 1.511,10e-5 3.2967,-0.206 5.3572,-0.6181 2.0605,-0.4121 4.3957,-1.1676 7.0057,-2.2665 2.7472,-1.2363 5.0137,-3.0907 6.7995,-5.5633 1.9231,-2.6099 2.8846,-5.7693 2.8847,-9.4782 l 0,-48.4213 c -10e-5,-5.0824 -0.9616,-8.4478 -2.8847,-10.0963 -1.7858,-1.6483 -5.9067,-2.6098 -12.3628,-2.8847 l 0,-3.5028 32.5555,0 0,70.6744 c -10e-5,4.8078 0.7555,7.9672 2.2666,9.4782 1.5109,1.5111 4.6703,2.2666 9.4782,2.2665 l 1.0302,0"
           style="line-height:100%;fill:#ffffff;font-family:FreeSerif;-inkscape-font-specification:FreeSerif"
           id="path4947"
           inkscape:connector-curvature="0" />
        <path
           d="m 1994.2451,1696.3755 c 1.511,-2.3351 3.2967,-4.8764 5.3572,-7.6238 2.0605,-2.8846 3.5715,-5.0137 4.5331,-6.3874 1.0988,-1.511 1.9917,-3.022 2.6786,-4.5331 0.8241,-1.5109 1.2362,-2.8159 1.2363,-3.9149 -1e-4,-2.6099 -2.7474,-4.1209 -8.2419,-4.5331 l 0,-3.0907 32.5555,0 0,3.0907 c -7.0057,0.2749 -12.569,3.2969 -16.6898,9.0661 l -17.102,24.7258 26.3741,40.3854 c 3.022,4.533 5.7693,7.7611 8.2419,9.6842 2.6099,1.7858 5.4945,2.6786 8.654,2.6786 l 0,3.0907 -41.4156,0 0,-3.0907 c 3.4341,-0.2747 5.6319,-0.6868 6.5936,-1.2363 1.0988,-0.6868 1.6483,-1.9231 1.6483,-3.7088 0,-1.2363 -0.4121,-2.4726 -1.2362,-3.7089 l -18.7504,-28.8467 -16.2778,25.3439 c -2.7473,4.2583 -4.121,7.0743 -4.1209,8.448 -1e-4,2.4725 2.7472,3.7088 8.2419,3.7088 l 0,3.0907 -29.877,0 0,-3.0907 c 3.4342,-0.2747 6.0441,-1.0302 7.8299,-2.2665 1.9231,-1.2363 4.327,-3.9836 7.2116,-8.2419 l 23.4895,-33.9979 -19.3685,-29.6709 c -2.4726,-3.8461 -4.7391,-6.6621 -6.7996,-8.4479 -1.9231,-1.7857 -3.5715,-2.8846 -4.9451,-3.2968 -1.2363,-0.412 -3.2281,-0.6181 -5.9754,-0.6182 l 0,-3.0907 42.6519,0 0,3.0907 c -5.9068,0.1375 -8.8601,1.6485 -8.8601,4.5331 0,2.7474 3.1594,8.8601 9.4782,18.3382 l 2.8847,4.121"
           style="line-height:100%;fill:#ffffff;font-family:FreeSerif;-inkscape-font-specification:FreeSerif"
           id="path4949"
           inkscape:connector-curvature="0" />
        <path
           d="m 2138.1534,1711.0049 c 0,13.7366 2.5412,24.1763 7.6238,31.3193 5.2198,7.0056 14.4919,10.5084 27.8164,10.5084 7.6924,0 14.6293,-1.4423 20.8109,-4.327 6.1813,-3.022 10.6457,-7.0056 13.3931,-11.9508 3.1592,-5.9066 4.7389,-15.2475 4.7391,-28.0225 l 0,-55.6329 c -2e-4,-10.3023 -1.2364,-17.1018 -3.7089,-20.3987 -2.4727,-3.434 -7.6926,-5.4258 -15.6596,-5.9754 l 0,-3.9149 47.8031,0 0,3.9149 c -8.5168,1.0991 -13.8741,3.1595 -16.0718,6.1814 -2.1979,3.0222 -3.2969,9.7531 -3.2967,20.1927 l 0,53.7785 c -2e-4,8.1046 -0.7557,15.1789 -2.2666,21.2229 -1.3737,6.0441 -3.915,11.8134 -7.6237,17.308 -3.5716,5.3573 -8.9976,9.4782 -16.2778,12.3629 -7.1431,2.8847 -16.0031,4.327 -26.5802,4.327 -17.5828,0 -30.6325,-4.2583 -39.1491,-12.775 -8.3793,-8.6539 -12.5689,-21.9097 -12.5689,-39.7672 l 0,-64.2869 c 0,-7.555 -1.0989,-12.3627 -3.2967,-14.4233 -2.0605,-2.0604 -7.143,-3.434 -15.2476,-4.121 l 0,-3.9149 58.3116,0 0,3.9149 c -8.242,0.687 -13.4619,2.1293 -15.6597,4.327 -2.0605,2.0606 -3.0907,6.7997 -3.0907,14.2173 l 0,65.9353"
           style="line-height:100%;fill:#ffffff;font-family:FreeSerif;-inkscape-font-specification:FreeSerif"
           id="path4951"
           inkscape:connector-curvature="0" />
        <path
           d="m 2299.2216,1668.353 c 0.1373,10e-5 1.2362,-0.6867 3.2968,-2.0605 l 2.2665,0 0.8242,28.0225 -3.0907,0 c -2.3353,-9.2034 -5.22,-15.7282 -8.6541,-19.5745 -3.4341,-3.8462 -8.1045,-5.7693 -14.0112,-5.7694 -4.6705,10e-5 -8.5167,1.3051 -11.5387,3.915 -2.8847,2.61 -4.327,5.9754 -4.327,10.0963 0,5.9068 2.9533,10.5772 8.8601,14.0112 l 22.2531,13.1871 c 6.1814,3.7089 10.5771,7.4865 13.1871,11.3326 2.7472,3.7089 4.1209,8.1046 4.1209,13.1871 0,7.143 -2.8847,13.3244 -8.654,18.5443 -5.632,5.2199 -12.4316,7.8298 -20.3987,7.8298 -3.4342,0 -8.0359,-0.6181 -13.8052,-1.8544 -5.7694,-1.2363 -9.3408,-1.8544 -10.7145,-1.8544 -2.0605,0 -3.6402,0.8241 -4.7391,2.4725 l -2.6786,0 0,-32.1434 3.2968,0 c 2.1978,9.6156 4.8077,16.4151 7.8298,20.3987 4.3956,5.632 10.5084,8.448 18.3382,8.448 5.2199,0 9.3408,-1.305 12.3629,-3.9149 3.1594,-2.7473 4.739,-6.3875 4.7391,-10.9206 -10e-5,-6.1814 -3.5715,-11.3326 -10.7145,-15.4536 l -11.9508,-6.7995 c -8.7914,-4.9451 -15.0415,-9.6842 -18.7503,-14.2173 -3.5715,-4.533 -5.3573,-9.6842 -5.3572,-15.4536 -1e-4,-7.4177 2.6099,-13.4617 7.8298,-18.1322 5.3572,-4.8077 12.0881,-7.2116 20.1927,-7.2117 4.533,10e-5 8.7913,0.6869 12.7749,2.0605 3.9836,1.2364 6.3874,1.8545 7.2117,1.8544"
           style="line-height:100%;fill:#ffffff;font-family:FreeSerif;-inkscape-font-specification:FreeSerif"
           id="path4953"
           inkscape:connector-curvature="0" />
        <path
           d="m 2339.6456,1701.9388 c 0.2747,8.6541 1.4423,16.1404 3.5028,22.4592 2.0605,6.1815 4.7391,10.8519 8.0359,14.0113 3.2967,3.022 6.5935,5.2199 9.8903,6.5935 3.4341,1.2363 7.0056,1.8544 10.7145,1.8544 6.5934,0 12.2941,-1.6484 17.1019,-4.9451 4.9451,-3.2968 9.8903,-8.8601 14.8355,-16.6899 l 3.2968,1.4423 c -4.2585,11.1266 -10.1652,19.6433 -17.7202,25.55 -7.5551,5.9067 -16.2091,8.86 -25.962,8.86 -11.8134,0 -21.2229,-4.1209 -28.2285,-12.3629 -6.8683,-8.3792 -10.3024,-19.6431 -10.3024,-33.7918 0,-15.2475 3.9836,-27.473 11.9507,-36.6765 8.1046,-9.3407 18.4756,-14.0112 31.1133,-14.0113 10.4397,10e-5 18.5442,3.1595 24.3136,9.4782 5.7693,6.1816 9.4094,15.5911 10.9205,28.2286 l -63.4627,0 m 0.4121,-6.5935 42.0338,0 c -1.3737,-8.9287 -3.5029,-15.1101 -6.3875,-18.5443 -2.8847,-3.4341 -7.4865,-5.1511 -13.8052,-5.1512 -12.3629,10e-5 -19.6433,7.8985 -21.8411,23.6955"
           style="line-height:100%;fill:#ffffff;font-family:FreeSerif;-inkscape-font-specification:FreeSerif"
           id="path4955"
           inkscape:connector-curvature="0" />
        <path
           d="m 2471.0204,1684.4247 c -2.0605,10e-5 -4.6018,-1.1675 -7.6237,-3.5028 -3.0221,-2.4725 -5.0139,-3.7088 -5.9754,-3.7088 -2.7474,0 -5.8381,1.9918 -9.2722,5.9753 -3.4341,3.9837 -5.1512,7.6239 -5.1512,10.9206 l 0,46.3607 c 0,5.9068 1.1676,9.8903 3.5028,11.9508 2.3352,2.0605 7.0056,3.2281 14.0113,3.5028 l 0,3.0907 -49.4515,0 0,-3.0907 c 6.5935,-1.2363 10.6458,-2.6099 12.1568,-4.1209 1.6484,-1.511 2.4726,-4.8765 2.4726,-10.0964 l 0,-51.5119 c 0,-4.533 -0.5495,-7.6924 -1.6484,-9.4782 -0.9615,-1.9231 -2.7473,-2.8846 -5.3572,-2.8847 -2.1979,10e-5 -4.6017,0.2748 -7.2117,0.8242 l 0,-3.2968 c 10.9892,-3.5714 21.1542,-7.2802 30.4951,-11.1266 l 1.0302,0.4121 0,18.9564 c 5.0825,-7.2802 9.4095,-12.2941 12.981,-15.0414 3.5715,-2.8846 7.4864,-4.327 11.7448,-4.3271 3.5714,10e-5 6.3187,0.9617 8.2419,2.8847 2.0604,1.9232 3.0906,4.6018 3.0907,8.0359 -1e-4,2.8847 -0.7556,5.1513 -2.2665,6.7996 -1.3737,1.6484 -3.2969,2.4726 -5.7694,2.4725"
           style="line-height:100%;fill:#ffffff;font-family:FreeSerif;-inkscape-font-specification:FreeSerif"
           id="path4957"
           inkscape:connector-curvature="0" />
        <path
           d="m 2535.4521,1668.353 c 0.1373,10e-5 1.2362,-0.6867 3.2967,-2.0605 l 2.2665,0 0.8242,28.0225 -3.0907,0 c -2.3352,-9.2034 -5.2199,-15.7282 -8.654,-19.5745 -3.4342,-3.8462 -8.1046,-5.7693 -14.0112,-5.7694 -4.6705,10e-5 -8.5167,1.3051 -11.5387,3.915 -2.8847,2.61 -4.327,5.9754 -4.327,10.0963 0,5.9068 2.9533,10.5772 8.86,14.0112 l 22.2532,13.1871 c 6.1814,3.7089 10.5771,7.4865 13.1871,11.3326 2.7472,3.7089 4.1208,8.1046 4.1209,13.1871 -10e-5,7.143 -2.8847,13.3244 -8.654,18.5443 -5.632,5.2199 -12.4316,7.8298 -20.3987,7.8298 -3.4342,0 -8.0359,-0.6181 -13.8052,-1.8544 -5.7694,-1.2363 -9.3409,-1.8544 -10.7145,-1.8544 -2.0605,0 -3.6402,0.8241 -4.7391,2.4725 l -2.6786,0 0,-32.1434 3.2967,0 c 2.1979,9.6156 4.8078,16.4151 7.8298,20.3987 4.3957,5.632 10.5085,8.448 18.3383,8.448 5.2198,0 9.3408,-1.305 12.3629,-3.9149 3.1593,-2.7473 4.739,-6.3875 4.7391,-10.9206 -10e-5,-6.1814 -3.5716,-11.3326 -10.7145,-15.4536 l -11.9508,-6.7995 c -8.7914,-4.9451 -15.0415,-9.6842 -18.7503,-14.2173 -3.5715,-4.533 -5.3573,-9.6842 -5.3573,-15.4536 0,-7.4177 2.6099,-13.4617 7.8298,-18.1322 5.3573,-4.8077 12.0881,-7.2116 20.1927,-7.2117 4.533,10e-5 8.7914,0.6869 12.775,2.0605 3.9835,1.2364 6.3874,1.8545 7.2117,1.8544"
           style="line-height:100%;fill:#ffffff;font-family:FreeSerif;-inkscape-font-specification:FreeSerif"
           id="path4959"
           inkscape:connector-curvature="0" />
        <path
           d="m 2688.7903,1627.9676 c -7.8299,2e-4 -14.7668,1.4425 -20.8108,4.327 -6.0442,2.7475 -10.9206,6.319 -14.6294,10.7145 -3.7089,4.3958 -6.731,9.547 -9.0661,15.4536 -2.3353,5.9068 -3.9837,11.6075 -4.9452,17.102 -0.8242,5.3573 -1.2363,10.7832 -1.2363,16.2778 0,19.0938 4.8078,34.2039 14.4234,45.3305 9.7529,10.9892 23.0086,16.4838 39.7672,16.4838 7.4176,0 13.8051,-1.1676 19.1625,-3.5028 5.4945,-2.4726 8.2418,-5.3572 8.2419,-8.654 l 0,-33.3798 c -1e-4,-7.6924 -1.0991,-12.5001 -3.2968,-14.4233 -2.0606,-2.0604 -7.0057,-3.3654 -14.8354,-3.9149 l 0,-3.7089 52.5422,0 0,3.7089 c -6.0443,0.5495 -9.9592,1.8545 -11.7448,3.9149 -1.7859,1.9232 -2.6787,5.9067 -2.6786,11.9508 l 0,41.8277 c -4.1211,3.5715 -11.6075,6.8682 -22.4592,9.8903 -10.7146,3.022 -20.4675,4.533 -29.2588,4.533 -6.1815,0 -12.3629,-0.6181 -18.5443,-1.8544 -6.1815,-1.2363 -12.6376,-3.5028 -19.3685,-6.7996 -6.7309,-3.2968 -12.6376,-7.4177 -17.7201,-12.3629 -5.0825,-5.0825 -9.3409,-11.8133 -12.775,-20.1927 -3.2967,-8.3792 -4.9451,-17.9261 -4.9451,-28.6406 0,-21.0168 6.5935,-38.3248 19.7806,-51.924 13.3244,-13.5991 30.2889,-20.3986 50.8938,-20.3988 7.9671,2e-4 15.7969,1.1678 23.4894,3.5028 7.8297,2.198 12.3628,3.2969 13.5992,3.2968 2.1977,10e-5 4.1208,-0.618 5.7693,-1.8544 1.6483,-1.3735 2.8159,-3.0219 3.5028,-4.9452 l 4.5331,0 1.6484,43.4761 -4.7391,0 c -4.3958,-10.7144 -9.8904,-19.231 -16.4839,-25.5499 -6.5936,-6.4561 -15.8657,-9.6841 -27.8164,-9.6843"
           style="line-height:100%;fill:#ffffff;font-family:FreeSerif;-inkscape-font-specification:FreeSerif"
           id="path4961"
           inkscape:connector-curvature="0" />
        <path
           d="m 2818.3237,1684.4247 c -2.0606,10e-5 -4.6018,-1.1675 -7.6238,-3.5028 -3.0221,-2.4725 -5.0139,-3.7088 -5.9754,-3.7088 -2.7473,0 -5.8381,1.9918 -9.2721,5.9753 -3.4342,3.9837 -5.1513,7.6239 -5.1512,10.9206 l 0,46.3607 c -10e-5,5.9068 1.1675,9.8903 3.5028,11.9508 2.3351,2.0605 7.0055,3.2281 14.0112,3.5028 l 0,3.0907 -49.4515,0 0,-3.0907 c 6.5936,-1.2363 10.6458,-2.6099 12.1569,-4.1209 1.6483,-1.511 2.4725,-4.8765 2.4725,-10.0964 l 0,-51.5119 c 0,-4.533 -0.5494,-7.6924 -1.6483,-9.4782 -0.9616,-1.9231 -2.7474,-2.8846 -5.3573,-2.8847 -2.1978,10e-5 -4.6017,0.2748 -7.2117,0.8242 l 0,-3.2968 c 10.9892,-3.5714 21.1543,-7.2802 30.4951,-11.1266 l 1.0303,0.4121 0,18.9564 c 5.0824,-7.2802 9.4094,-12.2941 12.981,-15.0414 3.5714,-2.8846 7.4863,-4.327 11.7447,-4.3271 3.5714,10e-5 6.3187,0.9617 8.2419,2.8847 2.0604,1.9232 3.0907,4.6018 3.0907,8.0359 0,2.8847 -0.7556,5.1513 -2.2665,6.7996 -1.3737,1.6484 -3.2968,2.4726 -5.7693,2.4725"
           style="line-height:100%;fill:#ffffff;font-family:FreeSerif;-inkscape-font-specification:FreeSerif"
           id="path4963"
           inkscape:connector-curvature="0" />
        <path
           d="m 2876.2103,1664.232 c 13.187,10e-5 24.0388,4.3958 32.5555,13.1871 8.5166,8.7915 12.7749,19.918 12.775,33.3798 -1e-4,14.286 -4.3958,26.2367 -13.1871,35.8523 -8.7914,9.6155 -19.6433,14.4233 -32.5555,14.4233 -12.9124,0 -23.6956,-4.6017 -32.3495,-13.8052 -8.5167,-9.3408 -12.775,-20.9481 -12.775,-34.8221 0,-14.1485 4.1896,-25.6872 12.5689,-34.616 8.5166,-9.066 19.5058,-13.5991 32.9677,-13.5992 m -26.9923,38.1189 c 0,14.6981 2.6786,27.1983 8.0359,37.5007 5.3572,10.3024 12.3628,15.4536 21.0168,15.4536 7.6924,0 13.7365,-3.2968 18.1323,-9.8903 4.3956,-6.5935 6.5934,-15.7283 6.5935,-27.4044 -1e-4,-14.1485 -2.7474,-25.6872 -8.2419,-34.616 -5.4947,-8.9287 -12.569,-13.393 -21.223,-13.3931 -7.2804,10e-5 -13.187,2.9534 -17.7201,8.86 -4.3957,5.9068 -6.5935,13.7366 -6.5935,23.4895"
           style="line-height:100%;fill:#ffffff;font-family:FreeSerif;-inkscape-font-specification:FreeSerif"
           id="path4965"
           inkscape:connector-curvature="0" />
        <path
           d="m 3023.425,1748.7116 0,2.8847 c -10.7146,2.8847 -20.1241,5.9754 -28.2286,9.2722 l -0.8242,-0.4121 0,-17.102 c -0.4121,0.4121 -1.6484,1.6484 -3.7088,3.7089 -1.9232,2.0605 -3.2969,3.5028 -4.121,4.327 -0.8242,0.6868 -2.2666,1.8544 -4.327,3.5028 -1.9232,1.511 -3.6402,2.6099 -5.1512,3.2967 -1.5111,0.6869 -3.4342,1.305 -5.7693,1.8545 -2.3353,0.6868 -4.6705,1.0302 -7.0057,1.0302 -7.5551,0 -13.5991,-2.4039 -18.1322,-7.2117 -4.533,-4.9451 -6.7996,-11.4699 -6.7995,-19.5745 l 0,-51.924 c -1e-4,-4.8077 -0.8929,-8.1045 -2.6787,-9.8903 -1.7857,-1.9231 -5.1512,-3.022 -10.0963,-3.2968 l 0,-2.8847 30.083,0 0,67.1716 c -1e-4,4.2584 1.4423,7.9672 4.327,11.1266 2.8846,3.022 6.3187,4.5331 10.3024,4.533 1.5109,10e-5 3.2967,-0.206 5.3572,-0.6181 2.0604,-0.4121 4.3956,-1.1676 7.0056,-2.2665 2.7473,-1.2363 5.0138,-3.0907 6.7996,-5.5633 1.9231,-2.6099 2.8846,-5.7693 2.8847,-9.4782 l 0,-48.4213 c -1e-4,-5.0824 -0.9616,-8.4478 -2.8847,-10.0963 -1.7858,-1.6483 -5.9067,-2.6098 -12.3629,-2.8847 l 0,-3.5028 32.5556,0 0,70.6744 c -1e-4,4.8078 0.7554,7.9672 2.2665,9.4782 1.511,1.5111 4.6704,2.2666 9.4782,2.2665 l 1.0303,0"
           style="line-height:100%;fill:#ffffff;font-family:FreeSerif;-inkscape-font-specification:FreeSerif"
           id="path4967"
           inkscape:connector-curvature="0" />
        <path
           d="m 3026.4062,1678.0373 0,-3.2968 c 8.654,-2.6099 18.5443,-6.1127 29.6709,-10.5085 l 1.2363,0.4121 0,15.8657 c 8.7913,-10.8517 18.6816,-16.2777 29.6709,-16.2778 10.0275,10e-5 18.2694,4.1211 24.7257,12.3629 6.4561,8.242 9.6841,18.7504 9.6842,31.5253 -1e-4,14.9729 -4.1897,27.5418 -12.5689,37.7068 -8.242,10.165 -18.4757,15.2475 -30.7011,15.2475 -4.3957,0 -8.1046,-0.6181 -11.1266,-1.8544 -2.8847,-1.2363 -6.1128,-3.5715 -9.6842,-7.0056 l 0,32.3495 c -1e-4,6.4561 1.0989,10.5771 3.2967,12.3628 2.1978,1.9231 7.143,2.9533 14.8355,3.0908 l 0,3.7088 -49.8636,0 0,-3.5028 c 6.0441,-0.5495 9.959,-1.7171 11.7447,-3.5028 1.7858,-1.7858 2.6786,-5.3573 2.6787,-10.7145 l 0,-96.4304 c -1e-4,-4.8077 -0.5495,-7.9671 -1.6484,-9.4782 -1.099,-1.5109 -3.3655,-2.2664 -6.7996,-2.2665 -2.1979,10e-5 -3.9149,0.069 -5.1512,0.2061 m 30.9072,12.1568 0,50.6877 c -1e-4,3.0221 2.3351,6.0441 7.0056,9.0661 4.8077,3.0221 9.6155,4.5331 14.4233,4.5331 7.4177,0 13.3931,-3.5028 17.9262,-10.5085 4.6703,-7.1429 7.0055,-16.4151 7.0056,-27.8164 -1e-4,-11.9507 -2.3353,-21.4976 -7.0056,-28.6407 -4.5331,-7.2802 -10.6459,-10.9204 -18.3383,-10.9205 -4.8078,10e-5 -9.5469,1.5111 -14.2173,4.5331 -4.533,3.0221 -6.7996,6.0441 -6.7995,9.0661"
           style="line-height:100%;fill:#ffffff;font-family:FreeSerif;-inkscape-font-specification:FreeSerif"
           id="path4969"
           inkscape:connector-curvature="0" />
      </g>
    </g>
    <path
       style="fill:#ffffff;fill-opacity:1;fill-rule:evenodd;stroke:none"
       d="m 205.7393,-49.371136 c -18.13804,-0.0676 -35.80901,5.41177 -52.18773,19.50546 -20.72096,17.830126 -29.27904,37.7099564 -24.58255,68.245496 4.09113,26.59968 22.13575,41.3716 53.27399,51.92797 26.15349,8.86646 28.52609,-11.04551 64.6325,6.32865 36.10641,17.37415 47.242,18.13301 74.57414,69.33176 29.42253,55.11447 38.62158,132.98706 36.64949,154.46152 -1.97209,21.47444 -18.72782,-53.47305 -44.53668,-68.55249 -25.80886,-15.07945 -41.20103,-9.17955 -58.7053,8.24141 -17.50425,17.42101 -13.52672,36.80036 -2.21975,55.16315 11.30701,18.36278 33.31201,15.28265 56.46193,46.94534 23.14993,31.66266 11.78209,39.49269 27.03844,85.97988 15.25635,46.48719 18.60983,34.8031 24.984,71.31536 6.37415,36.51226 -6.38827,43.27806 19.31654,102.01403 25.70479,58.73601 39.17262,48.12542 83.50037,132.92522 44.32776,84.79981 34.31902,102.41317 74.9992,178.99684 40.68018,76.58364 33.921,63.81386 87.04253,122.44034 53.12152,58.6272 64.77068,79.4481 125.46309,112.074 60.69252,32.6248 60.91167,7.6531 117.97733,23.3309 57.06567,15.6775 62.09556,33.6623 110.27906,39.3651 48.1835,5.7029 46.3133,-16.4647 82.4613,-16.5537 36.1481,-0.088 23.7078,17.8539 62.1294,16.1996 38.4222,-1.6551 32,-20.707 91.5529,-22.8352 59.5529,-2.1282 67.2081,16.7635 146.6687,14.334 79.4613,-2.4304 95.1745,-5.8845 171.1805,-24.0395 76.0061,-18.1541 54.3996,-38.8079 132.8308,-48.5747 1.1602,-0.1445 2.1349,-0.2623 3.2588,-0.4014 l 116.0173,0 c 15.7016,2.44 35.2256,5.7087 61.6099,9.8944 108.4022,17.1972 112.1822,44.1178 252.7208,59.2956 140.5391,15.1788 138.0998,15.5027 309.4426,1.4169 171.343,-14.0852 224.2721,-19.0058 375.9406,-57.7607 151.6687,-38.7553 124.0975,-48.6025 230.7359,-97.2441 106.6385,-48.641 104.6956,-31.2893 167.8273,-83.42945 47.2954,-39.06125 60.0447,-50.82762 112.664,-85.64932 40.8406,-27.02601 41.8201,-30.80393 46.9454,-56.46189 5.1254,-25.65796 -11.8133,-22.03322 -26.4244,-46.16603 -14.6112,-24.13373 -2.1835,-42.08759 -96.9842,-51.21958 -24.3686,-2.34738 -43.5671,-3.16576 -60.9487,-2.7865 l 0,-135.40473 -120.9055,0 0,117.00911 -20.8987,-5.59657 0,32.09195 -47.2051,-43.3088 0,-14.80617 -52.4948,0 3.4241,12.77541 -7.6274,0 -30.3916,69.9693 0,16.41194 c -3.3185,1.33835 -6.413,2.67504 -9.3513,3.99087 l 0,-14.80617 -18.3957,0 0,-122.2988 -79.7693,-14.9715 -0.6139,23.02396 -16.9079,0 -17.6636,0 -12.303,0 -4.1325,10.7918 -6.9663,0 0,-68.55248 -28.1955,-13.08236 -56.7218,0 -20.7097,15.11319 0,55.94242 c -10.1543,-1.44981 -20.5774,-2.1723 -31.2654,-2.17252 -9.2791,7e-5 -18.3832,0.45846 -27.3218,1.34605 l -13.2477,-41.89191 -14.9715,46.26053 c -9.1983,1.97273 -18.1876,4.45424 -26.9439,7.43856 l 0,-11.453 -11.3586,2.95183 0,-124.18794 -12.9406,3.28239 -9.5166,-9.35128 0,-60.45276 -64.0186,0 0,-92.54467 -0.9445,0 0,-11.38212 -5.2897,0 0,11.38212 -17.1912,0 3.4713,-16.05777 -32.2572,-32.25721 0,-14.02693 -5.2897,0 0,13.71994 -31.7848,31.61963 6.0688,22.59894 -21.8196,0 0,-16.97872 -5.4313,0 0,16.97872 -3.8964,0 0,282.80552 -34.902,0 0,-229.83851 -113.4434,0 0,205.84632 -13.2477,0 0,-81.18613 -41.7501,0 0,-314.25988 -15.2785,4.20336 4.0617,-7.32045 -81.0209,0 0,117.00914 -15.2785,0 0,9.49297 -9.8,0 0,139.46641 -12.9406,-3.2824 0,14.94789 -24.4645,0 0,144.68521 c -1.386,0.071 -2.7671,0.14887 -4.1325,0.23607 l -29.9666,0 c -11.8177,-178.56001 -8.3031,-372.02118 18.9859,-479.1353 l 24.9368,0 16.9786,-9.49296 -18.8441,0 11.3584,-24.46448 30.557,0 1.5586,-5.76191 -24.9368,0 0,-11.05152 -12.7753,3.42409 0,-17.00234 -17.1441,0 -38.9637,-18.98595 -2.4795,-9.35128 15.1132,-11.54742 -13.2477,-3.56577 0,-3.75469 -23.2129,0 0,-11.3585 -4.5103,0 0,-69.8040496 -5.5966,0 0,69.8040496 -4.534,0 0,11.3585 -23.0712,0 0,3.75469 -13.3893,3.56577 15.2548,11.54742 -2.4794,9.35128 -39.1054,18.98595 -16.8371,0 0,17.00234 -12.9407,-3.42409 0,11.05152 -24.9131,0 1.3932,5.76191 30.6987,0 11.2168,24.46448 -18.8442,0 16.9787,9.49296 22.7406,0 c 14.4788,54.37802 24.5747,113.49845 29.7541,177.48552 l -93.9379,0 0,90.67914 -28.3609,0 0,109.99568 -46.8981,0 3.4241,12.94067 -21.9613,-22.12666 0,-11.99609 -5.3133,0 0,11.35851 -57.7843,0 0,-111.86122 -18.2303,0 6.8481,-25.40905 -20.261,0 -9.9653,-16.81342 -36.3189,0 -12.7754,21.81967 -14.9479,0 0,16.97872 -15.2784,26.47169 -31.9267,0 0,17.00234 -28.5261,0 0,43.47404 -11.3585,0 0,-50.95979 -124.6602,0 0,90.67914 -15.1132,0 0,-270.17188 c -28.1206,-11.05287 -55.2299,-22.2165 -142.2529,-28.36084 l 0,37.71213 -21.1821,-5.7619 0,358.15893 -14.1922,0 0,-12.7281 -22.1266,0 -13.8617,-14.02693 -13.3894,3.42405 -3.424,12.7754 -13.10601,-3.58938 0,-16.97872 -5.12427,0 0,-11.38213 -5.45496,0 0,11.38213 -11.54738,0 0,-13.24766 -5.28962,0 0,13.24766 -2.95176,0 0,43.30869 -3.8964,0 c -5.05015,-1.60177 -10.31929,-3.20294 -15.86885,-4.79368 -0.17962,-0.0514 -0.31556,-0.11395 -0.49594,-0.16526 l 0,0.0234 c -0.1571,-0.0491 -0.31481,-0.0927 -0.47229,-0.14169 l 0,-191.70136 -60.7597,0 -3.58939,-12.94067 -43.30873,0 0,15.27849 -35.98828,0 0,136.75075 c -2.64587,-1.04834 -5.37078,-2.31387 -8.19415,-3.82553 -35.05561,-18.76861 -34.52408,-23.83112 -37.59409,-54.57278 -3.07002,-30.74174 13.06444,-57.93176 2.3142,-90.08878 -10.75023,-32.15701 -43.12529,-5.17959 -45.31595,-38.53863 -2.19066,-33.35896 2.02003,-38.93315 36.55503,-94.90611 34.53492,-55.97295 52.74465,-77.23383 101.58897,-128.98162 48.84431,-51.74779 54.98926,-61.32653 93.79623,-77.99823 38.80689,-16.6717 40.51838,8.13815 69.04834,5.62022 27.1345,-2.39476 38.1357,-17.65026 46.6148,-39.90827 6.0603,-15.90868 5.6082,-47.7446 -7.5803,-65.81321 C 1040.2479,11.19984 1022.0682,5.9077704 999.7721,3.9263204 977.47606,1.9448704 961.46425,17.29854 945.55353,28.46164 c -60.34379,40.8935 -110.54308,74.11941 -201.4777,128.03705 -90.93466,53.91763 -113.13176,55.79328 -162.27787,87.63288 -49.14612,31.8396 -19.84943,53.91211 -42.71838,50.88894 -22.86895,-3.02317 -17.05134,-23.7875 -48.74003,-62.97949 -31.68869,-39.192 -20.31292,-55.75447 -69.61513,-104.94221 -49.30221,-49.18772 -78.38201,-49.06527 -127.612,-91.81262 -39.694,-34.46691964 -29.691,-56.162626 -50.93617,-72.212556 -10.33941,-7.81104 -26.93608,-12.40934 -36.43695,-12.44477 z m 1604.4304,240.842836 24.7715,0 0,175.92697 C 1830.468,311.5687 1822.3899,253.10148 1810.1697,191.4717 z m 56.8633,0 28.3609,0 c -8.9612,46.53498 -14.8618,97.92496 -18.3956,151.15551 l -9.9653,0.61398 0,-151.76949 z m 7.1788,206.93263 c -3.2889,92.09587 -0.3072,187.1416 6.0925,272.20267 l -1.6058,0 -3.7074,0 c -6.932,-84.07338 -6.8995,-175.03148 -0.7793,-272.20267 z m -456.5364,279.66481 19.6471,0 0,141.99317 -18.3247,0 c -12.6505,-41.44014 -30.3313,-71.96999 -53.0142,-91.60006 -22.2472,-19.62931 -46.6665,-29.44669 -73.2754,-29.44714 -22.2471,4.5e-4 -39.9043,5.88613 -52.9906,17.66354 -12.6504,11.77824 -18.9861,27.70633 -18.986,47.77188 -10e-5,15.70404 4.583,28.77816 13.7436,39.24699 9.5966,10.03335 27.4788,21.6034 53.6519,34.68953 l 96.1812,47.77181 c 20.9381,10.46944 38.1688,26.82387 51.6918,49.07072 13.5224,22.24714 20.2845,45.58863 20.2848,70.01652 -3e-4,41.0043 -15.0522,74.3646 -45.1507,100.1014 -29.6629,25.3004 -68.7075,37.9482 -117.1272,37.9482 -23.5558,0 -47.0987,-3.7067 -70.6542,-11.1223 -23.1194,-7.4157 -36.8685,-11.1224 -41.2306,-11.1224 -9.5968,0 -16.1339,7.4134 -19.6235,22.2447 l -18.986,0 0,-161.61672 18.986,0 c 22.6831,93.35012 67.187,140.03322 133.4919,140.03322 25.3003,0 45.3615,-6.762 60.193,-20.2848 14.8311,-13.5226 22.2445,-31.6298 22.2448,-54.3131 -3e-4,-17.0122 -5.0097,-30.9627 -15.0424,-41.8682 -10.0332,-10.90521 -29.443,-23.12665 -58.233,-36.64947 l -43.8518,-20.94598 c -38.8233,-18.75705 -67.1742,-38.81815 -85.059,-60.19296 -17.8848,-21.81052 -26.8259,-47.10607 -26.8259,-75.89655 0,-41.44014 12.6477,-73.94762 37.9483,-97.50372 25.7366,-23.55519 60.8495,-35.32663 105.3436,-35.32708 20.9382,4.5e-4 42.752,3.70719 65.4354,11.1224 22.6829,6.97987 35.5557,10.46158 38.6095,10.4612 5.6705,3.8e-4 10.0285,-1.52727 13.0823,-4.58126 3.0532,-3.48926 5.6586,-9.37494 7.84,-17.66354 z m -534.60546,0.6612 c 20.50187,4.5e-4 39.68671,2.83085 57.57181,8.50117 18.32073,5.23505 33.59745,10.46943 45.81185,15.70358 12.21365,5.23499 21.6047,7.864 28.1483,7.86362 6.1067,3.8e-4 11.341,-2.17864 15.7035,-6.54121 4.3618,-4.36174 8.7199,-12.22506 13.0825,-23.56713 l 17.6635,0 0,153.1155 -16.3648,0 c -11.342,-24.86399 -21.8107,-44.04875 -31.4071,-57.57181 -9.1608,-13.95854 -20.70732,-27.05623 -34.66587,-39.27064 -28.3543,-24.42767 -57.38017,-36.6491 -87.04252,-36.64948 -39.69585,3.8e-4 -69.77578,17.88253 -90.27766,53.65182 -20.06609,35.33373 -30.10848,87.25109 -30.10834,155.73666 -1.4e-4,78.08267 14.1753,135.23448 42.52942,171.44018 20.93819,27.0455 51.0417,40.5696 90.30131,40.5696 21.81052,0 37.73861,-3.7067 47.77188,-11.1224 10.03259,-7.8518 15.04201,-20.0732 15.04231,-36.6496 l 0,-68.6941 c -3e-4,-17.88471 -4.15696,-29.45476 -12.44473,-34.68944 -7.85221,-5.6707 -25.73436,-9.37736 -53.65182,-11.12241 l 0,-16.36471 224.43082,0 0,16.36471 c -24.4285,2.61746 -39.9066,7.42549 -46.4494,14.40476 -6.5437,6.97958 -9.824,22.23271 -9.8235,45.78819 l 0,83.0991 c -20.9388,12.214 -47.762,22.0314 -80.47777,29.4471 -32.7165,7.4156 -66.07675,11.1223 -100.1013,11.1223 -68.48602,0 -124.53644,-21.1625 -168.15785,-63.4755 -43.18537,-42.749 -64.79782,-97.92306 -64.7978,-165.5366 -2e-5,-67.17692 21.61243,-123.22728 64.7978,-168.15781 43.62141,-44.92977 97.91915,-67.395 162.91546,-67.39545 z m 1697.16396,0 c 20.5019,4.5e-4 39.6867,2.83085 57.5718,8.50117 18.3207,5.23505 33.5974,10.46943 45.8118,15.70358 12.2137,5.23499 21.5811,7.864 28.1247,7.86362 6.1066,3.8e-4 11.341,-2.17864 15.7036,-6.54121 4.3617,-4.36174 8.7198,-12.22506 13.0823,-23.56713 l 17.6636,0 0,153.1155 -16.3411,0 c -11.342,-24.86399 -21.8108,-44.04875 -31.4071,-57.57181 -9.1609,-13.95854 -20.731,-27.05623 -34.6896,-39.27064 -28.3543,-24.42767 -57.3565,-36.6491 -87.0188,-36.64948 -39.6959,3.8e-4 -69.7994,17.88253 -90.3014,53.65182 -20.066,35.33373 -30.1084,87.25109 -30.1083,155.73666 -1e-4,78.08267 14.1753,135.23448 42.5295,171.44018 20.9381,27.0455 51.0417,40.5696 90.3013,40.5696 21.8105,0 37.7386,-3.7067 47.7718,-11.1224 10.0327,-7.8518 15.0421,-20.0732 15.0424,-36.6496 l 0,-68.6941 c -3e-4,-17.88471 -4.1334,-29.45476 -12.4212,-34.68944 -7.8522,-5.6707 -25.7343,-9.37736 -53.6518,-11.12241 l 0,-16.36471 224.4309,0 0,16.36471 c -24.4285,2.61746 -39.9303,7.42549 -46.4731,14.40476 -6.5437,6.97958 -9.8003,22.23271 -9.8,45.78819 l 0,83.0991 c -20.9387,12.214 -47.7619,22.0314 -80.4777,29.4471 -32.7164,7.4156 -66.1003,11.1223 -100.1249,11.1223 -68.4859,0 -124.5364,-21.1625 -168.1578,-63.4755 -43.1854,-42.749 -64.7742,-97.92306 -64.7742,-165.5366 0,-67.17692 21.5888,-123.22728 64.7742,-168.15781 43.6214,-44.92977 97.9428,-67.395 162.9391,-67.39545 z m -1110.4888,9.82357 228.3744,0 0,16.34114 c -28.3542,1.3091 -46.4613,5.66714 -54.313,13.08243 -7.852,6.9798 -11.7837,22.70658 -11.7836,47.13426 l 0,308.82846 c -10e-5,13.9591 3.7065,23.5515 11.1224,28.7861 7.4155,5.2346 21.1645,7.8636 41.2307,7.8635 20.5019,10e-5 39.0353,-2.1789 55.6118,-6.5411 17.0121,-4.7984 30.9625,-10.7077 41.8683,-17.6872 10.905,-7.4157 20.7224,-15.6818 29.447,-24.8424 9.1602,-9.1604 16.1473,-18.5515 20.9459,-28.1483 4.7981,-9.5966 9.3811,-18.7627 13.7437,-27.4871 4.7979,-9.16037 8.0783,-17.00011 9.8235,-23.54352 l 18.9623,0 -26.8259,148.53442 -378.2075,0 0,-16.3647 c 23.9918,-3.0536 39.2686,-7.4116 45.8118,-13.0825 6.9794,-5.6707 10.4611,-16.7909 10.4611,-33.3671 l 0,-316.6922 c 0,-16.57576 -3.9081,-28.14582 -11.7598,-34.68945 -7.4158,-6.5428 -22.2662,-10.4745 -44.5131,-11.7836 l 0,-16.34114 z m 408.9534,0 221.1721,0 0,16.34114 c -26.1731,0.87286 -43.4039,5.02959 -51.6919,12.4448 -7.8519,6.97988 -11.7836,22.90797 -11.7835,47.77189 l 0,218.52719 c -10e-5,44.49407 7.6382,77.00167 22.9059,97.50367 15.2674,20.0661 39.6866,30.0848 73.2754,30.0848 38.8229,0 67.6237,-11.5464 86.3813,-34.666 18.7569,-23.1193 28.1243,-58.8836 28.1247,-107.30357 l 0,-199.58856 c -4e-4,-23.99143 -4.3584,-40.12091 -13.0823,-48.40943 -8.2885,-8.72387 -25.2943,-14.18328 -51.0307,-16.36479 l 0,-16.34114 143.9531,0 0,16.34114 c -20.9387,3.054 -34.6878,8.28837 -41.2306,15.70358 -6.5437,7.41605 -9.8003,20.73878 -9.8,39.93185 l 0,208.72735 c -3e-4,116.03327 -56.2758,174.03787 -168.819,174.03787 -48.8563,0 -89.2036,-11.5465 -121.0473,-34.6659 -20.0659,-14.395 -34.04,-30.7732 -41.8918,-49.0943 -7.8519,-18.3209 -11.7836,-43.6165 -11.7836,-75.89657 l 0,-218.52719 c 0,-23.55527 -3.2568,-38.83206 -9.8,-45.81186 -6.107,-7.41528 -20.7324,-12.22332 -43.8518,-14.40483 l 0,-16.34114 z"
       id="path3648"
       inkscape:connector-curvature="0" />
  </g>
</svg>
