<?xml version="1.0" encoding="UTF-8" standalone="no"?>
<!-- Created with Inkscape (http://www.inkscape.org/) -->
<svg
   xmlns:dc="http://purl.org/dc/elements/1.1/"
   xmlns:cc="http://creativecommons.org/ns#"
   xmlns:rdf="http://www.w3.org/1999/02/22-rdf-syntax-ns#"
   xmlns:svg="http://www.w3.org/2000/svg"
   xmlns="http://www.w3.org/2000/svg"
   xmlns:xlink="http://www.w3.org/1999/xlink"
   xmlns:sodipodi="http://sodipodi.sourceforge.net/DTD/sodipodi-0.dtd"
   xmlns:inkscape="http://www.inkscape.org/namespaces/inkscape"
   width="4500"
   height="2160"
   id="svg2398"
   sodipodi:version="0.32"
   inkscape:version="0.46"
   version="1.0"
   sodipodi:docname="banner.svg"
   inkscape:output_extension="org.inkscape.output.svg.inkscape">
  <defs
     id="defs2400">
    <inkscape:perspective
       sodipodi:type="inkscape:persp3d"
       inkscape:vp_x="0 : 526.18109 : 1"
       inkscape:vp_y="0 : 1000 : 0"
       inkscape:vp_z="744.09448 : 526.18109 : 1"
       inkscape:persp3d-origin="372.04724 : 350.78739 : 1"
       id="perspective2406" />
    <inkscape:perspective
       id="perspective2431"
       inkscape:persp3d-origin="332.67499 : 106.69667 : 1"
       inkscape:vp_z="665.34998 : 160.045 : 1"
       inkscape:vp_y="0 : 1000 : 0"
       inkscape:vp_x="0 : 160.045 : 1"
       sodipodi:type="inkscape:persp3d" />
  </defs>
  <sodipodi:namedview
     id="base"
     pagecolor="#ffffff"
     bordercolor="#666666"
     borderopacity="1.0"
     gridtolerance="10000"
     guidetolerance="10"
     objecttolerance="10"
     inkscape:pageopacity="0.0"
     inkscape:pageshadow="2"
     inkscape:zoom="0.28133333"
     inkscape:cx="2250"
     inkscape:cy="1080"
     inkscape:document-units="px"
     inkscape:current-layer="layer1"
     showgrid="false"
     units="in" />
  <metadata
     id="metadata2403">
    <rdf:RDF>
      <cc:Work
         rdf:about="">
        <dc:format>image/svg+xml</dc:format>
        <dc:type
           rdf:resource="http://purl.org/dc/dcmitype/StillImage" />
      </cc:Work>
    </rdf:RDF>
  </metadata>
  <g
     inkscape:label="Layer 1"
     inkscape:groupmode="layer"
     id="layer1"
     transform="translate(-123.94137,-376.11302)">
    <g
       id="g3561"
       transform="matrix(6.5980952,0,0,6.5980952,244.8919,466.11303)">
      <path
         sodipodi:nodetypes="ccccccc"
         id="path3553"
         d="M 547.25072,175.21322 L 547.25072,141.21322 L 531.25072,138.21322 L 531.06771,144.99431 L 505.25072,144.99431 L 521.25072,189.21322 L 547.25072,175.21322 z"
         style="fill:#000000;fill-opacity:1;fill-rule:evenodd;stroke:none;stroke-width:1px;stroke-linecap:butt;stroke-linejoin:miter;stroke-opacity:1" />
      <g
         id="g3413"
         transform="matrix(0.7280882,-0.1022422,0.1022422,0.7280882,-88.236843,-57.981626)"
         style="fill:#000000;fill-opacity:1">
        <path
           style="fill:#000000;fill-opacity:1;fill-rule:evenodd;stroke:none;stroke-width:1;stroke-linecap:butt;stroke-linejoin:miter;stroke-miterlimit:4;stroke-dasharray:none;stroke-opacity:1"
           d="M 943.1579,456.75789 C 945.5158,450.02105 940.8,450.35789 937.76842,443.28421 C 934.73684,436.21053 938.77895,431.83158 913.51579,425.76842 C 888.25263,419.70526 883.2,422.73685 846.14737,423.07369 C 809.09474,423.41053 821.5579,430.82106 786.86316,429.81053 C 752.16842,428.8 730.61052,421.72631 697.93684,414.98947 C 665.26315,408.25263 682.4421,415.32632 656.16842,402.86316 C 629.89474,390.4 621.47369,377.6 592.84211,365.13684 C 564.21053,352.67368 566.56843,361.09474 541.64211,353.01053 C 516.71579,344.92632 525.13684,337.85263 493.13684,332.8 C 461.13684,327.74737 444.63158,331.11579 413.64211,332.8 C 382.65264,334.48421 387.36843,338.52631 369.17895,339.53684 C 350.98947,340.54737 352,340.21053 340.88421,336.84211 C 329.76842,333.47369 333.47369,329.43158 324.71579,326.06316 C 315.9579,322.69474 314.61052,327.74737 305.85263,323.36842 C 297.09473,318.98947 301.81052,316.29474 289.68421,308.54737 C 277.5579,300.8 271.49474,305.51579 262.73684,299.11579 C 253.97894,292.71579 254.31579,291.36842 254.65263,282.94737 C 254.98947,274.52632 260.37895,267.78948 258.69474,258.69474 C 257.01053,249.6 247.24211,255.66316 247.91579,246.56842 C 248.58947,237.47368 249.93684,236.12631 261.38947,222.31579 C 272.8421,208.50527 278.56842,203.45263 293.72632,191.32632 C 308.88421,179.20001 310.90526,176.84211 322.02105,173.81053 C 333.13684,170.77895 330.4421,180.21053 338.18947,179.2 C 345.93684,178.18947 348.96843,176.8421 353.01053,169.76842 C 357.05264,162.69474 358.06315,158.65263 354.35789,150.90526 C 350.65263,143.15789 346.61052,142.48422 339.53684,141.47369 C 332.46316,140.46316 343.91579,138.10527 326.06316,146.86316 C 308.21053,155.62105 293.38948,162.69474 266.77895,173.81053 C 240.16842,184.92632 234.10526,184.58948 219.62105,191.32632 C 205.13684,198.06316 212.21053,205.13684 206.14737,203.45263 C 200.08421,201.76842 202.4421,196.37894 195.36842,184.58947 C 188.29474,172.8 192,168.75789 180.54737,153.6 C 169.09474,138.44211 160.33684,138.10526 149.55789,123.95789 C 138.77894,109.81052 146.18947,106.44211 137.43158,101.05263 C 128.67369,95.663159 122.61053,97.010526 114.52632,102.4 C 106.44211,107.78947 104.7579,110.14737 105.09474,118.56842 C 105.43158,126.98947 108.46316,131.03158 115.87368,136.08421 C 123.2842,141.13684 125.6421,132.71579 134.73684,138.77895 C 143.83158,144.84211 146.86316,144.16842 152.25263,160.33684 C 157.64211,176.50526 157.64211,197.72631 156.29474,203.45263 C 154.94737,209.17895 153.26316,188.29474 146.86316,183.24211 C 140.46316,178.18948 136.08422,179.20001 130.69474,183.24211 C 125.30526,187.28422 125.64211,192.67369 128,198.06316 C 130.3579,203.45263 136.42106,203.45263 141.47369,212.88421 C 146.52632,222.31579 143.1579,224 145.51579,237.13684 C 147.87368,250.27368 149.22105,247.24211 149.55789,257.34737 C 149.89473,267.45263 146.18948,268.79999 150.90527,285.6421 C 155.62106,302.4842 159.66316,300.12632 168.42105,324.71579 C 177.17894,349.30527 173.81053,353.68421 181.89474,375.91579 C 189.97895,398.14737 188.63157,394.44211 200.75789,412.29474 C 212.88421,430.14737 215.24211,436.21053 230.4,447.32632 C 245.5579,458.44211 246.56842,451.70526 261.38947,458.10526 C 276.21052,464.50526 276.88421,469.5579 289.68421,472.92632 C 302.48421,476.29474 302.82105,470.23158 312.58947,471.57895 C 322.35789,472.92632 318.31579,477.30526 328.75789,478.31579 C 339.19999,479.32632 338.18947,473.93684 354.35789,475.62105 C 370.52631,477.30526 371.87369,482.69474 393.43158,485.05263 C 414.98947,487.41053 419.36842,487.07368 440.58947,485.05263 C 461.81052,483.03158 456.75789,476.63158 478.31579,476.96842 C 499.87369,477.30526 498.18947,477.6421 526.82105,486.4 C 555.45263,495.15789 555.45264,502.56842 592.84211,512 C 630.23158,521.43158 629.5579,521.43158 676.37895,524.12632 C 723.2,526.82106 737.68421,527.49474 780.12632,522.77895 C 822.56842,518.06316 815.49474,514.3579 846.14737,505.26316 C 876.8,496.16842 875.62025,500.78506 894.65263,489.09474 C 908.9109,480.33684 912.80125,477.64211 928.33684,470.23158 C 940.39481,464.47988 940.80001,463.49473 943.1579,456.75789 z"
           id="path3415"
           sodipodi:nodetypes="cssssssssssssssssssssssssssssscsscsssszscssscsssssssssssssssssssssss" />
      </g>
      <path
         id="path3131"
         d="M 345.59447,9.6507243 L 345.59447,23.650724 L 344.90697,23.650724 L 344.90697,25.931974 L 340.28197,25.931974 L 340.28197,26.681974 L 337.59447,27.400724 L 340.65697,29.713224 L 340.15697,31.588224 L 332.31322,35.400724 L 328.93822,35.400724 L 328.93822,38.806974 L 326.34447,38.119474 L 326.34447,40.338224 L 321.34447,40.338224 L 321.62572,41.494474 L 327.78197,41.494474 L 330.03197,46.400724 L 326.25072,46.400724 L 329.65697,48.306974 L 334.21947,48.306974 C 337.12336,59.213304 339.14937,71.067154 340.18822,83.900724 L 321.34447,83.900724 L 321.34447,102.08822 L 315.65697,102.08822 L 315.65697,124.15072 L 306.25072,124.15072 L 306.93822,126.74447 L 302.53197,122.30697 L 302.53197,119.90072 L 301.46947,119.90072 L 301.46947,122.18197 L 289.87572,122.18197 L 289.87572,99.744474 L 286.21947,99.744474 L 287.59447,94.650724 L 283.53197,94.650724 L 281.53197,91.275724 L 274.25072,91.275724 L 271.68822,95.650724 L 268.68822,95.650724 L 268.68822,99.056974 L 265.62572,104.36947 L 259.21947,104.36947 L 259.21947,107.77572 L 253.50072,107.77572 L 253.50072,116.49447 L 251.21947,116.49447 L 251.21947,106.27572 L 226.21947,106.27572 L 226.21947,124.46322 L 223.18822,124.46322 L 223.18822,70.275724 C 217.54819,68.058904 212.11073,65.820564 194.65697,64.588224 L 194.65697,72.150724 L 190.40697,70.994474 L 190.40697,146.61947 L 187.56322,143.77572 L 187.56322,140.27572 L 183.12572,140.27572 L 180.34447,137.46322 L 177.65697,138.15072 L 176.96947,140.71322 L 174.34447,139.99447 L 174.34447,136.58822 L 173.31322,136.58822 L 173.31322,134.30697 L 172.21947,134.30697 L 172.21947,136.58822 L 169.90697,136.58822 L 169.90697,133.93197 L 168.84447,133.93197 L 168.84447,136.58822 L 168.25072,136.58822 L 168.25072,145.27572 L 164.09447,145.27572 L 164.09447,105.80697 L 151.90697,105.80697 L 151.18822,103.21322 L 142.50072,103.21322 L 142.50072,106.27572 L 135.28197,106.27572 L 135.28197,140.77572 L 129.50072,140.77572 L 130.00072,142.65072 L 123.53197,142.65072 L 123.53197,135.43197 L 110.28197,135.43197 L 110.28197,118.77572 L 91.71947,118.77572 L 91.71947,136.24447 L 79.06322,136.24447 L 79.59447,138.27572 L 75.59447,138.27572 L 72.37572,135.02572 L 66.87572,135.02572 C 69.99639,141.08122 73.57147,147.10471 76.40697,152.77572 C 77.34978,154.66134 78.30791,156.54635 79.25072,158.43197 C 83.54042,167.01136 98.13436,172.11495 107.53197,173.99447 C 119.90148,176.46837 139.75859,182.3109 151.37572,188.11947 C 163.22128,194.04223 182.55836,194.86044 195.21947,198.02572 C 207.84026,201.18093 220.94248,200.57366 233.37572,203.68197 C 237.14694,204.62479 240.91698,205.58291 244.68822,206.52572 C 246.51754,206.98305 248.4901,206.52572 250.37572,206.52572 C 276.49422,206.52572 301.90289,220.65072 328.15697,220.65072 C 342.67221,220.65071 356.26585,222.08822 370.56322,222.08822 C 382.56498,222.08823 389.32825,216.94008 398.84447,212.18197 C 407.81459,207.6969 417.00146,207.93197 427.12572,207.93197 C 434.49671,207.93197 441.59739,210.77572 449.75072,210.77572 C 459.38623,210.77571 470.1964,201.75023 479.46947,199.43197 C 489.88184,196.82888 497.5125,190.67902 507.75072,188.11947 C 516.05565,186.04323 526.18696,183.90072 534.62572,183.90072 C 539.71919,183.90072 545.37967,181.92456 550.93822,179.99447 L 550.93822,165.74447 L 544.53197,165.74447 L 543.37572,161.96322 L 538.46947,161.96322 L 537.68822,166.11947 L 531.62572,166.11947 L 531.62572,155.11947 L 519.50072,155.11947 L 519.50072,131.24447 L 513.84447,128.61947 L 502.46947,128.61947 L 498.31322,131.65072 L 498.31322,147.93197 L 486.90697,147.93197 L 486.90697,143.77572 L 483.90697,134.30697 L 480.84447,143.77572 L 480.84447,146.80697 L 475.50072,146.80697 L 475.50072,142.77572 L 473.21947,143.36947 L 473.21947,118.46322 L 470.62572,119.11947 L 468.71947,117.24447 L 468.71947,105.11947 L 455.87572,105.11947 L 455.87572,86.556974 L 455.68822,86.556974 L 455.68822,84.275724 L 454.62572,84.275724 L 454.62572,86.556974 L 451.87572,86.556974 L 451.87572,83.338224 L 445.40697,76.869474 L 445.40697,74.056974 L 444.34447,74.056974 L 444.34447,76.806974 L 437.96947,83.150724 L 439.18822,87.681974 L 434.81322,87.681974 L 434.81322,84.275724 L 433.71947,84.275724 L 433.71947,87.681974 L 432.93822,87.681974 L 432.93822,146.83822 L 429.71947,148.71322 L 425.93822,148.71322 L 425.93822,98.306974 L 403.18822,98.306974 L 403.18822,139.58822 L 400.53197,139.58822 L 400.53197,123.30697 L 392.15697,123.30697 L 392.15697,60.275724 L 389.09447,61.119474 L 389.90697,59.650724 L 373.65697,59.650724 L 373.65697,83.119474 L 370.59447,83.119474 L 370.59447,85.025724 L 368.62572,85.025724 L 368.62572,112.99447 L 366.03197,112.33822 L 366.03197,115.33822 L 361.12572,115.33822 L 361.12572,154.77572 L 355.06322,154.77572 C 351.82107,116.32329 352.08772,71.884564 358.09447,48.306974 L 363.09447,48.306974 L 366.50072,46.400724 L 362.71947,46.400724 L 365.00072,41.494474 L 371.12572,41.494474 L 371.43822,40.338224 L 366.43822,40.338224 L 366.43822,38.119474 L 363.87572,38.806974 L 363.87572,35.400724 L 360.43822,35.400724 L 352.62572,31.588224 L 352.12572,29.713224 L 355.15697,27.400724 L 352.50072,26.681974 L 352.50072,25.931974 L 347.84447,25.931974 L 347.84447,23.650724 L 346.71947,23.650724 L 346.71947,9.6507243 L 345.59447,9.6507243 z M 337.59447,48.306974 L 342.56322,48.306974 L 342.56322,83.588224 C 341.66613,72.390684 340.04543,60.667754 337.59447,48.306974 z M 349.00072,48.306974 L 354.68822,48.306974 C 352.89092,57.640264 351.70948,67.943284 351.00072,78.619474 L 349.00072,78.744474 L 349.00072,48.306974 z M 350.43822,89.806974 C 349.59991,113.28129 350.79649,137.71934 352.84447,157.77572 L 352.03197,157.77572 C 349.28995,137.31876 348.87883,114.56532 350.43822,89.806974 z M 63.12572,127.08822 C 63.30798,127.53678 63.49504,127.98261 63.68822,128.43197 L 63.68822,127.08822 L 63.12572,127.08822 z M 583.93822,130.90072 L 583.93822,154.36947 L 579.75072,153.24447 L 579.75072,159.68197 L 570.28197,150.99447 L 570.28197,148.02572 L 559.75072,148.02572 L 560.43822,150.58822 L 558.90697,150.58822 L 552.81322,164.61947 L 552.81322,179.33822 C 555.7986,178.31314 558.76109,177.3549 561.50072,176.80697 C 569.65774,175.17557 577.83628,174.51214 585.53197,172.58822 C 592.20305,170.92045 604.78724,166.05169 606.75072,164.08822 C 607.58438,163.25456 608.35199,162.4106 609.12572,161.55697 L 608.18822,161.55697 L 608.18822,130.90072 L 583.93822,130.90072 z"
         style="fill:#000000;fill-opacity:1;fill-rule:evenodd;stroke:none;stroke-width:1px;stroke-linecap:butt;stroke-linejoin:miter;stroke-opacity:1" />
      <g
         transform="matrix(0.7191091,0,0,0.7191091,16.38359,-110.98902)"
         id="g3212">
        <text
           xml:space="preserve"
           style="font-size:30.41596222px;font-style:normal;font-weight:normal;fill:#ffffff;fill-opacity:1;stroke:#000000;stroke-width:10;stroke-linecap:butt;stroke-linejoin:miter;stroke-miterlimit:4;stroke-dasharray:none;stroke-opacity:1;font-family:Bitstream Vera Sans"
           x="117.84486"
           y="483.51981"
           id="text3128"><tspan
             sodipodi:role="line"
             id="tspan3130"
             x="117.84486"
             y="483.51981"
             style="font-size:182.49577332px;font-weight:bold;fill:#ffffff;fill-opacity:1;stroke:#000000;stroke-width:10;stroke-miterlimit:4;stroke-dasharray:none;stroke-opacity:1;font-family:FreeSerif">GSLUG</tspan></text>
        <text
           id="text3206"
           y="483.51981"
           x="117.84486"
           style="font-size:30.41596222px;font-style:normal;font-weight:normal;fill:#ffffff;fill-opacity:1;stroke:none;stroke-width:10;stroke-linecap:butt;stroke-linejoin:miter;stroke-miterlimit:4;stroke-dasharray:none;stroke-opacity:1;font-family:Bitstream Vera Sans"
           xml:space="preserve"><tspan
             style="font-size:182.49577332px;font-weight:bold;fill:#ffffff;fill-opacity:1;stroke:none;stroke-width:10;stroke-miterlimit:4;stroke-dasharray:none;stroke-opacity:1;font-family:FreeSerif"
             y="483.51981"
             x="117.84486"
             id="tspan3208"
             sodipodi:role="line">GSLUG</tspan></text>
      </g>
      <text
         id="text3555"
         y="291.11887"
         x="41.908558"
         style="font-size:41.32598877px;font-style:normal;font-weight:normal;fill:#000000;fill-opacity:1;stroke:none;stroke-width:1px;stroke-linecap:butt;stroke-linejoin:miter;stroke-opacity:1;font-family:Bitstream Vera Sans"
         xml:space="preserve"><tspan
           style="font-family:FreeSerif"
           y="291.11887"
           x="41.908558"
           id="tspan3557"
           sodipodi:role="line">Greater Seattle Linux Users Group</tspan></text>
    </g>
  </g>
</svg>
