<?xml version="1.0" encoding="UTF-8" standalone="no"?>
<!-- Created with Inkscape (http://www.inkscape.org/) -->

<svg
   xmlns:dc="http://purl.org/dc/elements/1.1/"
   xmlns:cc="http://creativecommons.org/ns#"
   xmlns:rdf="http://www.w3.org/1999/02/22-rdf-syntax-ns#"
   xmlns:svg="http://www.w3.org/2000/svg"
   xmlns="http://www.w3.org/2000/svg"
   xmlns:sodipodi="http://sodipodi.sourceforge.net/DTD/sodipodi-0.dtd"
   xmlns:inkscape="http://www.inkscape.org/namespaces/inkscape"
   width="4500"
   height="2160"
   id="svg2398"
   sodipodi:version="0.32"
   inkscape:version="0.47pre4 r22446"
   version="1.0"
   sodipodi:docname="banner.pdf"
   inkscape:output_extension="org.inkscape.output.svg.inkscape"
   inkscape:export-xdpi="10"
   inkscape:export-ydpi="10"
   style="display:inline">
  <defs
     id="defs2400">
    <linearGradient
       id="linearGradient3659">
      <stop
         style="stop-color:#68b817;stop-opacity:0;"
         offset="0"
         id="stop3661" />
      <stop
         style="stop-color:#e16b50;stop-opacity:1;"
         offset="1"
         id="stop3663" />
    </linearGradient>
    <linearGradient
       id="linearGradient3783">
      <stop
         style="stop-color:#1b081f;stop-opacity:1;"
         offset="0"
         id="stop3785" />
      <stop
         style="stop-color:#481e31;stop-opacity:1;"
         offset="1"
         id="stop3787" />
    </linearGradient>
    <linearGradient
       id="linearGradient3773">
      <stop
         style="stop-color:#ffffff;stop-opacity:0.2173913;"
         offset="0"
         id="stop3775" />
      <stop
         style="stop-color:#ffffff;stop-opacity:0.63095236;"
         offset="1"
         id="stop3777" />
    </linearGradient>
    <inkscape:perspective
       sodipodi:type="inkscape:persp3d"
       inkscape:vp_x="0 : 526.18109 : 1"
       inkscape:vp_y="0 : 1000 : 0"
       inkscape:vp_z="744.09448 : 526.18109 : 1"
       inkscape:persp3d-origin="372.04724 : 350.78739 : 1"
       id="perspective2406" />
    <inkscape:perspective
       id="perspective2431"
       inkscape:persp3d-origin="332.67499 : 106.69667 : 1"
       inkscape:vp_z="665.34998 : 160.045 : 1"
       inkscape:vp_y="0 : 1000 : 0"
       inkscape:vp_x="0 : 160.045 : 1"
       sodipodi:type="inkscape:persp3d" />
    <inkscape:perspective
       id="perspective3752"
       inkscape:persp3d-origin="0.5 : 0.33333333 : 1"
       inkscape:vp_z="1 : 0.5 : 1"
       inkscape:vp_y="0 : 1000 : 0"
       inkscape:vp_x="0 : 0.5 : 1"
       sodipodi:type="inkscape:persp3d" />
    <inkscape:perspective
       id="perspective2877"
       inkscape:persp3d-origin="0.5 : 0.33333333 : 1"
       inkscape:vp_z="1 : 0.5 : 1"
       inkscape:vp_y="0 : 1000 : 0"
       inkscape:vp_x="0 : 0.5 : 1"
       sodipodi:type="inkscape:persp3d" />
    <inkscape:perspective
       id="perspective3679"
       inkscape:persp3d-origin="0.5 : 0.33333333 : 1"
       inkscape:vp_z="1 : 0.5 : 1"
       inkscape:vp_y="0 : 1000 : 0"
       inkscape:vp_x="0 : 0.5 : 1"
       sodipodi:type="inkscape:persp3d" />
    <inkscape:perspective
       id="perspective3657"
       inkscape:persp3d-origin="0.5 : 0.33333333 : 1"
       inkscape:vp_z="1 : 0.5 : 1"
       inkscape:vp_y="0 : 1000 : 0"
       inkscape:vp_x="0 : 0.5 : 1"
       sodipodi:type="inkscape:persp3d" />
  </defs>
  <sodipodi:namedview
     id="base"
     pagecolor="#ffffff"
     bordercolor="#666666"
     borderopacity="1.0"
     gridtolerance="10000"
     guidetolerance="10"
     objecttolerance="10"
     inkscape:pageopacity="0.0"
     inkscape:pageshadow="2"
     inkscape:zoom="0.28111111"
     inkscape:cx="2250"
     inkscape:cy="1080"
     inkscape:document-units="px"
     inkscape:current-layer="layer1"
     showgrid="false"
     units="in"
     inkscape:window-width="1364"
     inkscape:window-height="1100"
     inkscape:window-x="682"
     inkscape:window-y="25"
     inkscape:window-maximized="0"
     borderlayer="false" />
  <metadata
     id="metadata2403">
    <rdf:RDF>
      <cc:Work
         rdf:about="">
        <dc:format>image/svg+xml</dc:format>
        <dc:type
           rdf:resource="http://purl.org/dc/dcmitype/StillImage" />
        <dc:title></dc:title>
      </cc:Work>
    </rdf:RDF>
  </metadata>
  <g
     inkscape:groupmode="layer"
     id="layer5"
     inkscape:label="Background"
     style="display:inline"
     sodipodi:insensitive="true">
    <rect
       style="fill:#3589d1;fill-opacity:1;stroke:none"
       id="rect2853"
       width="4500"
       height="2160"
       x="0"
       y="-1.5258789e-05" />
  </g>
  <g
     inkscape:groupmode="layer"
     id="layer1"
     inkscape:label="Clouds">
    <path
       style="fill:#ffffff;fill-opacity:0.71337581;stroke:none"
       d="m 706.28125,112.78125 c -46.9654,0.76377 -87.79257,17.33473 -110.125,41.71875 -5.61729,-0.5271 -11.37011,-0.8125 -17.21875,-0.8125 -58.24131,0 -106.49666,27.06765 -115.125,62.4375 -11.58153,-1.28839 -23.62185,-1.96875 -36.03125,-1.96875 -86.93573,0 -157.4375,33.42986 -157.4375,74.6875 0,41.25764 70.50177,74.71875 157.4375,74.71875 12.87906,0 25.36281,-0.74028 37.34375,-2.125 7.63664,40.17071 63.44364,71.37608 131.21875,71.5 27.66386,18.1693 67.57611,30.12876 112.4375,31.78125 34.27508,23.91346 88.4309,39.34375 149.40625,39.34375 43.07242,0 82.76677,-7.70383 114.4375,-20.65625 26.03832,7.47781 56.5559,11.78125 89.2188,11.78125 63.8619,0 119.6381,-16.4497 149.4687,-40.90625 0.2826,0.001 0.5606,0 0.8437,0 60.413,0 109.375,-27.10096 109.375,-60.5 0,-33.39904 -48.962,-60.46875 -109.375,-60.46875 -19.2417,0 -37.323,2.77095 -53.0312,7.59375 8.3245,-6.58782 13,-13.98857 13,-21.8125 0,-27.50509 -57.719,-49.8125 -128.9375,-49.8125 -4.3235,0 -8.5983,0.0895 -12.8125,0.25 0.8253,-2.68439 1.25,-5.44662 1.25,-8.25 0,-28.97858 -45.79758,-52.46875 -102.28125,-52.46875 -21.75867,0 -41.92155,3.49463 -58.5,9.4375 -7.66428,-7.8274 -17.69316,-14.79243 -29.53125,-20.53125 0.001,-0.1559 0,-0.31265 0,-0.46875 0,-46.66042 -58.93297,-84.46875 -131.625,-84.46875 -1.13581,0 -2.27733,-0.0184 -3.40625,0 z"
       id="path3666" />
    <path
       style="fill:#ffffff;fill-opacity:0.71337579;stroke:none"
       d="m 2078.125,-49.080383 c -43.7405,0.814696 -81.2312,20.061862 -98.6875,47.5657337 C 1960.5763,-27.69688 1925.139,-45.330387 1884.5,-45.330387 c -60.413,0 -109.4062,38.9572197 -109.4062,87.039371 0,48.082152 48.9932,87.072266 109.4062,87.072266 45.1481,0 83.889,-21.79238 100.5938,-52.86178 19.6349,23.837309 55.2644,39.7368 95.9374,39.7368 29.6516,0 56.6139,-8.44507 76.6563,-22.269715 18.6801,13.810885 43.9665,22.269715 71.8437,22.269715 57.466,0 104.0626,-36.030266 104.0626,-80.493331 0,-44.4630649 -46.5966,-80.493326 -104.0626,-80.493326 -26.5913,0 -50.8245,7.696169 -69.2187,20.394713 -20.2825,-14.932143 -48.3094,-24.144709 -79.2813,-24.144709 -0.9669,0 -1.9451,-0.0179 -2.9062,0 z"
       id="path3692" />
    <path
       style="fill:#ffffff;fill-opacity:0.71337581;stroke:none"
       d="m 2813.8438,-107.78125 c -64.3904,0 -119.5978,26.894277 -142.9063,65.15625 -16.3632,-8.44909 -37.9682,-13.59375 -61.6563,-13.59375 -51.0808,0 -92.4687,23.90526 -92.4687,53.375 0,6.3654796 1.9246,12.4647104 5.4687,18.125 -26.7472,11.222453 -44.625,31.578907 -44.625,54.8125 0,35.36369 41.4192,64.03125 92.5,64.03125 12.0559,0 23.5639,-1.62634 34.125,-4.53125 15.4536,10.53823 35.9126,16.96875 58.375,16.96875 0.3998,0 0.7891,-0.0272 1.1876,-0.0312 -0.7827,3.49197 -1.1876,7.05294 -1.1876,10.6875 0,40.27531 49.761,72.9375 111.1563,72.9375 57.9478,0 105.5253,-29.08782 110.6875,-66.21875 17.8729,3.67002 37.9642,5.75 59.1875,5.75 74.6567,0 135.1563,-25.47186 135.1563,-56.90625 0,-1.48368 -0.1103,-2.98239 -0.375,-4.4375 17.424,-10.834119 30.2874,-25.694826 36.0937,-42.6875 44.0225,-3.358903 79.4024,-16.424253 91.4687,-33.40625 51.881,-6.867382 89.8126,-28.725944 89.8126,-54.65625 0,-31.434389 -55.7373,-56.90625 -124.5,-56.90625 -62.1952,0 -113.7215,20.8199 -123,48.0625 -12.0631,-3.490133 -25.1519,-5.375 -38.8438,-5.375 -16.4393,0 -32.0373,2.753083 -46,7.6875 -17.4441,-45.378176 -77.8293,-78.84375 -149.6562,-78.84375 z"
       id="path3700" />
    <path
       style="fill:#ffffff;fill-opacity:0.71337581;stroke:none"
       d="m 3847.2188,119.875 c -80.5507,0 -145.8438,37.83958 -145.8438,84.5 0,1.38442 0.074,2.75689 0.1875,4.125 -12.2034,-0.95459 -24.7367,-1.46875 -37.5313,-1.46875 -122.7905,0 -222.3437,45.79758 -222.3437,102.28125 0,56.48367 99.5532,102.28125 222.3437,102.28125 25.4922,0 49.9759,-1.99195 72.7813,-5.625 23.4843,6.85221 52.7973,10.9375 84.625,10.9375 22.512,0 43.7626,-2.03968 62.5937,-5.65625 16.287,9.21764 35.7294,14.5625 56.5938,14.5625 48.0696,0 88.4925,-28.41543 100.4375,-67.03125 15.732,4.20588 33.2024,6.5625 51.625,6.5625 68.7627,0 124.5,-32.66219 124.5,-72.9375 0,-37.833 -49.1942,-68.92929 -112.1563,-72.5625 -2.0552,-31.8327 -46.1838,-57.28125 -100.375,-57.28125 -9.8516,0 -19.3784,0.8708 -28.375,2.4375 -24.4394,-26.82469 -73.06,-45.125 -129.0624,-45.125 z"
       id="path3720" />
  </g>
  <g
     inkscape:groupmode="layer"
     id="layer3"
     inkscape:label="Slug and text"
     style="display:inline"
     sodipodi:insensitive="true">
    <path
       style="fill:#ffffff;fill-opacity:1;fill-rule:evenodd;stroke:none"
       d="m 225.21875,90 c -24.00293,-0.0895 -47.38776,7.161648 -69.0625,25.8125 -27.42102,23.59546 -38.74633,49.90338 -32.53125,90.3125 5.41399,35.20062 29.29329,54.749 70.5,68.71875 34.61015,11.7334 37.74993,-14.61705 85.53125,8.375 47.78132,22.99204 62.51758,23.99627 98.6875,91.75 38.93622,72.93559 51.10976,175.98809 48.5,204.40625 -2.60976,28.41815 -24.78341,-70.76341 -58.9375,-90.71875 -34.15409,-19.95535 -54.52327,-12.14774 -77.6875,10.90625 -23.16421,23.05404 -17.90055,48.69965 -2.9375,73 14.9631,24.30034 44.08336,20.22426 74.71875,62.125 30.63539,41.9007 15.59179,52.26255 35.78125,113.78125 20.18945,61.5187 24.62727,46.0566 33.0625,94.375 8.43522,48.3184 -8.45389,57.2719 25.5625,135 34.01637,77.72815 51.83899,63.68665 110.5,175.90625 58.66102,112.2196 45.41598,135.5282 99.25,236.875 53.83401,101.3467 44.88926,84.4479 115.1875,162.0312 70.29823,77.584 85.71411,105.1373 166.03125,148.3126 80.3173,43.174 80.6073,10.1277 156.125,30.875 75.5177,20.7467 82.174,44.5468 145.9375,52.0937 63.7635,7.5469 61.2886,-21.7886 109.125,-21.9063 47.8364,-0.1168 31.3736,23.6269 82.2187,21.4376 50.846,-2.1902 42.3471,-27.4025 121.1563,-30.2188 78.8092,-2.8164 88.9397,22.1839 194.0937,18.9688 105.1549,-3.2163 125.9489,-7.7872 226.5313,-31.8126 100.5824,-24.0242 71.9895,-51.3564 175.7813,-64.2812 1.5353,-0.1912 2.8252,-0.3471 4.3124,-0.5312 l 153.5313,0 c 20.7786,3.2289 46.6157,7.5546 81.5313,13.0937 143.4537,22.7579 148.456,58.3832 334.4374,78.4687 185.982,20.0868 182.754,20.5154 409.5,1.875 226.7464,-18.6396 296.79,-25.1512 497.5,-76.4374 200.7104,-51.2868 164.2241,-64.318 305.3438,-128.6876 141.1198,-64.369 138.5486,-41.4066 222.0938,-110.4062 62.5883,-51.6916 79.46,-67.2626 149.0937,-113.3438 54.0463,-35.7648 55.3424,-40.7643 62.125,-74.7187 6.7827,-33.9544 -15.6331,-29.1576 -34.9687,-61.0937 -19.3357,-31.9373 -2.8895,-55.6965 -128.3438,-67.7813 -32.2481,-3.1064 -57.6544,-4.1894 -80.6562,-3.6875 l 0,-179.1875 -160,0 0,154.8437 -27.6563,-7.4062 0,42.4688 -62.4687,-57.3126 0,-19.5937 -69.4688,0 4.5312,16.9063 -10.0937,0 -40.2187,92.5937 0,21.7187 c -4.3914,1.7711 -8.4865,3.54 -12.375,5.2813 l 0,-19.5937 -24.3438,0 0,-161.8438 -105.5625,-19.8125 -0.8125,30.4687 -22.375,0 -23.375,0 -16.2812,0 -5.4688,14.2813 -9.2188,0 0,-90.71875 -37.3124,-17.3125 -75.0626,0 -27.4062,20 0,74.03125 c -13.4377,-1.9186 -27.2311,-2.8747 -41.375,-2.875 -12.2795,10e-5 -24.3274,0.6067 -36.1562,1.7813 L 3313.8125,976.15625 3294,1037.375 c -12.1725,2.6106 -24.0685,5.8945 -35.6562,9.8438 l 0,-15.1563 -15.0313,3.9063 0,-164.3438 -17.125,4.34375 -12.5937,-12.375 0,-80 -84.7188,0 0,-122.46875 -1.25,0 0,-15.0625 -7,0 0,15.0625 -22.75,0 4.5938,-21.25 -42.6876,-42.6875 0,-18.5625 -7,0 0,18.15625 -42.0624,41.84375 8.0312,29.90625 -28.875,0 0,-22.46875 -7.1875,0 0,22.46875 -5.1563,0 0,374.24995 -46.1874,0 0,-304.1562 -150.125,0 0,272.4062 -17.5313,0 0,-107.43745 -55.25,0 0,-415.875 -20.2187,5.5625 5.375,-9.6875 -107.2188,0 0,154.84375 -20.2188,0 0,12.5625 -12.9687,0 0,184.5625 -17.125,-4.34375 0,19.78125 -32.375,0 0,191.4688 c -1.8341,0.094 -3.6618,0.197 -5.4687,0.3124 l -39.6563,0 c -15.6389,-236.29692 -10.9878,-492.31326 25.125,-634.06245 l 33,0 22.4687,-12.5625 -24.9374,0 15.0312,-32.375 40.4375,0 2.0625,-7.625 -33,0 0,-14.625 -16.9062,4.53125 0,-22.5 -22.6876,0 -51.5624,-25.125 -3.2813,-12.375 20,-15.28125 -17.5313,-4.71875 0,-4.96875 -30.7187,0 0,-15.03125 -5.9687,0 0,-92.375 -7.4063,0 0,92.375 -6,0 0,15.03125 -30.5313,0 0,4.96875 -17.7187,4.71875 20.1875,15.28125 -3.2812,12.375 -51.75,25.125 -22.2813,0 0,22.5 -17.125,-4.53125 0,14.625 -32.9687,0 1.8437,7.625 40.625,0 14.8437,32.375 -24.9374,0 22.4687,12.5625 30.0937,0 c 19.1605,71.96101 32.5209,150.19788 39.375,234.875 l -124.3124,0 0,120 -37.5313,0 0,145.5625 -62.0625,0 4.5312,17.125 L 2117.0938,897 l 0,-15.875 -7.0313,0 0,15.03125 -76.4687,0 0,-148.03125 -24.125,0 9.0624,-33.625 -26.8124,0 -13.1876,-22.25 -48.0624,0 -16.9063,28.875 -19.7813,0 0,22.46875 -20.2187,35.03125 -42.25,0 0,22.5 -37.75,0 0,57.53125 -15.0313,0 0,-67.4375 -164.9687,0 0,120 -20,0 0,-357.53125 c -37.2134,-14.62679 -73.0884,-29.40015 -188.25,-37.53125 l 0,49.90625 -28.0313,-7.625 0,473.9687 -18.7812,0 0,-16.8437 -29.2812,0 L 1310.875,997 l -17.7188,4.5312 -4.5312,16.9063 -17.3438,-4.75 0,-22.46875 -6.7812,0 0,-15.0625 -7.2188,0 0,15.0625 -15.2812,0 0,-17.53125 -7,0 0,17.53125 -3.9062,0 0,57.31245 -5.1563,0 c -6.6831,-2.1197 -13.656,-4.2386 -21,-6.3437 -0.2377,-0.068 -0.4176,-0.1508 -0.6563,-0.2187 l 0,0.031 c -0.2079,-0.065 -0.4166,-0.1227 -0.625,-0.1875 l 0,-253.6875 -80.4062,0 -4.75,-17.125 -57.3125,0 0,20.21875 -47.625,0 0,180.96875 c -3.5014,-1.38732 -7.1074,-3.06206 -10.8437,-5.0625 -46.39075,-24.8374 -45.68735,-31.53685 -49.75005,-72.21875 -4.0627,-40.682 17.2888,-76.66385 3.0625,-119.21875 -14.2263,-42.5549 -57.06975,-6.8544 -59.96875,-51 -2.899,-44.1455 2.6732,-51.52208 48.375,-125.59375 45.7017,-74.07166 69.7995,-102.20719 134.4375,-170.6875 64.638,-68.4803 72.7699,-81.1563 124.125,-103.21875 51.355,-22.06245 53.6199,10.76959 91.375,7.4375 35.9083,-3.1691 50.4667,-23.35743 61.6875,-52.8125 8.0199,-21.05272 7.4216,-63.1827 -10.0313,-87.09375 -16.4676,-22.56211 -40.5257,-29.56535 -70.0312,-32.1875 -29.5054,-2.62215 -50.6946,17.6961 -71.75,32.46875 -79.8558,54.11631 -146.2869,98.08573 -266.625,169.4375 -120.33814,71.35176 -149.71262,73.8339 -214.75,115.96875 -65.03738,42.13485 -26.26769,71.34445 -56.53125,67.34375 -30.26357,-4.00071 -22.56485,-31.47913 -64.5,-83.34375 -41.93514,-51.86463 -26.88105,-73.78255 -92.125,-138.875 -65.24395,-65.09244 -103.72663,-64.9304 -168.875,-121.5 C 288.3148,156.41935 301.55224,127.70839 273.4375,106.46875 259.75486,96.13203 237.79171,90.046882 225.21875,90 z m 2123.21875,318.71875 32.7813,0 0,232.8125 c -5.9195,-73.88245 -16.6097,-151.25489 -32.7813,-232.8125 z m 75.25,0 37.5313,0 C 2449.36,470.30069 2441.5514,538.30749 2436.875,608.75 l -13.1875,0.8125 0,-200.84375 z m 9.5,273.84375 c -4.3523,121.87483 -0.4065,247.65336 8.0625,360.2187 l -2.125,0 -4.9062,0 c -9.1735,-111.25829 -9.1305,-231.62746 -1.0313,-360.2187 z m -604.1563,370.0937 26,0 0,187.9063 -24.25,0 c -16.741,-54.8397 -40.1388,-95.2413 -70.1562,-121.2187 -29.4408,-25.9764 -61.7559,-38.9682 -96.9688,-38.9688 -29.4406,6e-4 -52.8072,7.7894 -70.125,23.375 -16.7408,15.5867 -25.1251,36.6651 -25.125,63.2188 -10e-5,20.7819 6.0649,38.0835 18.1876,51.9374 12.6996,13.2776 36.3639,28.5888 71,45.9063 l 127.2812,63.2187 c 27.7083,13.8547 50.5106,35.4973 68.4062,64.9376 17.8948,29.4407 26.8434,60.3296 26.8438,92.6562 -4e-4,54.263 -19.9192,98.4102 -59.75,132.4688 -39.2543,33.4813 -90.9239,50.2187 -155,50.2187 -31.1725,0 -62.3279,-4.9053 -93.5,-14.7187 -30.5951,-9.8135 -48.7899,-14.7188 -54.5625,-14.7188 -12.6999,0 -21.3507,9.8105 -25.9687,29.4375 l -25.125,0 0,-213.875 25.125,0 c 30.0176,123.5347 88.9118,185.3125 176.6562,185.3125 33.4811,0 60.029,-8.9485 79.6562,-26.8438 19.6267,-17.8951 29.4372,-41.8571 29.4376,-71.875 -4e-4,-22.5131 -6.6295,-40.9744 -19.9063,-55.4062 -13.2774,-14.4314 -38.9633,-30.6046 -77.0625,-48.5 l -58.0312,-27.7188 c -51.3767,-24.8221 -88.8948,-51.3699 -112.5626,-79.6562 -23.6678,-28.8629 -35.5,-62.3377 -35.5,-100.4375 0,-54.8397 16.7374,-97.8584 50.2188,-129.0313 34.0585,-31.1717 80.5251,-46.7494 139.4062,-46.75 27.7085,6e-4 56.5758,4.9059 86.5938,14.7188 30.0174,9.2368 47.0525,13.8443 51.0938,13.8438 7.504,5e-4 13.2712,-2.0211 17.3124,-6.0626 4.0405,-4.6175 7.4883,-12.4063 10.375,-23.375 z m -707.4687,0.875 c 27.1311,6e-4 52.5193,3.7462 76.1875,11.25 24.2447,6.9278 44.4611,13.8547 60.625,20.7813 16.1629,6.9277 28.5905,10.4068 37.25,10.4063 8.0812,5e-4 15.0081,-2.8831 20.7812,-8.6563 5.7722,-5.7721 11.5394,-16.178 17.3126,-31.1875 l 23.375,0 0,202.625 -21.6563,0 c -15.0094,-32.9037 -28.8632,-58.2918 -41.5625,-76.1875 -12.123,-18.472 -27.403,-35.8048 -45.875,-51.9687 -37.5226,-32.3263 -75.9339,-48.4995 -115.1875,-48.5 -52.5314,5e-4 -92.3376,23.6648 -119.4687,71 -26.55442,46.7588 -39.84399,115.4635 -39.8438,206.0937 -1.9e-4,103.3305 18.75885,178.9622 56.2812,226.875 27.7085,35.7904 67.5459,53.6875 119.5,53.6875 28.8629,0 49.9413,-4.9052 63.2188,-14.7188 13.2766,-10.3907 19.9058,-26.5638 19.9062,-48.5 l 0,-90.9062 c -4e-4,-23.6677 -5.5011,-38.9789 -16.4687,-45.9062 -10.3912,-7.5043 -34.0555,-12.4095 -71,-14.7188 l 0,-21.6562 297,0 0,21.6562 c -32.3274,3.4638 -52.8104,9.8265 -61.4687,19.0625 -8.6596,9.2364 -13.0006,29.4216 -13,60.5937 l 0,109.9688 c -27.7093,16.1634 -63.2057,29.1553 -106.5,38.9688 -43.2953,9.8134 -87.4425,14.7187 -132.4688,14.7187 -90.6308,0 -164.80497,-28.0053 -222.53125,-84 -57.14925,-56.5718 -85.75003,-129.5863 -85.75,-219.0625 -3e-5,-88.8984 28.60075,-163.0725 85.75,-222.5312 57.72628,-59.4577 129.58105,-89.187 215.59375,-89.1876 z m 2245.9375,0 c 27.1311,6e-4 52.5193,3.7462 76.1875,11.25 24.2447,6.9278 44.4611,13.8547 60.625,20.7813 16.1629,6.9277 28.5593,10.4068 37.2187,10.4063 8.0812,5e-4 15.0081,-2.8831 20.7813,-8.6563 5.7721,-5.7721 11.5393,-16.178 17.3125,-31.1875 l 23.375,0 0,202.625 -21.625,0 c -15.0094,-32.9037 -28.8632,-58.2918 -41.5625,-76.1875 -12.123,-18.472 -27.4343,-35.8048 -45.9063,-51.9687 -37.5226,-32.3263 -75.9026,-48.4995 -115.1562,-48.5 -52.5314,5e-4 -92.3688,23.6648 -119.5,71 -26.5544,46.7588 -39.8439,115.4635 -39.8438,206.0937 -10e-5,103.3305 18.7589,178.9622 56.2813,226.875 27.7084,35.7904 67.5459,53.6875 119.5,53.6875 28.8628,0 49.9413,-4.9052 63.2187,-14.7188 13.2767,-10.3907 19.9059,-26.5638 19.9063,-48.5 l 0,-90.9062 c -4e-4,-23.6677 -5.4699,-38.9789 -16.4375,-45.9062 -10.3912,-7.5043 -34.0555,-12.4095 -71,-14.7188 l 0,-21.6562 297,0 0,21.6562 c -32.3274,3.4638 -52.8416,9.8265 -61.5,19.0625 -8.6596,9.2364 -12.9693,29.4216 -12.9688,60.5937 l 0,109.9688 c -27.7092,16.1634 -63.2056,29.1553 -106.5,38.9688 -43.2952,9.8134 -87.4737,14.7187 -132.5,14.7187 -90.6307,0 -164.8049,-28.0053 -222.5312,-84 -57.1493,-56.5718 -85.7188,-129.5863 -85.7188,-219.0625 0,-88.8984 28.5695,-163.0725 85.7188,-222.5312 57.7263,-59.4577 129.6123,-89.187 215.625,-89.1876 z m -1469.5625,13 302.2187,0 0,21.625 c -37.5224,1.7324 -61.4844,7.4996 -71.875,17.3126 -10.3909,9.2367 -15.5939,30.0487 -15.5937,62.375 l 0,408.6874 c -2e-4,18.4726 4.905,31.1667 14.7187,38.0938 9.8133,6.9272 28.0081,10.4063 54.5626,10.4062 27.1311,1e-4 51.6573,-2.8835 73.5937,-8.6562 22.5129,-6.3499 40.9742,-14.17 55.4063,-23.4062 14.4311,-9.8135 27.423,-20.7524 38.9687,-32.875 12.1221,-12.1225 21.3684,-24.5501 27.7187,-37.25 6.3495,-12.6997 12.4144,-24.8296 18.1876,-36.375 6.3493,-12.1224 10.6904,-22.4971 13,-31.1563 l 25.0937,0 -35.5,196.5625 -500.5,0 0,-21.6562 c 31.7495,-4.0409 51.966,-9.8081 60.625,-17.3126 9.2361,-7.5043 13.8437,-22.2201 13.8437,-44.1562 l 0,-419.0938 c 0,-21.9355 -5.1718,-37.2467 -15.5624,-45.9062 -9.8136,-8.6584 -29.4659,-13.8614 -58.9063,-15.5938 l 0,-21.625 z m 541.1875,0 292.6875,0 0,21.625 c -34.6361,1.1551 -57.4385,6.6559 -68.4063,16.4688 -10.3909,9.2368 -15.5939,30.3152 -15.5937,63.2188 l 0,289.1874 c -2e-4,58.8812 10.108,101.9 30.3125,129.0313 20.204,26.5542 52.5191,39.8125 96.9688,39.8125 51.3761,0 89.4896,-15.2799 114.3124,-45.875 24.8219,-30.5949 37.2183,-77.9235 37.2188,-142 l 0,-264.125 c -5e-4,-31.749 -5.7677,-53.0939 -17.3125,-64.0625 -10.9685,-11.5447 -33.4731,-18.7694 -67.5313,-21.6563 l 0,-21.625 190.5,0 0,21.625 c -27.7092,4.0415 -45.904,10.9684 -54.5624,20.7813 -8.6596,9.814 -12.9693,27.4446 -12.9688,52.8437 l 0,276.2188 c -5e-4,153.5524 -74.4725,230.3125 -223.4062,230.3125 -64.6539,0 -118.0474,-15.28 -160.1876,-45.875 -26.5542,-19.0497 -45.0468,-40.7236 -55.4374,-64.9687 -10.3909,-24.245 -15.5939,-57.7198 -15.5938,-100.4376 l 0,-289.1874 c -1e-4,-31.1718 -4.3099,-51.3883 -12.9688,-60.625 -8.0817,-9.813 -27.4362,-16.1757 -58.0312,-19.0626 l 0,-21.625 z"
       id="path3648" />
    <text
       transform="translate(-123.94137,-376.11302)"
       id="text3666"
       y="2386.9431"
       x="521.40857"
       style="font-size:272.67282104px;font-style:normal;font-weight:normal;fill:#ffffff;fill-opacity:1;stroke:none;font-family:Bitstream Vera Sans"
       xml:space="preserve"><tspan
         style="fill:#ffffff;fill-opacity:1;font-family:FreeSerif"
         y="2386.9431"
         x="521.40857"
         id="tspan3668"
         sodipodi:role="line">Greater Seattle Linux Users Group</tspan></text>
    <g
       style="fill:#ffffff;fill-opacity:0;stroke:none;display:inline"
       transform="matrix(4.7447503,0,0,4.7447503,229.05102,-642.31611)"
       id="g3758">
      <text
         xml:space="preserve"
         style="font-size:30.41596222px;font-style:normal;font-weight:normal;fill:#ffffff;fill-opacity:0;stroke:none;font-family:Bitstream Vera Sans"
         x="117.84486"
         y="483.51981"
         id="text3760"><tspan
           sodipodi:role="line"
           id="tspan3762"
           x="117.84486"
           y="483.51981"
           style="font-size:182.49577332px;font-weight:bold;fill:#ffffff;fill-opacity:0;stroke:none;font-family:FreeSerif">GSLUG</tspan></text>
      <text
         id="text3764"
         y="483.51981"
         x="117.84486"
         style="font-size:30.41596222px;font-style:normal;font-weight:normal;fill:#ffffff;fill-opacity:0;stroke:none;font-family:Bitstream Vera Sans"
         xml:space="preserve"><tspan
           style="font-size:182.49577332px;font-weight:bold;fill:#ffffff;fill-opacity:0;stroke:none;font-family:FreeSerif"
           y="483.51981"
           x="117.84486"
           id="tspan3766"
           sodipodi:role="line">GSLUG</tspan></text>
    </g>
  </g>
</svg>
