<?xml version="1.0" encoding="UTF-8" standalone="no"?>
<!-- Created with Inkscape (http://www.inkscape.org/) -->

<svg
   xmlns:dc="http://purl.org/dc/elements/1.1/"
   xmlns:cc="http://creativecommons.org/ns#"
   xmlns:rdf="http://www.w3.org/1999/02/22-rdf-syntax-ns#"
   xmlns:svg="http://www.w3.org/2000/svg"
   xmlns="http://www.w3.org/2000/svg"
   xmlns:sodipodi="http://sodipodi.sourceforge.net/DTD/sodipodi-0.dtd"
   xmlns:inkscape="http://www.inkscape.org/namespaces/inkscape"
   width="4500"
   height="2160"
   id="svg2398"
   sodipodi:version="0.32"
   inkscape:version="0.47pre4 r22446"
   version="1.0"
   sodipodi:docname="banner.pdf"
   inkscape:output_extension="org.inkscape.output.svg.inkscape"
   inkscape:export-xdpi="10"
   inkscape:export-ydpi="10"
   style="display:inline">
  <defs
     id="defs2400">
    <linearGradient
       id="linearGradient3659">
      <stop
         style="stop-color:#68b817;stop-opacity:0;"
         offset="0"
         id="stop3661" />
      <stop
         style="stop-color:#e16b50;stop-opacity:1;"
         offset="1"
         id="stop3663" />
    </linearGradient>
    <linearGradient
       id="linearGradient3783">
      <stop
         style="stop-color:#1b081f;stop-opacity:1;"
         offset="0"
         id="stop3785" />
      <stop
         style="stop-color:#481e31;stop-opacity:1;"
         offset="1"
         id="stop3787" />
    </linearGradient>
    <linearGradient
       id="linearGradient3773">
      <stop
         style="stop-color:#ffffff;stop-opacity:0.2173913;"
         offset="0"
         id="stop3775" />
      <stop
         style="stop-color:#ffffff;stop-opacity:0.63095236;"
         offset="1"
         id="stop3777" />
    </linearGradient>
    <inkscape:perspective
       sodipodi:type="inkscape:persp3d"
       inkscape:vp_x="0 : 526.18109 : 1"
       inkscape:vp_y="0 : 1000 : 0"
       inkscape:vp_z="744.09448 : 526.18109 : 1"
       inkscape:persp3d-origin="372.04724 : 350.78739 : 1"
       id="perspective2406" />
    <inkscape:perspective
       id="perspective2431"
       inkscape:persp3d-origin="332.67499 : 106.69667 : 1"
       inkscape:vp_z="665.34998 : 160.045 : 1"
       inkscape:vp_y="0 : 1000 : 0"
       inkscape:vp_x="0 : 160.045 : 1"
       sodipodi:type="inkscape:persp3d" />
    <inkscape:perspective
       id="perspective3752"
       inkscape:persp3d-origin="0.5 : 0.33333333 : 1"
       inkscape:vp_z="1 : 0.5 : 1"
       inkscape:vp_y="0 : 1000 : 0"
       inkscape:vp_x="0 : 0.5 : 1"
       sodipodi:type="inkscape:persp3d" />
    <inkscape:perspective
       id="perspective2877"
       inkscape:persp3d-origin="0.5 : 0.33333333 : 1"
       inkscape:vp_z="1 : 0.5 : 1"
       inkscape:vp_y="0 : 1000 : 0"
       inkscape:vp_x="0 : 0.5 : 1"
       sodipodi:type="inkscape:persp3d" />
    <inkscape:perspective
       id="perspective3679"
       inkscape:persp3d-origin="0.5 : 0.33333333 : 1"
       inkscape:vp_z="1 : 0.5 : 1"
       inkscape:vp_y="0 : 1000 : 0"
       inkscape:vp_x="0 : 0.5 : 1"
       sodipodi:type="inkscape:persp3d" />
    <inkscape:perspective
       id="perspective3657"
       inkscape:persp3d-origin="0.5 : 0.33333333 : 1"
       inkscape:vp_z="1 : 0.5 : 1"
       inkscape:vp_y="0 : 1000 : 0"
       inkscape:vp_x="0 : 0.5 : 1"
       sodipodi:type="inkscape:persp3d" />
  </defs>
  <sodipodi:namedview
     id="base"
     pagecolor="#ffffff"
     bordercolor="#666666"
     borderopacity="1.0"
     gridtolerance="10000"
     guidetolerance="10"
     objecttolerance="10"
     inkscape:pageopacity="0.0"
     inkscape:pageshadow="2"
     inkscape:zoom="0.28111111"
     inkscape:cx="2250"
     inkscape:cy="1080"
     inkscape:document-units="px"
     inkscape:current-layer="layer1"
     showgrid="false"
     units="in"
     inkscape:window-width="1364"
     inkscape:window-height="1100"
     inkscape:window-x="682"
     inkscape:window-y="25"
     inkscape:window-maximized="0"
     borderlayer="false" />
  <metadata
     id="metadata2403">
    <rdf:RDF>
      <cc:Work
         rdf:about="">
        <dc:format>image/svg+xml</dc:format>
        <dc:type
           rdf:resource="http://purl.org/dc/dcmitype/StillImage" />
        <dc:title></dc:title>
      </cc:Work>
    </rdf:RDF>
  </metadata>
  <g
     inkscape:groupmode="layer"
     id="layer5"
     inkscape:label="Background"
     style="display:inline"
     sodipodi:insensitive="true">
    <rect
       style="fill:#3589d1;fill-opacity:1;stroke:none"
       id="rect2853"
       width="4500"
       height="2160"
       x="0"
       y="-1.5258789e-05" />
  </g>
  <g
     inkscape:groupmode="layer"
     id="layer1"
     inkscape:label="Clouds"
     style="opacity:1">
    <path
       style="fill:#ffffff;fill-opacity:0.65490198;stroke:none"
       d="M 631.4375 135.875 C 574.30431 135.875 526.02707 168.49097 510.4375 213.21875 C 485.72193 198.38755 451.83465 189.25 414.4375 189.25 C 338.7985 189.25 277.46875 226.67449 277.46875 272.84375 C 277.46875 274.6467 277.56578 276.44417 277.75 278.21875 C 243.80801 288.53771 218.16143 309.13783 209.5 334.15625 C 199.47704 332.46438 188.87281 331.53125 177.875 331.53125 C 116.97087 331.53125 67.59375 359.39989 67.59375 393.78125 C 67.59375 428.16261 116.97087 456.0625 177.875 456.0625 C 218.02449 456.0625 253.15155 443.91739 272.4375 425.8125 C 288.9004 431.48865 307.5363 434.71875 327.28125 434.71875 C 346.851 434.71875 365.33247 431.55094 381.6875 425.96875 C 406.97628 452.61741 451.2295 470.28125 501.59375 470.28125 C 550.15098 470.28125 593.01001 453.87254 618.6875 428.8125 C 630.20074 430.34549 642.19531 431.15625 654.53125 431.15625 C 686.32036 431.15625 715.90246 425.75138 740.59375 416.5 C 743.8813 416.7669 747.22337 416.90625 750.59375 416.90625 C 765.60603 416.90625 779.88319 414.21476 792.75 409.34375 C 808.55167 414.12404 827.72251 416.90625 848.40625 416.90625 C 902.43411 416.90625 946.25 397.79454 946.25 374.21875 C 946.25 351.42136 905.27417 332.79868 853.71875 331.59375 C 853.73382 330.98048 853.75 330.36632 853.75 329.75 C 853.75 283.63042 811.35353 245.89151 757.6875 242.8125 C 756.70696 183.61694 700.57035 135.875 631.4375 135.875 z "
       id="path3627" />
    <path
       style="fill:#ffffff;fill-opacity:0.65490198;stroke:none"
       d="M 1545.6562 338.65625 C 1518.4748 338.65625 1494.3304 349.1618 1479.0625 365.40625 C 1467.6232 361.96886 1454.5777 360 1440.7188 360 C 1395.5318 360 1358.9062 380.70956 1358.9062 406.25 C 1358.9062 407.00639 1358.9365 407.7525 1359 408.5 C 1333.9051 413.99132 1314.7672 428.95448 1310.1562 447.40625 C 1299.0003 443.85791 1285.848 441.8125 1271.75 441.8125 C 1231.4747 441.8125 1198.8125 458.52743 1198.8125 479.15625 C 1198.8125 499.78507 1231.4747 516.53125 1271.75 516.53125 C 1300.4511 516.53125 1325.2562 508.03397 1337.1562 495.6875 C 1349.113 502.06411 1364.0584 505.84375 1380.25 505.84375 C 1395.1785 505.84375 1409.0269 502.62478 1420.4688 497.125 C 1441.1036 504.76942 1468.0782 509.40625 1497.625 509.40625 C 1539.5479 509.40625 1576.3273 500.08805 1597.0938 486.0625 C 1599.55 486.49306 1602.0438 486.86208 1604.5938 487.15625 C 1607.3641 503.5978 1635.6453 516.53125 1670.1562 516.53125 C 1706.5023 516.53125 1735.9688 502.18184 1735.9688 484.5 C 1735.9688 471.458 1719.9352 460.2407 1696.9375 455.25 C 1699.1702 450.99652 1700.4062 446.48731 1700.4062 441.8125 C 1700.4062 417.8132 1668.7442 398.10611 1628.25 395.8125 C 1622.052 363.43189 1587.4422 338.65625 1545.6562 338.65625 z "
       id="path3645" />
    <path
       style="fill:#ffffff;fill-opacity:0.65490198;stroke:none"
       d="M 1972.5312 118.09375 C 1920.468 118.09375 1878.25 138.80331 1878.25 164.34375 C 1878.25 169.90416 1880.2392 175.24926 1883.9062 180.1875 C 1878.7973 182.28693 1874.0875 184.60124 1869.875 187.125 C 1859.8148 181.79858 1846.5708 178.5625 1832.0312 178.5625 C 1800.5969 178.5625 1775.0938 193.71083 1775.0938 212.375 C 1775.0938 231.03917 1800.5969 246.15625 1832.0312 246.15625 C 1841.2186 246.15625 1849.8796 244.88915 1857.5625 242.59375 C 1875.1002 259.47441 1911.224 271.0625 1952.9688 271.0625 C 1993.5401 271.0625 2028.8235 260.11197 2046.875 244 C 2060.8031 247.62072 2077.4012 249.71875 2095.25 249.71875 C 2144.3662 249.71875 2184.1875 233.80274 2184.1875 214.15625 C 2184.1875 199.48998 2161.9947 186.91091 2130.3125 181.46875 C 2130.6471 179.93918 2130.8438 178.40037 2130.8438 176.8125 C 2130.8438 158.14833 2106.9385 143 2077.4688 143 C 2070.7385 143 2064.3051 143.80982 2058.375 145.25 C 2043.5523 129.24226 2010.7064 118.09375 1972.5312 118.09375 z "
       id="path3667" />
    <path
       style="fill:#ffffff;fill-opacity:0.65490198;stroke:none"
       d="M 2851.1875 249.71875 C 2797.1596 249.71875 2753.375 270.42831 2753.375 295.96875 C 2753.375 302.8964 2756.6002 309.47559 2762.375 315.375 C 2706.0013 320.80422 2664.4375 339.50648 2664.4375 361.78125 C 2664.4375 388.30402 2723.3705 409.8125 2796.0625 409.8125 C 2833.6193 409.8125 2867.4574 404.04971 2891.4375 394.84375 C 2905.029 397.57466 2920.3481 399.125 2936.5625 399.125 C 2949.9333 399.125 2962.687 398.08518 2974.375 396.1875 C 2989.5789 402.50284 3008.5278 406.25 3029.0625 406.25 C 3079.1611 406.25 3119.75 383.94259 3119.75 356.4375 C 3119.75 331.57113 3086.5754 310.97558 3043.1875 307.25 C 3035.4109 286.55034 3004.1839 271.0625 2966.8125 271.0625 C 2956.5212 271.0625 2946.6884 272.24161 2937.6875 274.375 C 2921.2749 259.72254 2888.7024 249.71875 2851.1875 249.71875 z "
       id="path3677" />
    <path
       style="fill:#ffffff;fill-opacity:0.65490198;stroke:none"
       d="M 3786.75 93.1875 C 3729.2592 93.1875 3681.5867 113.22209 3672.6562 139.4375 C 3597.147 139.51663 3535.9688 171.34965 3535.9688 210.59375 C 3535.9688 215.79611 3537.0531 220.86513 3539.0938 225.75 C 3534.6196 225.15291 3529.9978 224.8125 3525.2812 224.8125 C 3484.0236 224.8125 3450.5938 248.71776 3450.5938 278.1875 C 3450.5938 307.65724 3484.0236 331.53125 3525.2812 331.53125 C 3535.9363 331.53125 3546.0785 329.93386 3555.25 327.0625 C 3578.1411 338.66136 3608.8691 345.78125 3642.6875 345.78125 C 3675.7202 345.78125 3705.8175 338.99888 3728.5312 327.875 C 3742.2467 334.64528 3759.3477 338.65625 3777.875 338.65625 C 3799.988 338.65625 3820.0251 332.92147 3834.75 323.625 C 3853.6566 330.83418 3877.0552 335.09375 3902.375 335.09375 C 3938.8813 335.09375 3971.3566 326.24683 3992.1875 312.46875 C 4009.2253 319.98317 4030.4909 324.4375 4053.5625 324.4375 C 4109.555 324.4375 4154.9375 298.13546 4154.9375 265.71875 C 4154.9375 233.30204 4109.555 207.03125 4053.5625 207.03125 C 4047.6895 207.03125 4041.9433 207.35127 4036.3438 207.90625 C 4037.1457 205.29616 4037.5625 202.61742 4037.5625 199.90625 C 4037.5625 168.47186 3981.794 143 3913.0312 143 C 3909.2655 143 3905.5557 143.10035 3901.875 143.25 C 3896.4968 115.18004 3847.0087 93.1875 3786.75 93.1875 z "
       id="path3781" />
    <path
       style="fill:#ffffff;fill-opacity:0.65490198;stroke:none"
       d="M 4135.375 360 C 4088.3948 360 4049.4396 380.10596 4042.2812 406.40625 C 3987.9333 408.28399 3945.0625 429.79116 3945.0625 456.0625 C 3945.0625 483.56759 3992.0428 505.84375 4050 505.84375 C 4082.6355 505.84375 4111.7842 498.77623 4131.0312 487.6875 C 4148.6499 500.95784 4175.131 509.40625 4204.75 509.40625 C 4241.834 509.40625 4273.9632 496.15641 4289.9688 476.78125 C 4293.4935 477.16949 4297.0965 477.40625 4300.7812 477.40625 C 4338.1096 477.40625 4368.375 456.69669 4368.375 431.15625 C 4368.375 405.61581 4338.1096 384.90625 4300.7812 384.90625 C 4282.991 384.90625 4266.8189 389.59352 4254.75 397.28125 C 4243.9025 393.10996 4231.6202 390.27875 4218.5 389.09375 C 4202.6066 371.77013 4171.3403 360 4135.375 360 z "
       id="path3809" />
  </g>
  <g
     inkscape:groupmode="layer"
     id="layer3"
     inkscape:label="Slug and text"
     style="display:inline"
     sodipodi:insensitive="true">
    <path
       style="fill:#ffffff;fill-opacity:1;fill-rule:evenodd;stroke:none"
       d="m 225.21875,90 c -24.00293,-0.0895 -47.38776,7.161648 -69.0625,25.8125 -27.42102,23.59546 -38.74633,49.90338 -32.53125,90.3125 5.41399,35.20062 29.29329,54.749 70.5,68.71875 34.61015,11.7334 37.74993,-14.61705 85.53125,8.375 47.78132,22.99204 62.51758,23.99627 98.6875,91.75 38.93622,72.93559 51.10976,175.98809 48.5,204.40625 -2.60976,28.41815 -24.78341,-70.76341 -58.9375,-90.71875 -34.15409,-19.95535 -54.52327,-12.14774 -77.6875,10.90625 -23.16421,23.05404 -17.90055,48.69965 -2.9375,73 14.9631,24.30034 44.08336,20.22426 74.71875,62.125 30.63539,41.9007 15.59179,52.26255 35.78125,113.78125 20.18945,61.5187 24.62727,46.0566 33.0625,94.375 8.43522,48.3184 -8.45389,57.2719 25.5625,135 34.01637,77.72815 51.83899,63.68665 110.5,175.90625 58.66102,112.2196 45.41598,135.5282 99.25,236.875 53.83401,101.3467 44.88926,84.4479 115.1875,162.0312 70.29823,77.584 85.71411,105.1373 166.03125,148.3126 80.3173,43.174 80.6073,10.1277 156.125,30.875 75.5177,20.7467 82.174,44.5468 145.9375,52.0937 63.7635,7.5469 61.2886,-21.7886 109.125,-21.9063 47.8364,-0.1168 31.3736,23.6269 82.2187,21.4376 50.846,-2.1902 42.3471,-27.4025 121.1563,-30.2188 78.8092,-2.8164 88.9397,22.1839 194.0937,18.9688 105.1549,-3.2163 125.9489,-7.7872 226.5313,-31.8126 100.5824,-24.0242 71.9895,-51.3564 175.7813,-64.2812 1.5353,-0.1912 2.8252,-0.3471 4.3124,-0.5312 l 153.5313,0 c 20.7786,3.2289 46.6157,7.5546 81.5313,13.0937 143.4537,22.7579 148.456,58.3832 334.4374,78.4687 185.982,20.0868 182.754,20.5154 409.5,1.875 226.7464,-18.6396 296.79,-25.1512 497.5,-76.4374 200.7104,-51.2868 164.2241,-64.318 305.3438,-128.6876 141.1198,-64.369 138.5486,-41.4066 222.0938,-110.4062 62.5883,-51.6916 79.46,-67.2626 149.0937,-113.3438 54.0463,-35.7648 55.3424,-40.7643 62.125,-74.7187 6.7827,-33.9544 -15.6331,-29.1576 -34.9687,-61.0937 -19.3357,-31.9373 -2.8895,-55.6965 -128.3438,-67.7813 -32.2481,-3.1064 -57.6544,-4.1894 -80.6562,-3.6875 l 0,-179.1875 -160,0 0,154.8437 -27.6563,-7.4062 0,42.4688 -62.4687,-57.3126 0,-19.5937 -69.4688,0 4.5312,16.9063 -10.0937,0 -40.2187,92.5937 0,21.7187 c -4.3914,1.7711 -8.4865,3.54 -12.375,5.2813 l 0,-19.5937 -24.3438,0 0,-161.8438 -105.5625,-19.8125 -0.8125,30.4687 -22.375,0 -23.375,0 -16.2812,0 -5.4688,14.2813 -9.2188,0 0,-90.71875 -37.3124,-17.3125 -75.0626,0 -27.4062,20 0,74.03125 c -13.4377,-1.9186 -27.2311,-2.8747 -41.375,-2.875 -12.2795,10e-5 -24.3274,0.6067 -36.1562,1.7813 L 3313.8125,976.15625 3294,1037.375 c -12.1725,2.6106 -24.0685,5.8945 -35.6562,9.8438 l 0,-15.1563 -15.0313,3.9063 0,-164.3438 -17.125,4.34375 -12.5937,-12.375 0,-80 -84.7188,0 0,-122.46875 -1.25,0 0,-15.0625 -7,0 0,15.0625 -22.75,0 4.5938,-21.25 -42.6876,-42.6875 0,-18.5625 -7,0 0,18.15625 -42.0624,41.84375 8.0312,29.90625 -28.875,0 0,-22.46875 -7.1875,0 0,22.46875 -5.1563,0 0,374.24995 -46.1874,0 0,-304.1562 -150.125,0 0,272.4062 -17.5313,0 0,-107.43745 -55.25,0 0,-415.875 -20.2187,5.5625 5.375,-9.6875 -107.2188,0 0,154.84375 -20.2188,0 0,12.5625 -12.9687,0 0,184.5625 -17.125,-4.34375 0,19.78125 -32.375,0 0,191.4688 c -1.8341,0.094 -3.6618,0.197 -5.4687,0.3124 l -39.6563,0 c -15.6389,-236.29692 -10.9878,-492.31326 25.125,-634.06245 l 33,0 22.4687,-12.5625 -24.9374,0 15.0312,-32.375 40.4375,0 2.0625,-7.625 -33,0 0,-14.625 -16.9062,4.53125 0,-22.5 -22.6876,0 -51.5624,-25.125 -3.2813,-12.375 20,-15.28125 -17.5313,-4.71875 0,-4.96875 -30.7187,0 0,-15.03125 -5.9687,0 0,-92.375 -7.4063,0 0,92.375 -6,0 0,15.03125 -30.5313,0 0,4.96875 -17.7187,4.71875 20.1875,15.28125 -3.2812,12.375 -51.75,25.125 -22.2813,0 0,22.5 -17.125,-4.53125 0,14.625 -32.9687,0 1.8437,7.625 40.625,0 14.8437,32.375 -24.9374,0 22.4687,12.5625 30.0937,0 c 19.1605,71.96101 32.5209,150.19788 39.375,234.875 l -124.3124,0 0,120 -37.5313,0 0,145.5625 -62.0625,0 4.5312,17.125 L 2117.0938,897 l 0,-15.875 -7.0313,0 0,15.03125 -76.4687,0 0,-148.03125 -24.125,0 9.0624,-33.625 -26.8124,0 -13.1876,-22.25 -48.0624,0 -16.9063,28.875 -19.7813,0 0,22.46875 -20.2187,35.03125 -42.25,0 0,22.5 -37.75,0 0,57.53125 -15.0313,0 0,-67.4375 -164.9687,0 0,120 -20,0 0,-357.53125 c -37.2134,-14.62679 -73.0884,-29.40015 -188.25,-37.53125 l 0,49.90625 -28.0313,-7.625 0,473.9687 -18.7812,0 0,-16.8437 -29.2812,0 L 1310.875,997 l -17.7188,4.5312 -4.5312,16.9063 -17.3438,-4.75 0,-22.46875 -6.7812,0 0,-15.0625 -7.2188,0 0,15.0625 -15.2812,0 0,-17.53125 -7,0 0,17.53125 -3.9062,0 0,57.31245 -5.1563,0 c -6.6831,-2.1197 -13.656,-4.2386 -21,-6.3437 -0.2377,-0.068 -0.4176,-0.1508 -0.6563,-0.2187 l 0,0.031 c -0.2079,-0.065 -0.4166,-0.1227 -0.625,-0.1875 l 0,-253.6875 -80.4062,0 -4.75,-17.125 -57.3125,0 0,20.21875 -47.625,0 0,180.96875 c -3.5014,-1.38732 -7.1074,-3.06206 -10.8437,-5.0625 -46.39075,-24.8374 -45.68735,-31.53685 -49.75005,-72.21875 -4.0627,-40.682 17.2888,-76.66385 3.0625,-119.21875 -14.2263,-42.5549 -57.06975,-6.8544 -59.96875,-51 -2.899,-44.1455 2.6732,-51.52208 48.375,-125.59375 45.7017,-74.07166 69.7995,-102.20719 134.4375,-170.6875 64.638,-68.4803 72.7699,-81.1563 124.125,-103.21875 51.355,-22.06245 53.6199,10.76959 91.375,7.4375 35.9083,-3.1691 50.4667,-23.35743 61.6875,-52.8125 8.0199,-21.05272 7.4216,-63.1827 -10.0313,-87.09375 -16.4676,-22.56211 -40.5257,-29.56535 -70.0312,-32.1875 -29.5054,-2.62215 -50.6946,17.6961 -71.75,32.46875 -79.8558,54.11631 -146.2869,98.08573 -266.625,169.4375 -120.33814,71.35176 -149.71262,73.8339 -214.75,115.96875 -65.03738,42.13485 -26.26769,71.34445 -56.53125,67.34375 -30.26357,-4.00071 -22.56485,-31.47913 -64.5,-83.34375 -41.93514,-51.86463 -26.88105,-73.78255 -92.125,-138.875 -65.24395,-65.09244 -103.72663,-64.9304 -168.875,-121.5 C 288.3148,156.41935 301.55224,127.70839 273.4375,106.46875 259.75486,96.13203 237.79171,90.046882 225.21875,90 z m 2123.21875,318.71875 32.7813,0 0,232.8125 c -5.9195,-73.88245 -16.6097,-151.25489 -32.7813,-232.8125 z m 75.25,0 37.5313,0 C 2449.36,470.30069 2441.5514,538.30749 2436.875,608.75 l -13.1875,0.8125 0,-200.84375 z m 9.5,273.84375 c -4.3523,121.87483 -0.4065,247.65336 8.0625,360.2187 l -2.125,0 -4.9062,0 c -9.1735,-111.25829 -9.1305,-231.62746 -1.0313,-360.2187 z m -604.1563,370.0937 26,0 0,187.9063 -24.25,0 c -16.741,-54.8397 -40.1388,-95.2413 -70.1562,-121.2187 -29.4408,-25.9764 -61.7559,-38.9682 -96.9688,-38.9688 -29.4406,6e-4 -52.8072,7.7894 -70.125,23.375 -16.7408,15.5867 -25.1251,36.6651 -25.125,63.2188 -10e-5,20.7819 6.0649,38.0835 18.1876,51.9374 12.6996,13.2776 36.3639,28.5888 71,45.9063 l 127.2812,63.2187 c 27.7083,13.8547 50.5106,35.4973 68.4062,64.9376 17.8948,29.4407 26.8434,60.3296 26.8438,92.6562 -4e-4,54.263 -19.9192,98.4102 -59.75,132.4688 -39.2543,33.4813 -90.9239,50.2187 -155,50.2187 -31.1725,0 -62.3279,-4.9053 -93.5,-14.7187 -30.5951,-9.8135 -48.7899,-14.7188 -54.5625,-14.7188 -12.6999,0 -21.3507,9.8105 -25.9687,29.4375 l -25.125,0 0,-213.875 25.125,0 c 30.0176,123.5347 88.9118,185.3125 176.6562,185.3125 33.4811,0 60.029,-8.9485 79.6562,-26.8438 19.6267,-17.8951 29.4372,-41.8571 29.4376,-71.875 -4e-4,-22.5131 -6.6295,-40.9744 -19.9063,-55.4062 -13.2774,-14.4314 -38.9633,-30.6046 -77.0625,-48.5 l -58.0312,-27.7188 c -51.3767,-24.8221 -88.8948,-51.3699 -112.5626,-79.6562 -23.6678,-28.8629 -35.5,-62.3377 -35.5,-100.4375 0,-54.8397 16.7374,-97.8584 50.2188,-129.0313 34.0585,-31.1717 80.5251,-46.7494 139.4062,-46.75 27.7085,6e-4 56.5758,4.9059 86.5938,14.7188 30.0174,9.2368 47.0525,13.8443 51.0938,13.8438 7.504,5e-4 13.2712,-2.0211 17.3124,-6.0626 4.0405,-4.6175 7.4883,-12.4063 10.375,-23.375 z m -707.4687,0.875 c 27.1311,6e-4 52.5193,3.7462 76.1875,11.25 24.2447,6.9278 44.4611,13.8547 60.625,20.7813 16.1629,6.9277 28.5905,10.4068 37.25,10.4063 8.0812,5e-4 15.0081,-2.8831 20.7812,-8.6563 5.7722,-5.7721 11.5394,-16.178 17.3126,-31.1875 l 23.375,0 0,202.625 -21.6563,0 c -15.0094,-32.9037 -28.8632,-58.2918 -41.5625,-76.1875 -12.123,-18.472 -27.403,-35.8048 -45.875,-51.9687 -37.5226,-32.3263 -75.9339,-48.4995 -115.1875,-48.5 -52.5314,5e-4 -92.3376,23.6648 -119.4687,71 -26.55442,46.7588 -39.84399,115.4635 -39.8438,206.0937 -1.9e-4,103.3305 18.75885,178.9622 56.2812,226.875 27.7085,35.7904 67.5459,53.6875 119.5,53.6875 28.8629,0 49.9413,-4.9052 63.2188,-14.7188 13.2766,-10.3907 19.9058,-26.5638 19.9062,-48.5 l 0,-90.9062 c -4e-4,-23.6677 -5.5011,-38.9789 -16.4687,-45.9062 -10.3912,-7.5043 -34.0555,-12.4095 -71,-14.7188 l 0,-21.6562 297,0 0,21.6562 c -32.3274,3.4638 -52.8104,9.8265 -61.4687,19.0625 -8.6596,9.2364 -13.0006,29.4216 -13,60.5937 l 0,109.9688 c -27.7093,16.1634 -63.2057,29.1553 -106.5,38.9688 -43.2953,9.8134 -87.4425,14.7187 -132.4688,14.7187 -90.6308,0 -164.80497,-28.0053 -222.53125,-84 -57.14925,-56.5718 -85.75003,-129.5863 -85.75,-219.0625 -3e-5,-88.8984 28.60075,-163.0725 85.75,-222.5312 57.72628,-59.4577 129.58105,-89.187 215.59375,-89.1876 z m 2245.9375,0 c 27.1311,6e-4 52.5193,3.7462 76.1875,11.25 24.2447,6.9278 44.4611,13.8547 60.625,20.7813 16.1629,6.9277 28.5593,10.4068 37.2187,10.4063 8.0812,5e-4 15.0081,-2.8831 20.7813,-8.6563 5.7721,-5.7721 11.5393,-16.178 17.3125,-31.1875 l 23.375,0 0,202.625 -21.625,0 c -15.0094,-32.9037 -28.8632,-58.2918 -41.5625,-76.1875 -12.123,-18.472 -27.4343,-35.8048 -45.9063,-51.9687 -37.5226,-32.3263 -75.9026,-48.4995 -115.1562,-48.5 -52.5314,5e-4 -92.3688,23.6648 -119.5,71 -26.5544,46.7588 -39.8439,115.4635 -39.8438,206.0937 -10e-5,103.3305 18.7589,178.9622 56.2813,226.875 27.7084,35.7904 67.5459,53.6875 119.5,53.6875 28.8628,0 49.9413,-4.9052 63.2187,-14.7188 13.2767,-10.3907 19.9059,-26.5638 19.9063,-48.5 l 0,-90.9062 c -4e-4,-23.6677 -5.4699,-38.9789 -16.4375,-45.9062 -10.3912,-7.5043 -34.0555,-12.4095 -71,-14.7188 l 0,-21.6562 297,0 0,21.6562 c -32.3274,3.4638 -52.8416,9.8265 -61.5,19.0625 -8.6596,9.2364 -12.9693,29.4216 -12.9688,60.5937 l 0,109.9688 c -27.7092,16.1634 -63.2056,29.1553 -106.5,38.9688 -43.2952,9.8134 -87.4737,14.7187 -132.5,14.7187 -90.6307,0 -164.8049,-28.0053 -222.5312,-84 -57.1493,-56.5718 -85.7188,-129.5863 -85.7188,-219.0625 0,-88.8984 28.5695,-163.0725 85.7188,-222.5312 57.7263,-59.4577 129.6123,-89.187 215.625,-89.1876 z m -1469.5625,13 302.2187,0 0,21.625 c -37.5224,1.7324 -61.4844,7.4996 -71.875,17.3126 -10.3909,9.2367 -15.5939,30.0487 -15.5937,62.375 l 0,408.6874 c -2e-4,18.4726 4.905,31.1667 14.7187,38.0938 9.8133,6.9272 28.0081,10.4063 54.5626,10.4062 27.1311,1e-4 51.6573,-2.8835 73.5937,-8.6562 22.5129,-6.3499 40.9742,-14.17 55.4063,-23.4062 14.4311,-9.8135 27.423,-20.7524 38.9687,-32.875 12.1221,-12.1225 21.3684,-24.5501 27.7187,-37.25 6.3495,-12.6997 12.4144,-24.8296 18.1876,-36.375 6.3493,-12.1224 10.6904,-22.4971 13,-31.1563 l 25.0937,0 -35.5,196.5625 -500.5,0 0,-21.6562 c 31.7495,-4.0409 51.966,-9.8081 60.625,-17.3126 9.2361,-7.5043 13.8437,-22.2201 13.8437,-44.1562 l 0,-419.0938 c 0,-21.9355 -5.1718,-37.2467 -15.5624,-45.9062 -9.8136,-8.6584 -29.4659,-13.8614 -58.9063,-15.5938 l 0,-21.625 z m 541.1875,0 292.6875,0 0,21.625 c -34.6361,1.1551 -57.4385,6.6559 -68.4063,16.4688 -10.3909,9.2368 -15.5939,30.3152 -15.5937,63.2188 l 0,289.1874 c -2e-4,58.8812 10.108,101.9 30.3125,129.0313 20.204,26.5542 52.5191,39.8125 96.9688,39.8125 51.3761,0 89.4896,-15.2799 114.3124,-45.875 24.8219,-30.5949 37.2183,-77.9235 37.2188,-142 l 0,-264.125 c -5e-4,-31.749 -5.7677,-53.0939 -17.3125,-64.0625 -10.9685,-11.5447 -33.4731,-18.7694 -67.5313,-21.6563 l 0,-21.625 190.5,0 0,21.625 c -27.7092,4.0415 -45.904,10.9684 -54.5624,20.7813 -8.6596,9.814 -12.9693,27.4446 -12.9688,52.8437 l 0,276.2188 c -5e-4,153.5524 -74.4725,230.3125 -223.4062,230.3125 -64.6539,0 -118.0474,-15.28 -160.1876,-45.875 -26.5542,-19.0497 -45.0468,-40.7236 -55.4374,-64.9687 -10.3909,-24.245 -15.5939,-57.7198 -15.5938,-100.4376 l 0,-289.1874 c -1e-4,-31.1718 -4.3099,-51.3883 -12.9688,-60.625 -8.0817,-9.813 -27.4362,-16.1757 -58.0312,-19.0626 l 0,-21.625 z"
       id="path3648" />
    <text
       transform="translate(-123.94137,-376.11302)"
       id="text3666"
       y="2386.9431"
       x="521.40857"
       style="font-size:272.67282104px;font-style:normal;font-weight:normal;fill:#ffffff;fill-opacity:1;stroke:none;font-family:Bitstream Vera Sans"
       xml:space="preserve"><tspan
         style="fill:#ffffff;fill-opacity:1;font-family:FreeSerif"
         y="2386.9431"
         x="521.40857"
         id="tspan3668"
         sodipodi:role="line">Greater Seattle Linux Users Group</tspan></text>
    <g
       style="fill:#ffffff;fill-opacity:0;stroke:none;display:inline"
       transform="matrix(4.7447503,0,0,4.7447503,229.05102,-642.31611)"
       id="g3758">
      <text
         xml:space="preserve"
         style="font-size:30.41596222px;font-style:normal;font-weight:normal;fill:#ffffff;fill-opacity:0;stroke:none;font-family:Bitstream Vera Sans"
         x="117.84486"
         y="483.51981"
         id="text3760"><tspan
           sodipodi:role="line"
           id="tspan3762"
           x="117.84486"
           y="483.51981"
           style="font-size:182.49577332px;font-weight:bold;fill:#ffffff;fill-opacity:0;stroke:none;font-family:FreeSerif">GSLUG</tspan></text>
      <text
         id="text3764"
         y="483.51981"
         x="117.84486"
         style="font-size:30.41596222px;font-style:normal;font-weight:normal;fill:#ffffff;fill-opacity:0;stroke:none;font-family:Bitstream Vera Sans"
         xml:space="preserve"><tspan
           style="font-size:182.49577332px;font-weight:bold;fill:#ffffff;fill-opacity:0;stroke:none;font-family:FreeSerif"
           y="483.51981"
           x="117.84486"
           id="tspan3766"
           sodipodi:role="line">GSLUG</tspan></text>
    </g>
  </g>
</svg>
