<?xml version="1.0" encoding="UTF-8" standalone="no"?>
<!-- Created with Inkscape (http://www.inkscape.org/) -->

<svg
   xmlns:dc="http://purl.org/dc/elements/1.1/"
   xmlns:cc="http://creativecommons.org/ns#"
   xmlns:rdf="http://www.w3.org/1999/02/22-rdf-syntax-ns#"
   xmlns:svg="http://www.w3.org/2000/svg"
   xmlns="http://www.w3.org/2000/svg"
   xmlns:xlink="http://www.w3.org/1999/xlink"
   xmlns:sodipodi="http://sodipodi.sourceforge.net/DTD/sodipodi-0.dtd"
   xmlns:inkscape="http://www.inkscape.org/namespaces/inkscape"
   width="500"
   height="500"
   id="svg2398"
   sodipodi:version="0.32"
   inkscape:version="0.48.5 r10040"
   version="1.0"
   sodipodi:docname="icon.svg"
   inkscape:output_extension="org.inkscape.output.svg.inkscape"
   inkscape:export-xdpi="90"
   inkscape:export-ydpi="90"
   style="display:inline">
  <defs
     id="defs2400">
    <linearGradient
       id="linearGradient3659">
      <stop
         style="stop-color:#68b817;stop-opacity:0;"
         offset="0"
         id="stop3661" />
      <stop
         style="stop-color:#e16b50;stop-opacity:1;"
         offset="1"
         id="stop3663" />
    </linearGradient>
    <linearGradient
       id="linearGradient3783">
      <stop
         style="stop-color:#1b081f;stop-opacity:1;"
         offset="0"
         id="stop3785" />
      <stop
         style="stop-color:#481e31;stop-opacity:1;"
         offset="1"
         id="stop3787" />
    </linearGradient>
    <linearGradient
       id="linearGradient3773">
      <stop
         style="stop-color:#ffffff;stop-opacity:0.2173913;"
         offset="0"
         id="stop3775" />
      <stop
         style="stop-color:#ffffff;stop-opacity:0.63095236;"
         offset="1"
         id="stop3777" />
    </linearGradient>
    <inkscape:perspective
       sodipodi:type="inkscape:persp3d"
       inkscape:vp_x="0 : 526.18109 : 1"
       inkscape:vp_y="0 : 1000 : 0"
       inkscape:vp_z="744.09448 : 526.18109 : 1"
       inkscape:persp3d-origin="372.04724 : 350.78739 : 1"
       id="perspective2406" />
    <inkscape:perspective
       id="perspective2431"
       inkscape:persp3d-origin="332.67499 : 106.69667 : 1"
       inkscape:vp_z="665.34998 : 160.045 : 1"
       inkscape:vp_y="0 : 1000 : 0"
       inkscape:vp_x="0 : 160.045 : 1"
       sodipodi:type="inkscape:persp3d" />
    <inkscape:perspective
       id="perspective3752"
       inkscape:persp3d-origin="0.5 : 0.33333333 : 1"
       inkscape:vp_z="1 : 0.5 : 1"
       inkscape:vp_y="0 : 1000 : 0"
       inkscape:vp_x="0 : 0.5 : 1"
       sodipodi:type="inkscape:persp3d" />
    <inkscape:perspective
       id="perspective2877"
       inkscape:persp3d-origin="0.5 : 0.33333333 : 1"
       inkscape:vp_z="1 : 0.5 : 1"
       inkscape:vp_y="0 : 1000 : 0"
       inkscape:vp_x="0 : 0.5 : 1"
       sodipodi:type="inkscape:persp3d" />
    <inkscape:perspective
       id="perspective3679"
       inkscape:persp3d-origin="0.5 : 0.33333333 : 1"
       inkscape:vp_z="1 : 0.5 : 1"
       inkscape:vp_y="0 : 1000 : 0"
       inkscape:vp_x="0 : 0.5 : 1"
       sodipodi:type="inkscape:persp3d" />
    <inkscape:perspective
       id="perspective3657"
       inkscape:persp3d-origin="0.5 : 0.33333333 : 1"
       inkscape:vp_z="1 : 0.5 : 1"
       inkscape:vp_y="0 : 1000 : 0"
       inkscape:vp_x="0 : 0.5 : 1"
       sodipodi:type="inkscape:persp3d" />
  </defs>
  <sodipodi:namedview
     id="base"
     pagecolor="#ffffff"
     bordercolor="#666666"
     borderopacity="0.12156863"
     gridtolerance="10000"
     guidetolerance="10"
     objecttolerance="10"
     inkscape:pageopacity="0"
     inkscape:pageshadow="2"
     inkscape:zoom="3.2"
     inkscape:cx="197.49032"
     inkscape:cy="261.87771"
     inkscape:document-units="px"
     inkscape:current-layer="g3994"
     showgrid="true"
     units="px"
     inkscape:window-width="3198"
     inkscape:window-height="1749"
     inkscape:window-x="2"
     inkscape:window-y="0"
     inkscape:window-maximized="1"
     borderlayer="false"
     inkscape:snap-page="true"
     inkscape:snap-bbox="true"
     inkscape:snap-global="true"
     inkscape:object-nodes="true"
     inkscape:showpageshadow="false"
     showborder="true">
    <inkscape:grid
       type="xygrid"
       id="grid3056" />
  </sodipodi:namedview>
  <metadata
     id="metadata2403">
    <rdf:RDF>
      <cc:Work
         rdf:about="">
        <dc:format>image/svg+xml</dc:format>
        <dc:type
           rdf:resource="http://purl.org/dc/dcmitype/StillImage" />
        <dc:title />
      </cc:Work>
    </rdf:RDF>
  </metadata>
  <g
     inkscape:groupmode="layer"
     id="layer3"
     inkscape:label="Layer"
     style="display:inline"
     transform="translate(0,-1660)">
    <g
       id="g3994">
      <path
         sodipodi:type="arc"
         style="fill:#62a4db;fill-opacity:1;stroke:none"
         id="path3862"
         sodipodi:cx="250"
         sodipodi:cy="250"
         sodipodi:rx="250"
         sodipodi:ry="250"
         d="M 500,250 C 500,388.07119 388.07119,500 250,500 111.92881,500 0,388.07119 0,250 0,111.92881 111.92881,0 250,0 388.07119,0 500,111.92881 500,250 z"
         transform="matrix(0.90740674,0,0,0.90740674,23.148311,1683.1483)" />
      <path
         id="path3648"
         d="m 424.02175,1825.4582 0,1.3439 -5.00063,1.3752 5.68821,4.313 -0.96887,3.4692 -14.50181,7.0321 -6.21953,0 0,6.3446 -4.84435,-1.3127 0,4.1568 -9.21991,0 0.46881,2.094 11.43893,0 4.21928,9.0949 -7.06338,0 6.31329,3.5317 8.43855,0 c 4.12766,15.5021 7.28399,32.0649 9.40743,49.6624 l -16.47081,0 0,22.9091 -7.21966,0 0,27.8785 -11.84523,0 0.87511,3.2817 -5.59445,-5.5945 0,-3.0628 -1.34391,0 0,2.8753 -14.56432,0 0,-28.316 -4.62558,0 1.71896,-6.4071 -5.12564,0 -2.53156,-4.2505 -9.18865,0 -3.21915,5.4694 -3.81298,0 0,4.3131 -3.81298,6.7196 -8.12601,0 0,4.313 -7.21966,0 0,10.9701 -2.8441,0 0,-12.8453 -31.56645,0 0,22.9091 -3.81297,0 0,-68.3523 c -7.1158,-2.7969 -13.95254,-5.6026 -35.97325,-7.1572 l 0,9.5012 -5.37567,-1.4377 0,90.6051 -3.62545,0 0,-3.2191 -5.59445,0 -3.50044,-3.563 -3.37542,0.8751 -0.87511,3.2817 -3.31292,-0.9064 0,-4.313 -1.31266,0 0,-2.9066 -1.37517,0 0,2.9066 -2.90662,0 0,-3.3754 -1.34391,0 0,3.3754 -0.7501,0 0,10.9701 -0.96887,0 c -1.27791,-0.4054 -2.62746,-0.8163 -4.03175,-1.2189 -0.0454,-0.017 -0.0792,-0.051 -0.12502,-0.062 -0.0398,-0.017 -0.0539,0.017 -0.0937,0 l 0,-48.5061 -15.37692,0 -0.93762,-3.2816 -10.97012,0 0,3.8755 -9.06363,0 0,34.5668 c -0.66953,-0.2652 -1.41087,-0.5863 -2.12527,-0.9689 -8.2503,-4.4172 -11.19694,-9.6761 -10.59507,-28.0035 -40.46438,7.9301 -60.45988,-2.58 -76.38455,33.3167 -1.910664,10.264 -0.209154,22.9548 3.687961,30.41 11.216919,21.4582 8.708458,25.8766 19.002379,45.2557 10.29391,19.379 8.52934,16.1686 21.97149,31.0039 10.35877,11.4322 14.49975,17.1684 22.87786,22.9716 7.48922,3.7121 15.19818,7.0264 23.12789,9.9075 4.14515,0.088 7.74502,-0.7903 15.62696,1.3751 11.20092,3.0773 14.47488,6.4816 21.06513,8.5323 3.45749,0.6277 6.95987,1.1875 10.47006,1.6565 8.53809,0.014 9.07173,-4.4182 17.18965,-4.438 9.14705,-0.023 6.02957,4.544 15.75196,4.1255 9.72256,-0.4191 8.12082,-5.2435 23.1904,-5.782 10.27717,-0.3675 14.4547,1.747 22.44031,2.9379 C 400.35784,2109.5619 476.8409,2018.7248 476.8409,1910 c 0,-8.1207 -0.41796,-16.1341 -1.25016,-24.0342 l -3.90674,0 0,29.5974 -3.87548,0 0,2.4066 -2.46906,0 0,35.2856 -3.28166,-0.8126 0,3.7505 -6.18827,0 0,36.6296 c -0.35071,0.017 -0.68587,0.043 -1.03138,0.062 l -7.56345,0 c -10e-4,-0.021 10e-4,-0.042 0,-0.062 l -3.34417,0 c 0.002,0.02 -0.002,0.042 0,0.062 l -0.43755,0 -0.90636,0 c -0.002,-0.02 0.002,-0.042 0,-0.062 l -2.53157,0 0,-16.7521 c 0.48044,-1.3611 0.9612,-2.7179 1.40643,-4.0943 0.27457,-9.2554 0.70894,-18.6685 1.31266,-28.2535 -0.30397,8.5119 -0.47172,17.0854 -0.50006,25.6594 2.42091,-7.8466 4.35901,-15.9039 5.81322,-24.128 0.52272,-15.3574 1.48449,-29.9297 2.93787,-43.0991 -4e-4,-0.01 4e-4,-0.021 0,-0.031 -0.31151,-8.0817 -1.10646,-16.0369 -2.34404,-23.8468 -2.25335,14.1449 -3.87598,29.2268 -4.90687,44.7556 l -3.62545,0.2501 0,-56.3821 6.3758,0 c -3.15561,-14.4557 -7.85929,-28.3327 -13.93924,-41.4427 l -8.56357,0 z m -5.00063,41.4427 9.2199,0 0,49.6624 -1.50018,0 c -1.76347,-15.9435 -4.30687,-32.4504 -7.71972,-49.6624 z"
         style="fill:#ffffff;fill-opacity:1;fill-rule:evenodd;stroke:none"
         inkscape:connector-curvature="0" />
      <path
         inkscape:connector-curvature="0"
         id="path3627"
         d="m 108.32604,1744.9169 c -10.492717,0 -19.358436,7.5372 -22.221528,17.8772 -1.719109,-1.2985 -3.667382,-2.4352 -5.813227,-3.3129 -14.1557,15.9482 -26.101561,33.8967 -35.348168,53.3817 2.347808,0.721 4.893374,1.1251 7.532192,1.1251 3.594061,0 6.997592,-0.7412 10.00125,-2.0315 4.644395,6.1604 12.753151,10.2513 22.00275,10.2513 8.91771,0 16.786921,-3.8015 21.502691,-9.595 2.11444,0.3545 4.32904,0.5626 6.59457,0.5626 5.8382,0 11.27982,-1.2681 15.81448,-3.4067 0.60376,0.063 1.19375,0.094 1.81272,0.094 2.75707,0 5.38793,-0.6239 7.75097,-1.7502 2.90203,1.1055 6.42138,1.7502 10.22003,1.7502 9.92244,0 17.971,-4.3948 17.971,-9.8449 0,-5.2703 -7.53378,-9.5974 -17.00213,-9.8763 0.002,-0.1412 0,-0.2641 0,-0.4063 0,-10.6618 -7.77124,-19.3845 -17.6272,-20.0962 -0.1801,-13.6847 -10.49389,-24.7219 -23.1904,-24.7219 z"
         style="fill:#ffffff;fill-opacity:0.65490196;stroke:none;display:inline" />
      <path
         inkscape:connector-curvature="0"
         id="path3645"
         d="m 172.44012,1830.6878 c -6.1226,0 -11.56112,3.0087 -15.0002,7.6609 -2.57671,-0.9844 -5.51521,-1.5484 -8.63691,-1.5484 -10.17836,0 -18.42827,5.9311 -18.42827,13.2456 0,0.2165 0.006,0.4301 0.0211,0.6444 -5.65262,1.5725 -9.96342,5.858 -11.00206,11.1423 -2.51285,-1.0164 -5.47541,-1.602 -8.65097,-1.602 -9.07201,0 -16.429153,4.7869 -16.429153,10.695 0,5.9078 7.357143,10.7038 16.429153,10.7038 6.46491,0 12.05225,-2.4337 14.73271,-5.9695 2.69329,1.8262 6.05973,2.9086 9.70688,2.9086 3.36263,0 6.482,-0.9219 9.05928,-2.4971 4.64797,2.1894 10.72399,3.5174 17.37941,3.5174 9.44311,0 17.72766,-2.6688 22.40531,-6.6856 0.55326,0.1234 1.11499,0.2293 1.68936,0.3135 0.62402,4.7085 6.99436,8.4127 14.76793,8.4127 8.18694,0 14.82426,-4.1096 14.82426,-9.1736 0,-3.735 -3.61157,-6.9475 -8.79179,-8.3769 0.50291,-1.2181 0.78132,-2.5096 0.78132,-3.8483 0,-6.8731 -7.13185,-12.517 -16.25315,-13.1738 -1.39611,-9.2737 -9.19195,-16.369 -18.60425,-16.369 z"
         style="fill:#ffffff;fill-opacity:0.65490196;stroke:none;display:inline" />
      <path
         inkscape:connector-curvature="0"
         id="path3677"
         d="m 331.20439,1833.4821 c -9.12287,0 -16.51613,4.7609 -16.51613,10.6323 0,1.5926 0.5446,3.105 1.51969,4.4612 -9.51897,1.2479 -16.53722,5.5474 -16.53722,10.6678 0,6.0972 9.95113,11.0417 22.22552,11.0417 6.34165,0 12.05538,-1.3248 16.10453,-3.4411 2.29501,0.6279 4.8817,0.9842 7.6196,0.9842 2.25771,0 4.41124,-0.2391 6.38483,-0.6753 2.56723,1.4517 5.76685,2.3132 9.23425,2.3132 8.45938,0 15.31302,-5.1281 15.31302,-11.4508 0,-5.7167 -5.6017,-10.4512 -12.92795,-11.3076 -1.31313,-4.7586 -6.58596,-8.3187 -12.89629,-8.3187 -1.73775,0 -3.39806,0.2709 -4.91791,0.7612 -2.77135,-3.368 -8.27138,-5.6681 -14.60594,-5.6681 z"
         style="fill:#ffffff;fill-opacity:0.65490196;stroke:none;display:inline" />
      <path
         inkscape:connector-curvature="0"
         id="path3781"
         d="m 308.45363,1731.4332 c -12.51367,0 -22.89026,4.5011 -24.83409,10.391 -16.43562,0.02 -29.7519,7.1696 -29.7519,15.9867 0,1.1689 0.23602,2.3079 0.68019,3.4052 -0.97387,-0.1335 -1.97987,-0.2105 -3.00649,-0.2105 -8.98029,0 -16.25675,5.3708 -16.25675,11.9918 0,6.621 7.27646,11.9847 16.25675,11.9847 2.31923,0 4.52681,-0.3588 6.5231,-1.0039 4.98258,2.6059 11.67094,4.2055 19.03199,4.2055 7.19002,0 13.74113,-1.5238 18.68507,-4.0228 2.98535,1.521 6.70765,2.4222 10.74035,2.4222 4.81319,0 9.17456,-1.2884 12.37964,-3.3773 4.11527,1.6199 9.20831,2.5767 14.71952,2.5767 7.94608,0 15.01478,-1.9875 19.54891,-5.0831 3.70851,1.6884 8.33728,2.689 13.35913,2.689 12.18754,0 22.06567,-5.9092 22.06567,-13.1924 0,-7.2832 -9.87813,-13.1853 -22.06567,-13.1853 -1.27835,0 -2.52908,0.071 -3.74789,0.1962 0.17454,-0.5864 0.26527,-1.1885 0.26527,-1.7976 0,-7.0623 -12.13879,-12.7851 -27.10596,-12.7851 -0.81966,0 -1.62715,0.021 -2.42831,0.057 -1.17064,-6.3064 -11.94239,-11.2476 -25.05853,-11.2476 z"
         style="fill:#ffffff;fill-opacity:0.65490196;stroke:none;display:inline" />
      <path
         inkscape:connector-curvature="0"
         id="path3809"
         d="m 407.05011,1787.5832 c -9.73537,0 -17.80776,4.1664 -19.29116,9.6164 -11.2621,0.3892 -20.14591,4.846 -20.14591,10.2899 0,5.6997 9.73539,10.3159 21.74544,10.3159 6.7628,0 12.80308,-1.4646 16.79149,-3.7624 3.65101,2.7499 9.13848,4.5006 15.27621,4.5006 7.68464,0 14.34256,-2.7457 17.65929,-6.7606 0.73039,0.08 1.477,0.1286 2.24056,0.1286 7.73529,0 14.00698,-4.2913 14.00698,-9.584 0,-5.2926 -6.27169,-9.5839 -14.00698,-9.5839 -3.68654,0 -7.03777,0.9712 -9.5387,2.5643 -2.24785,-0.8644 -4.79302,-1.4511 -7.51183,-1.6967 -3.29348,-3.5898 -9.77256,-6.0288 -17.22539,-6.0288 z"
         style="fill:#ffffff;fill-opacity:0.65490196;stroke:none;display:inline" />
      <path
         inkscape:connector-curvature="0"
         style="fill:#3589d1;fill-opacity:1;stroke:none"
         d="M 250,1660 C 111.92881,1660 0,1771.9288 0,1910.0001 0,2048.0712 111.92881,2160 250,2160 388.07118,2160 499.99999,2048.0712 499.99999,1910.0001 499.99999,1771.9288 388.07118,1660 250,1660 z m 0,48.8186 c 111.11127,0 201.18139,90.0702 201.18139,201.1815 0,111.1111 -90.07012,201.1813 -201.18139,201.1813 -111.11128,0 -201.181398,-90.0702 -201.181398,-201.1813 0,-111.1113 90.070118,-201.1815 201.181398,-201.1815 z"
         id="path3929" />
      <path
         sodipodi:nodetypes="ccscsssccscscccssssscsccccsccssszc"
         inkscape:connector-curvature="0"
         id="path3878"
         d="m 41.468462,1800.6617 c -4.58974,-0.017 -9.075847,1.3716 -13.220402,4.9381 -5.243334,4.5119 -7.376694,9.5566 -6.188274,17.2834 1.03524,6.731 5.559803,10.4866 13.43918,13.1579 6.618004,2.2436 9.625896,0.2283 11.057437,5.9436 1.957645,7.8157 2.648166,21.7042 3.513113,27.9222 1.51742,10.9086 0.990124,28.9083 0.491107,34.3424 -0.499028,5.4341 -8.576994,-15.1381 -15.107797,-18.954 -6.530805,-3.8156 -10.416242,-2.3141 -14.845606,2.094 -4.429362,4.4084 -3.45499,9.2926 -0.593824,13.9393 2.86118,4.6467 8.456309,3.8645 14.314289,11.8765 5.857969,8.0122 6.017517,11.7587 7.664659,22.5006 1.87651,12.2376 1.165815,8.9186 4.140846,17.4768 10.764026,32.7662 33.738547,66.8551 50.603005,87.6916 L 159.98875,1969.82 c -0.29344,-1.38 -0.43865,-3.0396 -0.65634,-5.2194 -0.77685,-7.779 3.31411,-14.6783 0.59383,-22.8154 -2.7203,-8.1372 -10.91585,-1.2786 -11.47019,-9.7199 -0.55433,-8.4412 0.51225,-9.8706 9.25116,-24.0343 8.73888,-14.1637 13.36216,-19.5034 25.72197,-32.5978 12.3598,-13.0948 13.90179,-15.5337 23.72171,-19.7525 9.81989,-4.2186 10.25155,2.0435 17.47093,1.4064 6.86623,-0.6058 9.66838,-4.4629 11.81398,-10.095 1.53353,-4.0256 1.43077,-12.0548 -1.90649,-16.627 -3.14886,-4.3144 -7.766,-5.687 -13.40792,-6.1883 -5.6419,-0.5016 -9.69433,3.4262 -13.72047,6.2508 -15.26969,10.3481 -27.96458,18.7353 -50.97512,32.379 -23.01057,13.6436 -28.66271,14.0711 -41.09889,22.1278 -12.43617,8.0571 -4.99572,13.6728 -10.78259,12.9078 -5.786886,-0.7651 -4.32662,-6.0534 -12.345297,-15.9707 -8.018668,-9.9174 -15.790737,-14.9952 -20.443467,-23.3741 -8.555243,-15.4068 -3.211963,-19.2888 -8.785165,-33.2351 -4.936394,-12.3527 -5.2574,-13.6282 -7.901172,-17.0318 -2.643773,-3.4037 -5.877002,-6.6209 -13.600757,-7.5688 z"
         style="fill:#ffffff;fill-opacity:1;fill-rule:evenodd;stroke:none" />
      <path
         inkscape:connector-curvature="0"
         id="rect3921"
         d="m 434.24177,1795.3294 0,25.8783 -1.65645,0 0,4.2505 -8.56357,0 0,1.3439 -5.00063,1.3752 5.68821,4.313 -0.96887,3.4692 -14.50181,7.0321 -6.21953,0 0,6.3446 -4.84435,-1.3127 0,4.1568 -9.21991,0 0.46881,2.094 11.43893,0 4.21928,9.0949 -7.06338,0 6.31329,3.5317 8.43855,0 c 4.81922,18.0993 8.31377,37.6077 10.3763,58.5698 l 4.50056,0 c -1.74493,-18.695 -4.57312,-38.1294 -8.62608,-58.5698 l 9.2199,0 0,58.5698 20.78385,0 c 1.45009,-22.8845 4.03837,-43.1386 7.96975,-58.5698 l 9.2199,0 6.34454,-3.5317 -7.03213,0 4.28179,-9.0949 11.31391,0 0.56257,-2.094 -9.2199,0 0,-4.1568 -4.71934,1.3127 0,-6.3446 -6.4383,0 -14.40805,-7.0321 -0.96888,-3.4692 5.59445,-4.313 -4.90686,-1.3752 0,-1.3439 -8.65733,0 0,-4.2505 -1.65646,0 0,-25.8783 -2.06276,0 z m 5.90699,71.5715 10.53257,0 c -3.32825,17.2833 -5.59467,36.3619 -6.90712,56.132 l -3.62545,0.25 0,-56.382 z"
         style="fill:#ffffff;fill-opacity:1;stroke:none" />
      <path
         transform="matrix(0.972,0,0,0.972,6.9999999,1667)"
         d="M 500,250 C 500,388.07119 388.07119,500 250,500 111.92881,500 0,388.07119 0,250 0,111.92881 111.92881,0 250,0 388.07119,0 500,111.92881 500,250 z"
         sodipodi:ry="250"
         sodipodi:rx="250"
         sodipodi:cy="250"
         sodipodi:cx="250"
         id="path3205"
         style="fill:none;stroke:#ffffff;stroke-width:14.40329265999999997;stroke-miterlimit:4;stroke-opacity:0.65490198;stroke-dasharray:none"
         sodipodi:type="arc" />
      <text
         xml:space="preserve"
         style="font-size:39.65917969000000198px;font-style:normal;font-weight:normal;line-height:125%;letter-spacing:0px;word-spacing:0px;fill:#ffffff;fill-opacity:1;stroke:none;font-family:Sans"
         id="text3009"
         sodipodi:linespacing="125%"><textPath
           xlink:href="#path3061"
           id="textPath3861"><tspan
   style="font-size:27.76142502000000079px;fill:#ffffff"
   id="tspan3011">Greater Seattle</tspan></textPath></text>
      <path
         style="fill:none;stroke:none"
         d="m 145,1727 c 110,-60 210,0 210,0"
         id="path3061"
         inkscape:connector-curvature="0"
         sodipodi:nodetypes="cc" />
      <text
         xml:space="preserve"
         style="font-size:40px;font-style:normal;font-weight:normal;line-height:125%;letter-spacing:0px;word-spacing:0px;fill:#ffffff;fill-opacity:1;stroke:none;font-family:Sans"
         id="text3864"
         sodipodi:linespacing="125%"><textPath
           xlink:href="#path3874"
           id="textPath3891"><tspan
   style="font-size:28px;fill:#ffffff"
   id="tspan3866">Linux Users Group</tspan></textPath></text>
      <path
         style="fill:none;stroke:none"
         d="m 130.48038,2101.5196 c 129.51962,80.4804 240,0 240,0"
         id="path3874"
         inkscape:connector-curvature="0"
         sodipodi:nodetypes="cc" />
    </g>
  </g>
</svg>
