<?xml version="1.0" encoding="UTF-8" standalone="no"?>
<svg
   xmlns:dc="http://purl.org/dc/elements/1.1/"
   xmlns:cc="http://creativecommons.org/ns#"
   xmlns:rdf="http://www.w3.org/1999/02/22-rdf-syntax-ns#"
   xmlns:svg="http://www.w3.org/2000/svg"
   xmlns="http://www.w3.org/2000/svg"
   xmlns:sodipodi="http://sodipodi.sourceforge.net/DTD/sodipodi-0.dtd"
   xmlns:inkscape="http://www.inkscape.org/namespaces/inkscape"
   inkscape:version="0.48.4 r9939"
   version="1.1"
   height="180"
   width="180">
  <sodipodi:namedview
     id="base"
     inkscape:document-units="pt"
     units="pt" />
  <g
     inkscape:groupmode="layer"
     inkscape:label="Background"
     transform="translate(5501.5001,-8580.375)"
     style="display:inline"
     sodipodi:insensitive="true">
    <path
       transform="matrix(0.85006736,0,0,0.85006749,-5695.8229,8584.5164)"
       d="m 435.93343,101.00212 c 0,56.03622 -45.42633,101.46255 -101.46254,101.46255 -56.03622,0 -101.46255,-45.42633 -101.46255,-101.46255 0,-56.036217 45.42633,-101.46254633 101.46255,-101.46254633 56.03621,0 101.46254,45.42632933 101.46254,101.46254633 z"
       sodipodi:ry="101.46255"
       sodipodi:rx="101.46255"
       sodipodi:cy="101.00212"
       sodipodi:cx="334.47089"
       style="fill:#3589d1;fill-opacity:1;stroke:none"
       sodipodi:type="arc" />
  </g>
  <g
     inkscape:groupmode="layer"
     inkscape:label="Clouds"
     sodipodi:insensitive="true">
    <path
       style="fill:#a2c9eb;fill-opacity:1;stroke:none;display:inline"
       d="m 28.78125,108.3125 c -0.522113,0.0165 -1.04289,0.1014 -1.5625,0.28125 -2.771254,0.95922 -4.240474,3.97875 -3.28125,6.75 0.254794,0.73611 0.653507,1.37501 1.15625,1.90625 -0.842029,1.55418 -1.061244,3.44797 -0.4375,5.25 0.480407,1.38792 1.40078,2.48724 2.53125,3.25 -0.31048,1.1095 -0.311639,2.32881 0.09375,3.5 0.08927,0.25792 0.192362,0.51326 0.3125,0.75 -1.997127,2.46871 -2.708884,5.90331 -1.59375,9.125 0.64446,1.86188 1.815277,3.36946 3.28125,4.46875 -0.435097,1.39384 -0.451762,2.92052 0.0625,4.40625 0.671131,1.93894 2.102869,3.39059 3.84375,4.15625 0.661146,0.73378 1.442535,1.34555 2.3125,1.78125 1.840372,3.20661 5.783983,4.75379 9.40625,3.5 0.01288,-0.004 0.0184,-0.0267 0.03125,-0.0312 1.841758,0.94854 4.043973,1.19988 6.15625,0.46875 0.407101,-0.14091 0.788784,-0.33344 1.15625,-0.53125 1.596549,1.95738 4.286726,2.81176 6.8125,1.9375 3.23299,-1.11905 4.962797,-4.64201 3.84375,-7.875 -0.570699,-1.64878 -1.784877,-2.87823 -3.25,-3.5625 0.03698,-0.73004 -0.05872,-1.48557 -0.3125,-2.21875 -1.000641,-2.89091 -4.024829,-4.47453 -6.9375,-3.75 -0.06474,-0.40455 -0.173852,-0.81819 -0.3125,-1.21875 -0.864469,-2.4975 -2.982707,-4.19947 -5.40625,-4.65625 -0.03263,-0.48661 -0.11404,-0.98567 -0.28125,-1.46875 -0.376505,-1.08774 -1.052402,-1.97904 -1.90625,-2.625 -0.01746,-0.55097 -0.122705,-1.10792 -0.3125,-1.65625 -0.429151,-1.23984 -1.255148,-2.21974 -2.28125,-2.875 0.16602,-1.02954 0.08374,-2.13302 -0.28125,-3.1875 -0.713476,-2.06127 -2.3402,-3.51156 -4.28125,-4.09375 -0.02558,-0.62187 -0.129693,-1.25658 -0.34375,-1.875 -0.529545,-1.52989 -1.579562,-2.74134 -2.875,-3.5 0.198379,-0.91824 0.173483,-1.89113 -0.15625,-2.84375 -0.77937,-2.25164 -2.92501,-3.6342 -5.1875,-3.5625 z"
       inkscape:connector-curvature="0" />
    <path
       style="fill:#a2c9eb;fill-opacity:1;stroke:none;display:inline"
       d="m 105.40625,13.40625 c -2.72166,0 -5.11975,1.306938 -6.65625,3.3125 -1.901808,0.0092 -3.580913,0.864985 -4.75,2.1875 C 93.358945,18.639316 92.675241,18.5 91.9375,18.5 88.943921,18.5 86.5,20.912671 86.5,23.90625 c 0,2.993579 2.443921,5.4375 5.4375,5.4375 1.154887,0 2.214376,-0.38443 3.09375,-1 1.054609,0.760682 2.350349,1.21875 3.75,1.21875 0.861548,0 1.68692,-0.160766 2.4375,-0.46875 1.23652,0.715233 2.6563,1.125 4.1875,1.125 0.41952,0 0.84697,-0.03442 1.25,-0.09375 1.2111,1.293402 2.93204,2.09375 4.84375,2.09375 0.17714,0 0.35761,-0.01763 0.53125,-0.03125 1.10863,1.493598 2.90328,2.46875 4.90625,2.46875 0.0992,0 0.18321,0.0047 0.28125,0 1.11588,1.972261 3.2311,3.301353 5.65625,3.3125 0.68517,1.93004 2.49125,3.3125 4.65625,3.3125 2.74921,0 5,-2.219545 5,-4.96875 0,-2.072713 -1.29215,-3.844807 -3.09375,-4.59375 0.004,-0.09531 0,-0.184919 0,-0.28125 0,-3.604513 -2.92674,-6.53125 -6.53125,-6.53125 -0.36078,0 -0.71764,0.03745 -1.0625,0.09375 -1.02108,-1.408802 -2.63096,-2.362488 -4.46875,-2.5 -0.82158,-1.566072 -2.24558,-2.765009 -3.96875,-3.28125 -1.09315,-3.373805 -4.26201,-5.8125 -8,-5.8125 z"
       inkscape:connector-curvature="0" />
    <path
       style="fill:#a2c9eb;fill-opacity:1;stroke:none;display:inline"
       d="m 110.9375,145.71875 c -2.39197,0 -4.43195,1.41489 -5.34375,3.46875 -0.85437,-0.30869 -1.78916,-0.5 -2.75,-0.5 -1.85615,0 -3.544316,0.63242 -4.90625,1.6875 -0.886245,-0.37895 -1.881417,-0.5625 -2.90625,-0.5625 -0.740362,0 -1.451085,0.10885 -2.125,0.3125 -0.83754,-0.58721 -1.868205,-0.96875 -2.96875,-0.96875 -0.752013,0 -1.449451,0.17949 -2.09375,0.46875 -0.40238,-0.0873 -0.821482,-0.125 -1.25,-0.125 -3.237953,0 -5.875,2.6058 -5.875,5.84375 0,3.23795 2.637047,5.875 5.875,5.875 0.727917,0 1.419408,-0.16379 2.0625,-0.40625 1.269149,2.20252 3.650417,3.6875 6.375,3.6875 1.283451,0 2.481225,-0.35922 3.53125,-0.9375 1.243622,0.78628 2.70111,1.25 4.28125,1.25 3.1941,0 5.97939,-1.8669 7.28125,-4.5625 1.45152,-0.56742 2.59624,-1.78217 3.0625,-3.28125 2.11891,-0.88344 3.625,-2.9672 3.625,-5.40625 0,-3.23795 -2.63705,-5.84375 -5.875,-5.84375 z"
       inkscape:connector-curvature="0" />
    <path
       style="fill:#a2c9eb;fill-opacity:1;stroke:none;display:inline"
       d="m 80,4.3125 c -17.877205,2.0630988 -34.072443,9.624924 -46.90625,20.90625 1.558847,1.47253 3.65332,2.375 5.96875,2.375 2.635678,0 4.991491,-1.185991 6.59375,-3.03125 1.062527,0.459482 2.237489,0.71875 3.46875,0.71875 4.342236,0 7.945933,-3.162358 8.625,-7.3125 4.080068,-0.250304 7.601471,-2.610802 9.46875,-6 1.055827,-0.29681 2.012462,-0.825517 2.8125,-1.53125 0.520939,0.09684 1.044749,0.15625 1.59375,0.15625 3.966024,0 7.304385,-2.6585902 8.375,-6.28125 z"
       inkscape:connector-curvature="0" />
    <path
       style="fill:#a2c9eb;fill-opacity:1;stroke:none;display:inline"
       d="m 169.8125,122.75 c -5.27746,0.81906 -9.44908,4.97765 -10.28125,10.25 -3.15035,0.85285 -5.61008,3.40405 -6.28125,6.625 -1.0426,-0.37637 -2.17137,-0.625 -3.34375,-0.625 -4.69664,0 -8.61728,3.31602 -9.59375,7.71875 -0.0209,-1.1e-4 -0.0415,0 -0.0625,0 -6.20877,0 -11.25,5.00998 -11.25,11.21875 0,0.47412 0.0368,0.94756 0.0937,1.40625 -3.88595,0.88731 -6.78125,4.34515 -6.78125,8.5 0,0.70294 0.094,1.37707 0.25,2.03125 21.37439,-8.72479 38.47779,-25.77505 47.25,-47.125 z"
       inkscape:connector-curvature="0" />
    <path
       style="fill:#a2c9eb;fill-opacity:1;stroke:none;display:inline"
       d="m 66.15625,43.375 c -1.243935,0 -2.319806,0.754599 -2.8125,1.8125 -0.287487,-0.08285 -0.592095,-0.15625 -0.90625,-0.15625 -1.018348,0 -1.901556,0.487838 -2.5,1.21875 -0.505173,-0.200668 -1.079599,-0.3125 -1.65625,-0.3125 -2.059304,0 -3.756426,1.407537 -4.25,3.3125 -0.452911,-0.137412 -0.939703,-0.21875 -1.4375,-0.21875 -2.718658,0 -4.90625,2.187592 -4.90625,4.90625 0,0.918415 0.280844,1.764195 0.71875,2.5 C 48.16156,56.880708 48,57.39542 48,57.9375 c 0,0.1609 0.03885,0.314466 0.0625,0.46875 -0.823899,0.556615 -1.375,1.493365 -1.375,2.5625 0,1.710616 1.383134,3.09375 3.09375,3.09375 0.213827,0 0.42337,-0.02124 0.625,-0.0625 1.411408,-0.288816 2.46875,-1.534461 2.46875,-3.03125 0,-0.02117 4.23e-4,-0.04143 0,-0.0625 1.143545,-0.389437 1.9921,-1.40713 2.09375,-2.65625 0.768226,-0.424525 1.396382,-1.05904 1.84375,-1.8125 0.911926,-0.238416 1.650987,-0.873826 2.03125,-1.71875 1.770582,-0.223682 3.207968,-1.478957 3.6875,-3.15625 1.335253,-0.03831 2.469069,-0.884914 2.9375,-2.0625 0.222191,0.05063 0.449974,0.09375 0.6875,0.09375 1.710616,0 3.09375,-1.414384 3.09375,-3.125 0,-1.710616 -1.383134,-3.09375 -3.09375,-3.09375 z"
       inkscape:connector-curvature="0" />
    <path
       style="fill:#a2c9eb;fill-opacity:1;stroke:none;display:inline"
       d="m 135.09375,107.59375 c -1.4405,0.0209 -2.68995,1.06065 -2.96875,2.53125 -0.10156,0.53572 -0.0664,1.04794 0.0937,1.53125 -0.83243,0.5743 -1.453,1.49038 -1.65625,2.5625 -0.0434,0.2288 -0.0589,0.46232 -0.0625,0.6875 -0.53818,0.36664 -0.93162,0.93465 -1.0625,1.625 -0.0327,0.17259 -0.065,0.36219 -0.0625,0.53125 -1.23161,0.48385 -2.20408,1.5414 -2.46875,2.9375 -0.0656,0.34612 -0.055,0.69565 -0.0312,1.03125 -1.59473,0.0932 -3.00145,1.23426 -3.3125,2.875 -0.008,0.0418 0.006,0.0833 0,0.125 -1.44951,0.0907 -2.71486,1.06776 -3.125,2.5 -1.40078,0.0641 -2.63367,1.06221 -2.90625,2.5 -0.31863,1.68068 0.78807,3.30637 2.46875,3.625 1.41457,0.26818 2.78598,-0.47569 3.375,-1.71875 1.41115,0.16541 2.72684,-0.53373 3.40625,-1.71875 0.54123,0.0302 1.05194,-0.0531 1.53125,-0.25 0.26399,0.10617 0.52234,0.19499 0.8125,0.25 2.4031,0.45558 4.73192,-1.12815 5.1875,-3.53125 0.0433,-0.22822 0.0549,-0.46234 0.0625,-0.6875 2.41485,0.26396 4.6648,-1.3538 5.125,-3.78125 0.32187,-1.69779 -0.31867,-3.34485 -1.53125,-4.40625 0.184,-0.34587 0.36069,-0.68859 0.4375,-1.09375 0.22093,-1.16537 -0.10875,-2.31747 -0.78125,-3.1875 0.26987,-0.36371 0.47248,-0.77517 0.5625,-1.25 0.31863,-1.68068 -0.78807,-3.30637 -2.46875,-3.625 -0.21009,-0.0398 -0.41921,-0.0655 -0.625,-0.0625 z"
       inkscape:connector-curvature="0" />
    <path
       style="fill:#a2c9eb;fill-opacity:1;stroke:none;display:inline"
       d="M 18.625,41.5625 C 9.3370225,55.21858 3.8701859,71.674191 3.75,89.40625 7.9844301,88.477073 11.15625,84.697495 11.15625,80.1875 11.15625,79.580887 11.1095,78.980974 11,78.40625 12.881266,76.451929 14.072232,73.827974 14.21875,70.9375 19.124699,69.578637 22.75,65.088513 22.75,59.75 c 0,-2.622905 -0.877404,-5.055669 -2.34375,-7 0.473003,-1.252163 0.75,-2.613497 0.75,-4.03125 0,-2.713667 -0.946305,-5.203814 -2.53125,-7.15625 z"
       inkscape:connector-curvature="0" />
    <path
       style="fill:#a2c9eb;fill-opacity:1;stroke:none;display:inline"
       d="m 133.0625,54.78125 c -1.12735,0 -2.1377,0.41699 -2.90625,1.125 C 129.51462,55.346065 128.66867,55 127.75,55 c -2.01608,0 -3.625,1.640166 -3.625,3.65625 0,1.983763 1.55985,3.605004 3.53125,3.65625 -8.5e-4,0.03242 0,0.06113 0,0.09375 0,1.349054 0.72422,2.524342 1.8125,3.15625 -0.0288,0.158291 -0.0625,0.333407 -0.0625,0.5 0,1.182725 0.75621,2.192273 1.8125,2.5625 0.12844,1.899511 1.69292,3.40625 3.625,3.40625 2.01608,0 3.65625,-1.640166 3.65625,-3.65625 0,-0.950885 -0.37304,-1.787873 -0.96875,-2.4375 0.46517,-0.688544 0.75,-1.512758 0.75,-2.40625 0,-1.127347 -0.44824,-2.168951 -1.15625,-2.9375 0.17261,-0.466423 0.25,-0.973564 0.25,-1.5 0,-2.382644 -1.92986,-4.3125 -4.3125,-4.3125 z"
       inkscape:connector-curvature="0" />
    <path
       style="fill:#a2c9eb;fill-opacity:1;stroke:none;display:inline"
       d="M 165.65625,48.53125 C 164.03219,50.171286 163,52.41181 163,54.90625 c 0,2.337433 0.89781,4.47986 2.34375,6.09375 -0.67323,0.947439 -1.0625,2.124222 -1.0625,3.375 0,1.522011 0.57241,2.90268 1.53125,3.9375 -1.4561,1.764387 -2.34375,4.002467 -2.34375,6.46875 0,4.093961 2.42734,7.623506 5.90625,9.25 0.45414,3.347594 3.30911,5.9375 6.78125,5.9375 0.0322,0 0.0616,4.45e-4 0.0937,0 -0.005,-15.013802 -3.84301,-29.144203 -10.59375,-41.4375 z"
       inkscape:connector-curvature="0" />
    <path
       style="fill:#a2c9eb;fill-opacity:1;stroke:none;display:inline"
       d="m 142.71875,21.75 c -0.30295,0.983548 -0.46875,2.01116 -0.46875,3.09375 0,4.653468 3.03904,8.563061 7.21875,9.96875 0.76166,5.082503 5.14278,9 10.4375,9 0.94593,0 1.84758,-0.14147 2.71875,-0.375 C 157.2779,35.112038 150.52192,27.787541 142.71875,21.75 z"
       inkscape:connector-curvature="0" />
  </g>
  <g
     inkscape:groupmode="layer"
     inkscape:label="Slug"
     style="display:inline"
     sodipodi:insensitive="true">
    <path
       style="fill:#183d5e;fill-opacity:1;stroke:none;display:inline"
       d="m 126,16.8125 c -0.13892,-0.0025 -0.26335,0.01492 -0.40625,0.03125 -1.49793,0.171193 -3.09505,1.308418 -3.84375,2.46875 -2.38167,2.234797 -7.16129,7.43911 -10.28125,9.28125 -3.31004,1.954359 -6.65762,2.87585 -8.6875,4.84375 -1.77035,1.716293 -4.178236,1.686158 -5.96875,1.4375 -2.093927,-0.808918 -3.527118,-2.34484 -5.5,-3.15625 -2.69722,-1.109317 -7.377543,-2.141632 -10.59375,-3.3125 -2.709982,-0.986576 -4.71702,-2.342492 -6.46875,-3.75 -0.807658,-1.025011 -2.134816,-1.946241 -3.53125,-2.375 -2.79287,-0.857518 -5.050157,1.601942 -5.5625,2.59375 -0.512342,0.991807 -1.051817,3.529687 1.59375,4.90625 2.08796,1.086423 3.699677,1.07411 4.96875,0.5625 1.64864,-0.288855 2.071455,0.04829 4.8125,0.71875 3.132624,0.766243 10.802756,4.714124 12.3125,6.40625 0.377436,0.423032 0.821275,0.965764 0.955137,1.371354 0.810544,2.455884 0.288184,3.793784 -0.04889,5.503646 -0.429698,2.179751 -0.08519,4.230306 -0.90625,5.8125 -0.334937,0.645426 -0.818304,1.234 -1.40625,1.8125 l -2.375,-3.6875 -1.28125,0.625 -0.625,-1.21875 -1.4375,0.75 -0.21875,-0.34375 -1.9375,1.1875 0.21875,0.3125 -1.375,0.90625 0.78125,1.1875 -1.21875,0.78125 3.8125,5.09375 -0.75,1 -2.5625,-2.8125 -1.0625,-1.03125 -3.1875,2.28125 0.875,1.21875 0.09375,0.53125 -0.03125,0.03125 -3.4375,-4.15625 -0.125,0.09375 -0.28125,-0.34375 0.375,-0.75 -0.09375,-0.09375 -2.75,2.03125 L 68.25,54.84375 66.375,56.625 l 0.65625,0.65625 -2.21875,2.53125 -1.53125,-1.40625 -1.9375,2.5 L 60.3125,60.09375 58.375,62.75 59.4375,63.5 57.71875,66.3125 67.3125,71.5 66.21875,73.6875 64.84375,73 l -1.6875,4.09375 -24.4375,-7.875 -0.3125,1 -2.9375,-0.96875 -1.3125,10.3125 0.46875,0.0625 -0.21875,1.90625 0.5625,0.09375 -0.0625,0.5625 -3.1875,-0.28125 0,0.125 1.4375,0.125 1.75,0.15625 -0.09375,0.78125 1.03125,0.0625 -0.0625,0.34375 5.40625,0.4375 -0.03125,0.15625 19.09375,1.5 -0.0625,0.8125 -8.875,-0.6875 -0.0625,2.625 -0.4375,0 0,1.8125 0.4375,-0.03125 0.3125,4.375 4.75,-0.5625 0.0625,0.375 -3.40625,0.5 -0.03125,-0.28125 -0.28125,0.0625 0.34375,2.25 -2.28125,0.46875 0.4375,2.25 -0.84375,0.21875 0.0625,0.15625 -0.65625,0.15625 0.15625,0.625 -2.1875,0.5625 0.21875,0.96875 -1.5625,1.71875 0.90625,2.8125 2.3125,0.53125 0.34375,0.84375 2.09375,-0.8125 0.21875,0.59375 0.625,-0.25 0.09375,0.1875 4.28125,-1.84375 0.09375,0.1875 4.40625,-1.90625 1.71875,3.46875 0.96875,-0.53125 0.34375,0.625 -0.46875,0.25 1.34375,2.1875 -8.34375,5.71875 0.96875,1.375 -6.6875,4.9375 5.6875,6.8125 -12.6875,10.5625 c -0.674602,-0.52534 -1.349453,-0.98555 -1.84375,-1.28125 -1.411186,-0.84382 -1.929338,-0.85996 -2.03125,-0.75 -0.102434,0.11028 -0.04061,0.34796 0.5625,1.125 -0.30333,0.21469 -0.826056,0.55621 -1.15625,0.78125 -0.52534,-0.3696 -0.442793,-0.18068 -0.84375,-0.46875 -0.233821,-0.1893 -0.82658,-0.6739 -1.15625,-0.90625 -0.463462,-0.32758 -0.727629,-0.30906 -0.78125,-0.25 -0.03763,0.0408 -0.147207,0.22829 0.40625,1 0.553876,0.7717 0.390247,0.66834 0.53125,1.03125 0.01359,0.0376 0.01976,0.0844 0.03125,0.125 l -0.8125,0.5625 c 0.759058,1.8896 2.188302,4.34755 2.5625,5.0625 0.374302,0.71506 0.796545,1.29762 0.40625,1.71875 -0.413918,0.44747 -1.337569,-0.12043 -1.5,0.1875 -0.04913,0.093 0.06163,0.36911 0.40625,0.71875 0.119367,0.12145 -0.375,0.71875 -0.375,0.71875 0,0 0.07941,0.36433 1.40625,1.59375 -0.17811,0.25525 -0.5625,0.625 -0.5625,0.625 -0.02509,0.0272 0.173158,0.27925 0.4375,0.53125 l -2.03125,2.125 -0.28125,0.0312 0.15625,0.15625 -0.25,0.1875 -0.21875,0.3125 0.09375,0.0937 0.3125,-0.21875 0.15625,-0.28125 0.15625,0.125 0,-0.28125 2,-2.15625 c 0.27051,0.24532 0.536682,0.43311 0.5625,0.40625 0,0 0.321779,-0.42755 0.5625,-0.625 1.327148,1.22984 1.75,1.25 1.75,1.25 0,0 0.525803,-0.51621 0.65625,-0.40625 0.375138,0.31618 0.660945,0.39842 0.75,0.34375 0.289533,-0.1848 -0.351733,-1.11534 0.0625,-1.5625 0.390086,-0.42113 0.977357,0.0251 1.71875,0.34375 0.741707,0.31849 3.276579,1.54384 5.21875,2.15625 l 0.53125,-0.875 c 0.03972,0.0104 0.05508,0.0198 0.09375,0.0312 0.372525,0.1132 0.282012,-0.0555 1.09375,0.4375 0.811947,0.49304 0.992681,0.35326 1.03125,0.3125 0.05435,-0.0585 0.04874,-0.28163 -0.3125,-0.71875 -0.256817,-0.31085 -0.79325,-0.90633 -1,-1.125 -0.317859,-0.37754 -0.09131,-0.28559 -0.5,-0.78125 0.203301,-0.35319 0.49831,-0.93454 0.6875,-1.25 0,0 0.03125,0.0209 0.03125,0.0312 0.821354,0.54635 0.991943,0.61017 1.09375,0.5 0.101389,-0.10996 0.07461,-0.65769 -0.875,-2 -0.333433,-0.47161 -0.828647,-1.05304 -1.40625,-1.6875 0.746201,-1.1111 8.02891,-11.99166 9.625,-14.03125 1.339064,-1.71128 5.890242,-6.40434 7.21875,-7.8125 0.474228,-0.50276 2.688453,-2.51581 4.84375,-4.5 l -1.78125,2.5 1.21875,0.875 -0.875,1.25 0.65625,0.40625 -7.09375,10.375 0.84375,0.5625 -0.375,0.5625 0.90625,0.625 -5.84375,9.125 1.03125,0.65625 -0.375,0.625 6.65625,3.5625 0.34375,-0.71875 1.09375,0.53125 4.34375,-9.9375 0.28125,-0.6875 7.03125,-16.3125 0.28125,0.125 -0.1875,0.3125 1.1875,0.46875 -1.6875,4.34375 1.875,0.71875 -2.375,6.78125 8.6875,2.1875 1.71875,-11.21875 0.90625,0.125 1.5,-9.3125 0.25,0.094 -1.875,16.375 0.4375,0.0312 -1.25,10.59375 1.96875,0.1875 -0.09375,0.9375 0.21875,0.0312 2.0625,2.6875 -0.0625,1 1.3125,0.0625 0,-1.03125 2.21875,-2.5625 0.25,0 -0.03125,-0.9375 1.96875,-0.0625 -0.4375,-9.78125 4.125,-0.40625 -0.84375,-5.75 0.65625,-0.0937 -0.0312,-0.375 0.59375,-0.0937 0.375,1.96875 0.875,0.21875 1.09375,-0.21875 0.375,2 0.375,-0.0625 0.46875,2.125 1.6875,-0.46875 0.6875,2.375 2.125,-0.625 -0.75,-2.34375 1.71875,-0.59375 -0.71875,-2 0.34375,-0.125 -4.90625,-13.625 0.25,-0.125 2.1875,4.78125 1.6875,0.25 2.625,-1.625 0.5,-1.65625 -2.53125,-4.34375 0.875,-0.59375 -0.71875,-1.0625 1.34375,-0.90625 -1.46875,-2.09375 1.625,-1.375 -2.6875,-3.15625 0.3125,-0.28125 -0.71875,-0.78125 0.75,0.34375 0.25,-0.21875 1.0625,1.125 0.34375,-0.34375 2.40625,2.5 0.0625,-0.0625 0.9375,0.90625 0.375,-0.375 1.6875,1.5625 1.28125,-1.375 -1.21875,-1 0.3125,-0.40625 0.71875,0.53125 0.28125,-0.28125 0.75,0.59375 1.21875,-1.6875 6.09375,3.96875 3.09375,-5.65625 -7.46875,-3.25 0.9375,-2.46875 -1.0625,-0.375 0.0312,-0.1875 -6.28125,-1.96875 c -0.10348,-0.278662 0.2008,-0.475422 0.0312,-0.65625 l 2.375,-0.34375 -0.0937,-0.96875 1.15625,-0.0625 -0.125,-1 1.03125,-0.15625 -0.28125,-1.6875 -1.03125,0.1875 -0.21875,-1 -1.125,0.28125 -0.25,-0.96875 -3.125,0.875 c -0.0627,-0.126526 -2.37238,0.541782 -2.46875,0.4375 -0.3791,-0.409995 0.2664,-0.527374 -0.1875,-1.1875 0.60311,-0.553039 1.4886,-0.949363 1.6875,-1.59375 -0.11899,-0.459684 -0.0836,-0.0066 -0.21875,-0.46875 -0.15001,-0.511784 0.26837,-0.408891 0.0937,-0.9375 -0.14818,-0.450698 -0.17868,0.01721 -0.34375,-0.4375 -0.18204,-0.50168 0.14637,-0.265124 -0.0625,-0.78125 -0.17799,-0.440299 -0.18122,0.03497 -0.375,-0.40625 -0.2145,-0.488603 0.11664,-0.279868 -0.125,-0.78125 -0.43842,-0.603477 -1.10794,-0.748468 -1.625,-0.71875 -0.25776,-0.101389 -0.3746,-0.315839 -0.5625,-0.375 l 1.15625,-0.71875 -0.21875,-0.40625 0.71875,-0.4375 -0.3125,-0.59375 0.21875,-0.125 -0.4375,-0.75 0.40625,-0.3125 -0.9375,-1.34375 -0.625,0.46875 -0.875,-1.15625 -0.71875,0.46875 -0.28125,-0.375 -1.84375,1.3125 c -0.72238,-0.569635 -1.22106,-0.884448 -2.3125,-0.8125 -2.61326,0.172268 -3.967,0.744154 -3.34375,2.25 0.51015,1.232584 0.71707,0.759415 2.125,2.625 1.56804,2.077729 1.51942,6.057423 0.90625,8.15625 -1.02198,3.498106 -3.01457,5.87232 -4.84375,6.65625 -1.40081,0.60035 -7.910322,-0.2656 -10.90625,-0.125 -1.742387,-1.696151 -4.524061,-4.715733 -4.78125,-6.125 3.985759,-4.836835 5.077357,-7.898484 8.34375,-11.6875 3.266393,-3.789016 4.387311,-2.246922 8.5625,-5.625 7.80865,-6.317866 6.97963,-7.85663 8.17187,-11.890625 0.3541,-1.198131 2.01414,-4.259405 2.32813,-5.421875 0.67467,-2.497851 0.16989,-3.08939 1.8125,-6.6875 1.36607,-2.992328 2.13921,-5.49221 3.75,-7.21875 0.72978,-0.36393 1.46215,-0.954361 1.96875,-1.65625 1.23246,-1.707565 0.0895,-3.826726 -0.46875,-4.40625 -0.55824,-0.57952 -2.16615,-1.549248 -3.71875,-0.0625 -1.15418,1.105221 -1.5665,2.152825 -1.5625,3.09375 -0.45512,1.868375 -0.59034,2.310287 -1.46875,3.28125 -0.20902,-1.554808 -0.68035,-2.826917 -1.03125,-4 -0.56174,-1.877913 -0.78062,-3.440928 0.6875,-5.15625 1.84955,-2.161003 6.45162,-11.151294 11.09375,-12.1875 3.07231,0.291112 4.6789,-0.935516 4.9375,-2.875 C 129.681,18.923719 128.08384,16.849639 126,16.8125 z M 31.71875,82.03125 c -0.0554,0.2518 0.07076,0.976355 0.09375,1.25 0.02404,0.281589 0.15625,0.624895 0.15625,0.625 0.334688,0.09198 0.707537,0.274255 1.03125,0.1875 0,0 0.01389,-1.392198 0.15625,-1.90625 -0.476005,0 -0.83199,-0.0044 -1.4375,-0.15625 z M 65.75,59.46875 l 0.34375,0.3125 -0.25,0.3125 3.03125,2.75 -0.21875,0.21875 -3.75,-3.125 z m 10.1875,56.125 0.40625,0.34375 c -0.246991,0.24511 -0.328887,0.30035 -0.5625,0.53125 l -0.375,-0.34375 z m -1.09375,1.1875 0.3125,0.3125 c -0.16609,0.16285 -0.355968,0.29849 -0.46875,0.40625 -0.412872,0.39741 -1.109885,1.07123 -1.8125,1.65625 z M 58,130.0625 58.15625,130.25 47.28125,142 c -0.502031,-0.4506 -1.029532,-0.89179 -1.53125,-1.3125 z m 0.25,4.75 c -0.472764,1.3191 -2.196392,3.63919 -3.25,5.09375 -1.812143,2.50117 -3.575416,4.91591 -4.0625,5.59375 -0.444752,-0.45342 -0.902863,-0.89272 -1.375,-1.34375 z m -9.625,2.5 c -1.839946,1.60905 -2.944252,2.56435 -3.40625,2.96875 -0.03658,-0.0314 -0.08633,-0.0657 -0.125,-0.0937 0.444752,-0.36541 1.631725,-1.31204 3.53125,-2.875 z m 5.5625,5.0625 c 0,0 -1.529062,2.2948 -2.59375,3.84375 -0.04181,-0.0439 -0.05194,-0.11005 -0.09375,-0.15625 z"
       inkscape:connector-curvature="0"
       sodipodi:nodetypes="sscsscsscssscssssscccccccccccccccccccccccccccccccccccccccccccccccccccccccccccccccccccccccccccccccccccccccccccccccccccccccccccccccccccccccccccccccccccccccccccccccccccccccccccccccccccccccccccccccccccccccccccccccccccccccccccccccccccccccccccccccccccccccccccccccccccccccccccccccccccccccccccccccccccccccccccccccsssssccssssscsssccsscsscccccccccccccccccccccccccccccccccccccccccc" />
  </g>
  <g
     inkscape:groupmode="layer"
     inkscape:label="Text"
     style="display:inline"
     sodipodi:insensitive="true">
    <g
       style="stroke:none;fill:#cde3f4;fill-opacity:1">
      <path
         d="M 148.875 100.34375 C 148.54901 100.34375 148.25034 100.48978 148.0625 100.75 C 147.91655 100.95869 147.82828 101.19135 147.8125 101.40625 L 147.78125 101.4375 L 147.78125 101.46875 L 147.78125 101.5 C 147.78125 101.78359 147.90692 102.05425 148.09375 102.28125 C 148.29546 102.52028 148.57896 102.65625 148.90625 102.65625 L 148.96875 102.65625 C 149.24157 102.65625 149.4956 102.5302 149.71875 102.34375 C 149.9579 102.14297 150.09375 101.86935 150.09375 101.5625 L 150.09375 101.40625 C 150.09375 101.10595 149.98195 100.81782 149.75 100.625 C 149.54083 100.4467 149.30955 100.34375 149.0625 100.34375 L 148.875 100.34375 z "
         style="font-size:14.12811184000000075px;font-style:normal;font-variant:normal;font-weight:normal;font-stretch:normal;text-indent:0;text-align:center;text-decoration:none;line-height:100%;letter-spacing:0px;word-spacing:0px;text-transform:none;direction:ltr;block-progression:tb;writing-mode:lr-tb;text-anchor:middle;baseline-shift:baseline;color:#000000;fill:#cde3f4;fill-opacity:1;fill-rule:nonzero;stroke:none;stroke-width:0.49999997000000002;marker:none;visibility:visible;display:inline;overflow:visible;enable-background:accumulate;font-family:Averia Serif Libre;-inkscape-font-specification:Averia Serif Libre" />
      <path
         d="M 154.34375 95.25 C 153.92604 95.250008 153.49581 95.34975 153.0625 95.53125 C 152.62616 95.709091 152.26557 95.935736 151.96875 96.25 C 151.67724 96.5589 151.43342 96.944213 151.25 97.40625 C 151.07053 97.870652 150.96875 98.345995 150.96875 98.8125 L 150.96875 99.15625 C 150.96875 99.580755 151.06045 100.03125 151.21875 100.5 C 151.38394 100.97486 151.60864 101.35638 151.90625 101.65625 C 152.53158 102.28629 153.33193 102.625 154.25 102.625 L 154.375 102.625 L 154.5 102.625 C 154.90223 102.625 155.29584 102.5415 155.71875 102.375 C 156.60317 102.02845 157.23808 101.38677 157.59375 100.46875 C 157.77774 100.00031 157.875 99.52139 157.875 99.0625 L 157.875 98.71875 C 157.875 98.243705 157.8053 97.769158 157.625 97.3125 C 157.45068 96.858802 157.21991 96.503304 156.9375 96.21875 C 156.31137 95.587892 155.54225 95.250008 154.6875 95.25 L 154.34375 95.25 z M 154.28125 96.34375 L 154.4375 96.34375 C 154.85675 96.343755 155.17476 96.536906 155.46875 97 C 155.76583 97.457308 155.90624 98.043476 155.90625 98.8125 L 155.90625 99.25 C 155.90624 99.95985 155.76537 100.52202 155.5 100.9375 C 155.23568 101.35131 154.94222 101.53125 154.53125 101.53125 L 154.46875 101.53125 C 154.45775 101.53125 154.4483 101.53148 154.4375 101.53125 C 154.19248 101.52625 153.97576 101.46945 153.78125 101.34375 C 153.19415 100.95604 152.875 100.19852 152.875 98.96875 L 152.875 98.9375 L 152.875 98.875 L 152.875 98.84375 L 152.875 98.78125 C 152.875 97.967885 153.02072 97.387568 153.25 97.03125 C 153.56417 96.54166 153.8766 96.343755 154.28125 96.34375 z "
         style="font-size:14.12811184000000075px;font-style:normal;font-variant:normal;font-weight:normal;font-stretch:normal;text-indent:0;text-align:center;text-decoration:none;line-height:100%;letter-spacing:0px;word-spacing:0px;text-transform:none;direction:ltr;block-progression:tb;writing-mode:lr-tb;text-anchor:middle;baseline-shift:baseline;color:#000000;fill:#cde3f4;fill-opacity:1;fill-rule:nonzero;stroke:none;stroke-width:0.49999997000000002;marker:none;visibility:visible;display:inline;overflow:visible;enable-background:accumulate;font-family:Averia Serif Libre;-inkscape-font-specification:Averia Serif Libre" />
      <path
         d="M 160.53125 95.375 C 159.82877 95.375007 159.31617 95.45924 158.96875 95.71875 C 158.87395 95.78887 158.75 95.88294 158.75 96.0625 C 158.75 96.197867 158.8296 96.322165 158.90625 96.40625 C 158.98285 96.49034 159.07155 96.554905 159.1875 96.625 C 159.348 96.71992 159.44676 96.845236 159.5 97.03125 C 159.5188 97.09564 159.5456 97.312172 159.5625 97.65625 C 159.5794 98.000328 159.59375 98.480985 159.59375 99.0625 C 159.59375 99.64154 159.5804 100.10347 159.5625 100.4375 C 159.5446 100.77153 159.5108 101.00136 159.5 101.03125 C 159.4542 101.1665 159.35233 101.27294 159.1875 101.375 C 159.1795 101.38 159.16435 101.37 159.15625 101.375 C 159.04528 101.4394 158.95026 101.51794 158.875 101.59375 C 158.7943 101.67505 158.71875 101.79453 158.71875 101.9375 C 158.71875 102.04483 158.77125 102.14323 158.84375 102.21875 C 158.91625 102.29425 159.00121 102.34287 159.09375 102.375 C 159.27883 102.4393 159.49417 102.46875 159.78125 102.46875 L 160.1875 102.46875 L 160.21875 102.46875 L 160.5 102.5 L 161.21875 102.5 C 161.568 102.5 161.85555 102.45695 162.0625 102.40625 C 162.16597 102.38085 162.25865 102.375 162.34375 102.3125 C 162.42885 102.2499 162.5 102.12655 162.5 102 C 162.5 101.70976 162.2864 101.46211 162 101.3125 C 161.78572 101.20056 161.63516 101.07728 161.5625 100.9375 C 161.5454 100.9038 161.524 100.75394 161.5 100.5 C 161.476 100.24606 161.4375 99.897853 161.4375 99.46875 C 161.4375 98.614952 161.5344 97.994389 161.65625 97.6875 C 161.77084 97.407403 161.90545 97.241121 162.03125 97.125 C 162.15705 97.008879 162.26415 96.937502 162.40625 96.9375 C 162.51847 96.937503 162.64371 96.98302 162.8125 97.09375 C 163.03403 97.239116 163.24631 97.343757 163.46875 97.34375 C 163.68627 97.343757 163.91576 97.25447 164.0625 97.09375 C 164.21295 96.922379 164.28124 96.68024 164.28125 96.4375 C 164.28124 96.182062 164.14472 95.942561 163.96875 95.75 C 163.96175 95.7427 163.97575 95.72591 163.96875 95.71875 C 163.78402 95.53148 163.53405 95.406259 163.28125 95.40625 C 162.69559 95.406258 162.12206 95.63863 161.59375 96.0625 C 161.51885 96.12243 161.50945 96.10652 161.46875 96.125 C 161.42775 96.05079 161.37795 95.950135 161.3125 95.8125 C 161.17685 95.526142 160.86772 95.375009 160.53125 95.375 z "
         style="font-size:14.12811184000000075px;font-style:normal;font-variant:normal;font-weight:normal;font-stretch:normal;text-indent:0;text-align:center;text-decoration:none;line-height:100%;letter-spacing:0px;word-spacing:0px;text-transform:none;direction:ltr;block-progression:tb;writing-mode:lr-tb;text-anchor:middle;baseline-shift:baseline;color:#000000;fill:#cde3f4;fill-opacity:1;fill-rule:nonzero;stroke:none;stroke-width:0.49999997000000002;marker:none;visibility:visible;display:inline;overflow:visible;enable-background:accumulate;font-family:Averia Serif Libre;-inkscape-font-specification:Averia Serif Libre" />
      <path
         d="M 168.21875 95.25 C 166.77975 95.250008 165.72654 95.773189 165.21875 96.78125 C 165.04793 97.120446 164.96875 97.46123 164.96875 97.8125 C 164.96875 98.395636 165.18643 98.964513 165.59375 99.53125 C 165.70065 99.680409 165.71592 99.796986 165.71875 99.75 A 0.250025 0.250025 0 0 0 165.71875 99.78125 C 165.71875 99.73644 165.69845 99.7654 165.65625 99.84375 C 165.61405 99.9221 165.53454 100.05196 165.4375 100.1875 C 165.22394 100.49276 165.09375 100.77574 165.09375 101.0625 C 165.09375 101.31802 165.19589 101.57497 165.34375 101.78125 L 165.53125 101.96875 L 165.53125 102 C 165.51815 102.0214 165.5242 102.05985 165.5 102.09375 C 165.4294 102.19065 165.31128 102.32568 165.15625 102.5 C 164.81441 102.88437 164.625 103.27586 164.625 103.6875 C 164.625 104.07095 164.7171 104.42622 164.9375 104.71875 C 165.45263 105.40365 166.43775 105.68749 167.78125 105.6875 C 168.7208 105.68749 169.54663 105.47739 170.25 105 C 170.9505 104.51786 171.34375 103.83735 171.34375 103.0625 C 171.34375 102.29506 170.94259 101.69312 170.25 101.375 C 169.85982 101.20028 169.2748 101.0875 168.4375 101.03125 C 168.02388 101.00365 167.7004 100.98925 167.46875 100.96875 C 167.2371 100.94825 167.06446 100.9379 167.0625 100.9375 C 166.88271 100.8984 166.77361 100.82396 166.71875 100.78125 C 166.66385 100.73855 166.65625 100.7263 166.65625 100.6875 C 166.65625 100.54063 166.68995 100.48537 166.84375 100.40625 C 166.84175 100.40717 166.94605 100.3944 167.09375 100.375 C 167.24145 100.3556 167.43258 100.3261 167.6875 100.3125 C 168.95545 100.2555 169.89821 99.760907 170.375 98.875 C 170.38 98.8657 170.37 98.8531 170.375 98.84375 C 170.53162 98.538834 170.65625 98.208019 170.65625 97.90625 C 170.65625 97.609741 170.6186 97.361515 170.5625 97.125 L 170.46875 96.75 L 170.4375 96.65625 L 170.4375 96.625 C 170.4395 96.6228 170.44955 96.63802 170.46875 96.625 C 170.50725 96.59897 170.59133 96.55149 170.75 96.53125 C 170.96234 96.50184 171.16844 96.46713 171.3125 96.34375 C 171.45656 96.220373 171.53124 96.002104 171.53125 95.8125 C 171.53124 95.616124 171.35868 95.44843 171.1875 95.375 C 171.01632 95.30157 170.843 95.28125 170.59375 95.28125 A 0.250025 0.250025 0 0 0 170.5625 95.28125 L 170.21875 95.3125 C 170.06957 95.3209 169.94516 95.311839 169.875 95.3125 L 169.84375 95.3125 L 169.53125 95.28125 L 169.34375 95.28125 C 168.97663 95.26735 168.76953 95.281259 168.6875 95.28125 C 168.6556 95.28125 168.58445 95.28255 168.53125 95.28125 C 168.50875 95.280681 168.49485 95.25082 168.46875 95.25 C 168.45645 95.249614 168.4506 95.250443 168.4375 95.25 A 0.250025 0.250025 0 0 0 168.40625 95.25 L 168.375 95.25 L 168.21875 95.25 z M 167.53125 96.15625 L 167.78125 96.15625 C 168.0035 96.156254 168.1617 96.22289 168.34375 96.46875 C 168.61715 96.836069 168.75 97.24457 168.75 97.6875 L 168.75 97.96875 A 0.250025 0.250025 0 0 0 168.75 98 L 168.78125 98.03125 L 168.78125 98.0625 L 168.75 98.25 L 168.75 98.28125 L 168.75 98.3125 A 0.250025 0.250025 0 0 0 168.75 98.34375 C 168.75 98.619567 168.6718 98.841833 168.46875 99.03125 C 168.2616 99.220641 168.0486 99.281252 167.78125 99.28125 L 167.59375 99.28125 C 167.23247 99.281253 167.02787 99.173912 166.875 98.9375 C 166.70967 98.671795 166.625 98.355709 166.625 97.96875 L 166.625 97.90625 L 166.625 97.625 C 166.62499 97.177027 166.73009 96.811206 166.9375 96.53125 C 167.15764 96.23962 167.34948 96.156254 167.53125 96.15625 z M 167.03125 102.28125 A 0.250025 0.250025 0 0 0 167.0625 102.28125 A 0.250025 0.250025 0 0 0 167.09375 102.28125 L 167.1875 102.28125 L 167.40625 102.28125 L 167.4375 102.28125 L 167.46875 102.3125 L 168.21875 102.34375 L 168.34375 102.34375 A 0.250025 0.250025 0 0 0 168.375 102.34375 C 168.4389 102.34375 168.55845 102.3571 168.71875 102.375 C 169.08878 102.375 169.36785 102.47973 169.5625 102.625 C 169.75849 102.77495 169.84375 102.91925 169.84375 103.15625 L 169.84375 103.21875 C 169.84375 103.49865 169.70968 103.74816 169.375 104.03125 C 169.0494 104.31071 168.64779 104.46875 168.15625 104.46875 C 168.10615 104.46875 168.04261 104.46175 167.96875 104.46875 L 167.9375 104.46875 L 167.59375 104.46875 C 167.107 104.46874 166.74766 104.33966 166.46875 104.125 C 166.20757 103.9128 166.0625 103.70206 166.0625 103.4375 A 0.250025 0.250025 0 0 0 166.0625 103.40625 L 166.0625 103.375 L 166.0625 103.34375 L 166.0625 103.25 C 166.0625 102.97098 166.173 102.74631 166.4375 102.5 C 166.56246 102.3833 166.74331 102.28748 167.03125 102.28125 z "
         style="font-size:14.12811184000000075px;font-style:normal;font-variant:normal;font-weight:normal;font-stretch:normal;text-indent:0;text-align:center;text-decoration:none;line-height:100%;letter-spacing:0px;word-spacing:0px;text-transform:none;direction:ltr;block-progression:tb;writing-mode:lr-tb;text-anchor:middle;baseline-shift:baseline;color:#000000;fill:#cde3f4;fill-opacity:1;fill-rule:nonzero;stroke:none;stroke-width:0.50000000000000000;marker:none;visibility:visible;display:inline;overflow:visible;enable-background:accumulate;font-family:Averia Serif Libre;-inkscape-font-specification:Averia Serif Libre" />
    </g>
    <g
       style="font-size:38.43431854px;font-style:normal;font-variant:normal;font-weight:normal;font-stretch:normal;text-align:center;line-height:100%;letter-spacing:0px;word-spacing:0px;writing-mode:lr-tb;text-anchor:middle;fill:#ffffff;fill-opacity:1;stroke:none;font-family:Averia Serif Libre;-inkscape-font-specification:Averia Serif Libre">
      <path
         d="m 37.09588,76.694376 c 0.387831,2.6e-5 2.133138,0.212716 5.235925,0.63807 l 0.675604,0.07507 0.638069,0.0563 c 0.600514,0.06258 0.994616,0.131393 1.182306,0.206434 0.800692,0.325316 1.201049,1.457576 1.201073,3.396783 -2.4e-5,1.48885 -0.412893,2.233264 -1.238606,2.233245 -0.237735,1.9e-5 -0.700648,-0.500427 -1.38874,-1.501341 -0.688135,-1.000872 -1.307438,-1.670219 -1.857909,-2.008043 -1.288669,-0.775669 -2.965164,-1.163515 -5.029491,-1.163539 -1.188575,2.4e-5 -2.320835,0.312803 -3.396783,0.938338 -3.22789,1.839164 -4.84183,5.373566 -4.841824,10.603218 -6e-6,1.563907 0.243962,3.10278 0.731904,4.616622 0.500439,1.501347 1.201064,2.727441 2.101877,3.678284 0.900794,0.950853 1.851642,1.626453 2.852547,2.026803 1.000881,0.38785 2.302041,0.58178 3.903485,0.58177 1.601413,1e-5 2.758695,-0.3941 3.47185,-1.182299 0.725628,-0.7882 1.088452,-2.264517 1.088472,-4.428955 -2e-5,-0.825729 -0.243988,-1.513843 -0.731903,-2.064343 -0.137643,-0.162636 -0.43791,-0.394092 -0.900805,-0.69437 -0.462931,-0.300258 -0.694388,-0.531714 -0.69437,-0.69437 -1.8e-5,-0.500435 1.21982,-0.750659 3.659518,-0.75067 2.439654,1.1e-5 3.659492,0.306535 3.659518,0.919571 -2.6e-5,0.137633 -0.168926,0.450412 -0.506703,0.938338 -0.325315,0.475433 -0.525493,0.925835 -0.600536,1.351206 -0.07509,0.412877 -0.131391,1.14478 -0.168901,2.195711 -0.03756,1.038432 -0.0876,1.958002 -0.150134,2.758713 -0.06258,0.800718 -0.287781,1.382488 -0.675603,1.745308 -0.375358,0.35031 -1.538896,0.81322 -3.490617,1.38874 -1.951761,0.57551 -3.728345,0.86327 -5.329759,0.86327 -1.601443,-0.0125 -3.19036,-0.31904 -4.766756,-0.91957 -3.190355,-1.23861 -5.398575,-3.484357 -6.624666,-6.737266 -0.650583,-1.739044 -0.975873,-3.515628 -0.975871,-5.329759 l 0,-0.788204 c -2e-6,-0.02501 -2e-6,-0.05629 0,-0.09383 -2e-6,-1.726527 0.344055,-3.440556 1.032172,-5.142092 1.338691,-3.327949 3.54691,-5.579958 6.624665,-6.756032 1.651463,-0.638044 3.421792,-0.957079 5.310992,-0.957105"
         inkscape:connector-curvature="0" />
      <path
         d="m 68.267464,81.310998 c -1.9e-5,1.213604 -0.262753,1.820396 -0.788204,1.820376 -0.525487,2e-5 -1.088489,-0.53796 -1.689008,-1.613941 -0.588041,-1.075939 -1.313688,-1.870397 -2.176944,-2.383378 -0.850773,-0.512934 -1.951755,-0.769413 -3.30295,-0.769438 -1.351215,2.5e-5 -2.445942,0.356593 -3.284182,1.069706 -0.838255,0.700648 -1.257379,1.682774 -1.257373,2.94638 -6e-6,1.251137 0.575508,2.352119 1.726542,3.30295 0.713128,0.600553 2.283279,1.426289 4.710456,2.477212 2.439663,1.050952 4.24127,2.183212 5.404826,3.396783 1.16352,1.201082 1.745289,2.796255 1.745308,4.785523 -1.9e-5,1.989281 -0.8195,3.615731 -2.458445,4.879359 -1.638979,1.26363 -3.715831,1.89544 -6.230563,1.89544 l -0.69437,0 c -0.925836,0 -1.907962,-0.11886 -2.946381,-0.35657 -1.025922,-0.23771 -1.851659,-0.40661 -2.477212,-0.5067 -0.613052,-0.1126 -1.063453,-0.23146 -1.351206,-0.35657 -0.725651,-0.3378 -1.088475,-1.32618 -1.088472,-2.965147 l 0,-0.638069 c -3e-6,-1.676491 0.381588,-2.514739 1.144772,-2.514746 0.337798,7e-6 0.788199,0.569265 1.351206,1.707775 0.575509,1.138521 1.119744,1.914213 1.632708,2.327078 1.288643,1.025919 2.777471,1.538879 4.466488,1.538869 1.701507,10e-6 2.977645,-0.38784 3.828419,-1.16353 0.863255,-0.788204 1.29489,-1.645219 1.294906,-2.57105 -1.6e-5,-0.938331 -0.131383,-1.695256 -0.394102,-2.270777 -0.26275,-0.575506 -0.738174,-1.132253 -1.426273,-1.670242 -0.688128,-0.550481 -2.233257,-1.369962 -4.635389,-2.458445 -2.402153,-1.10097 -4.066137,-2.095607 -4.991958,-2.983914 -1.363721,-1.313657 -2.045579,-2.983897 -2.045576,-5.010724 -3e-6,-2.026788 0.7882,-3.640728 2.364611,-4.841824 1.576401,-1.201046 3.496864,-1.801582 5.761395,-1.801608 0.938326,2.6e-5 2.026797,0.125138 3.265415,0.375335 1.238591,0.237738 2.151906,0.356594 2.739947,0.356568 0.600519,2.6e-5 1.05092,0.193949 1.351206,0.58177 0.30025,0.387871 0.450384,1.526386 0.450403,3.415549"
         inkscape:connector-curvature="0" />
      <path
         d="m 74.55433,78.458451 c -0.71314,-0.237687 -1.069708,-0.569233 -1.069706,-0.994638 -2e-6,-0.437865 0.519211,-0.65681 1.557641,-0.656836 l 1.107239,0 0.563003,0.01877 1.670241,0.01877 c 2.277024,2.6e-5 3.646996,0.05633 4.10992,0.168901 0.462901,0.100115 0.694358,0.337827 0.69437,0.713137 -1.2e-5,0.250248 -0.375347,0.563027 -1.126006,0.938338 -0.75068,0.362848 -1.194826,0.875805 -1.332439,1.538874 -0.287766,1.351228 -0.431645,4.873119 -0.431636,10.565684 -9e-6,5.692589 0.112592,8.732801 0.337802,9.120644 0.325281,0.563005 1.582652,0.844505 3.772118,0.844505 2.201951,0 3.665756,-0.17515 4.391421,-0.52547 0.738141,-0.35031 1.457533,-1.075957 2.158177,-2.176944 0.713117,-1.113488 1.213563,-1.670235 1.501341,-1.670241 0.462892,6e-6 0.694348,0.387852 0.69437,1.163538 -2.2e-5,2.702417 -0.35659,4.353897 -1.069705,4.954427 -0.425401,0.36282 -2.508508,0.54424 -6.24933,0.54424 l -1.670242,0 -0.563003,-0.0188 -1.107238,0 c -6.005368,0 -9.008046,-0.25022 -9.008044,-0.75067 -2e-6,-0.32529 0.325288,-0.68186 0.975872,-1.06971 0.663088,-0.38784 1.107234,-0.96961 1.332439,-1.745307 0.225197,-0.775689 0.337797,-3.240387 0.337802,-7.394103 l 0.07507,-7.900804 c -5e-6,-2.739925 -0.09384,-4.316331 -0.281501,-4.729223 -0.187672,-0.412845 -0.644329,-0.731879 -1.369973,-0.957105"
         inkscape:connector-curvature="0" />
      <path
         d="m 115.85996,86.828425 c -2e-5,-3.227863 -0.11888,-5.279693 -0.35657,-6.155496 -0.23773,-0.88827 -0.60681,-1.595151 -1.10724,-2.120644 -0.48796,-0.537955 -0.73192,-0.925801 -0.7319,-1.163539 -2e-5,-0.325264 1.01338,-0.48791 3.04021,-0.487936 2.0393,2.6e-5 3.22786,0.09386 3.56569,0.281502 0.33777,0.187693 0.50667,0.481705 0.5067,0.882037 -3e-5,0.200204 -0.36911,0.53175 -1.10724,0.994638 -0.73818,0.462937 -1.19484,0.988406 -1.36997,1.576408 -0.17518,0.588047 -0.26276,3.077768 -0.26274,7.469169 -2e-5,4.378921 -0.0688,7.06882 -0.20643,8.069706 -0.13765,1.000899 -0.5255,2.045581 -1.16354,3.134048 -0.62558,1.075962 -1.62022,1.995532 -2.98392,2.758712 -1.35122,0.75067 -2.95891,1.12601 -4.82305,1.12601 l -0.80697,0 c -3.91601,0 -6.73102,-1.17605 -8.445044,-3.528153 -0.713142,-0.963356 -1.163543,-1.964249 -1.351206,-3.002681 -0.187672,-1.050931 -0.281506,-3.884709 -0.281502,-8.501341 -4e-6,-4.629114 -0.137627,-7.356547 -0.412868,-8.182306 -0.137627,-0.425357 -0.556751,-0.813203 -1.257373,-1.163539 -0.688116,-0.350289 -1.032173,-0.719368 -1.032172,-1.107239 -10e-7,-0.562977 1.132259,-0.844478 3.396783,-0.844504 l 2.158182,0 c 2.07684,2.6e-5 3.11527,0.256505 3.11528,0.769437 -1e-5,0.112626 -0.28151,0.425405 -0.84451,0.938338 -0.56301,0.512982 -0.90707,1.132284 -1.03217,1.857909 -0.11261,0.638091 -0.16891,2.671155 -0.1689,6.099196 -1e-5,0.337818 -1e-5,0.694386 0,1.069705 -1e-5,0.312794 -1e-5,0.619318 0,0.919571 -1e-5,3.540672 0.0688,5.805192 0.20644,6.793566 0.52546,3.890978 2.90883,5.836461 7.15013,5.836461 2.68988,0 4.61035,-1.294903 5.76139,-3.884718 0.56298,-1.263621 0.84449,-4.622868 0.84451,-10.077749 -2e-5,-0.112584 -2e-5,-0.23144 0,-0.356568"
         inkscape:connector-curvature="0" />
      <path
         d="m 137.2353,76.694376 c 0.38783,2.6e-5 2.13314,0.212716 5.23592,0.63807 l 0.67561,0.07507 0.63807,0.0563 c 0.60051,0.06258 0.99461,0.131393 1.1823,0.206434 0.8007,0.325316 1.20105,1.457576 1.20108,3.396783 -3e-5,1.48885 -0.4129,2.233264 -1.23861,2.233245 -0.23773,1.9e-5 -0.70065,-0.500427 -1.38874,-1.501341 -0.68813,-1.000872 -1.30744,-1.670219 -1.85791,-2.008043 -1.28867,-0.775669 -2.96516,-1.163515 -5.02949,-1.163539 -1.18857,2.4e-5 -2.32083,0.312803 -3.39678,0.938338 -3.22789,1.839164 -4.84183,5.373566 -4.84183,10.603218 0,1.563907 0.24397,3.10278 0.73191,4.616622 0.50044,1.501347 1.20106,2.727441 2.10187,3.678284 0.9008,0.950853 1.85165,1.626453 2.85255,2.026803 1.00088,0.38785 2.30204,0.58178 3.90349,0.58177 1.60141,1e-5 2.75869,-0.3941 3.47185,-1.182299 0.72562,-0.7882 1.08845,-2.264517 1.08847,-4.428955 -2e-5,-0.825729 -0.24399,-1.513843 -0.7319,-2.064343 -0.13765,-0.162636 -0.43791,-0.394092 -0.90081,-0.69437 -0.46293,-0.300258 -0.69439,-0.531714 -0.69437,-0.69437 -2e-5,-0.500435 1.21982,-0.750659 3.65952,-0.75067 2.43965,1.1e-5 3.65949,0.306535 3.65952,0.919571 -3e-5,0.137633 -0.16893,0.450412 -0.50671,0.938338 -0.32531,0.475433 -0.52549,0.925835 -0.60053,1.351206 -0.0751,0.412877 -0.13139,1.14478 -0.1689,2.195711 -0.0376,1.038432 -0.0876,1.958002 -0.15014,2.758713 -0.0626,0.800718 -0.28778,1.382488 -0.6756,1.745308 -0.37536,0.35031 -1.5389,0.81322 -3.49062,1.38874 -1.95176,0.57551 -3.72834,0.86327 -5.32976,0.86327 -1.60144,-0.0125 -3.19036,-0.31904 -4.76675,-0.91957 -3.19036,-1.23861 -5.39858,-3.484357 -6.62467,-6.737266 -0.65058,-1.739044 -0.97587,-3.515628 -0.97587,-5.329759 l 0,-0.788204 c 0,-0.02501 0,-0.05629 0,-0.09383 0,-1.726527 0.34406,-3.440556 1.03217,-5.142092 1.33869,-3.327949 3.54691,-5.579958 6.62467,-6.756032 1.65146,-0.638044 3.42179,-0.957079 5.31099,-0.957105"
         inkscape:connector-curvature="0" />
    </g>
  </g>
  <g
     inkscape:groupmode="layer"
     inkscape:label="Border"
     style="display:inline"
     sodipodi:insensitive="true">
    <path
       style="fill:#183d5e;fill-opacity:1;stroke:none;display:inline"
       d="M 90,0 C 40.294373,0 0,40.294373 0,90 c 0,49.70563 40.294373,90 90,90 49.70563,0 90,-40.29437 90,-90 C 180,40.294373 139.70563,0 90,0 z m 0,6.28125 c 46.25385,0 83.75,37.496145 83.75,83.75 0,46.25386 -37.49615,83.75 -83.75,83.75 -46.253848,0 -83.75,-37.49614 -83.75,-83.75 0,-46.253855 37.496152,-83.75 83.75,-83.75 z"
       inkscape:connector-curvature="0" />
  </g>
</svg>
